<svg xmlns="http://www.w3.org/2000/svg" width="345.478" height="170.967" viewBox="0 0 345.478 170.967"><path fill="#6FC2C5" d="M314.318 147.976c-.244-.075-.507-.103-.763-.124-2.53-.21-5.06-.43-7.59-.616-.585-.044-1.18.015-1.768.032-3.32.093-6.625-.163-9.907-.622-.966-.135-1.9-.555-2.822-.914-.53-.206-.888-.61-.915-1.26-.03-.69.255-1.522-.688-1.897-.04-.015-.054-.135-.052-.205.032-.922-.153-1.866.228-2.855.183.312.305.525.448.774.232-.707.19-2.136-.13-3.34l-.296 1.596c-.283-.652-.345-2.472-.142-3.478.17.392.3.688.517 1.182.058-.406.113-.585.103-.76-.058-.987-.112-1.977-.204-2.963-.134-1.426-.262-2.855-.465-4.273-.082-.575-.355-1.125-.568-1.76.332-.44.438-1.156.12-1.347l-.436.395c-.137-.8-.283-1.5-.37-2.206-.088-.69-.153-1.392-.157-2.088-.002-.424.135-.848.233-1.41l-.362-.997c.804-.328.804-.328.496-1.033-.13.05-.26.102-.395.144-.02.007-.054-.038-.128-.09v-1.935l.17-.02.297 1.2c.15-.335.206-.654.194-.97-.026-.683.29-1.513-.763-1.787-.125-.033-.23-.374-.24-.576-.03-.69-.012-1.38-.012-2.083h.723c-.138-.38-.195-.927-.374-.97-.762-.183-.44-.657-.508-1.16.253.16.39.245.598.378v-1.656c-.68-.032-.895-.43-.918-1.01-.03-.698-.09-1.394-.15-2.088-.11-1.307-.353-2.615-.32-3.917.065-2.497.016-4.98-.306-7.457-.073-.567-.216-1.134-.21-1.7.01-.834.126-1.666.2-2.56l.778-.26c-.214-.325-.32-.687-.545-.785-.39-.17-.455-.442-.48-.78-.09-1.246-.182-2.492-.255-3.74-.037-.624-.02-1.25-.054-1.875-.053-1.045-.125-2.088-.188-3.132l.208-.02.42 2.13.23-.045c0-.356.02-.715-.006-1.068-.104-1.395-.234-2.786-.335-4.18-.16-2.272-.28-4.547-.467-6.816-.234-2.894-.496-5.783-.785-8.67-.178-1.792-.437-3.576-.642-5.365-.22-1.93-.43-3.86-.63-5.79-.192-1.868-.384-3.736-.542-5.605-.257-3.044-.602-6.087-.7-9.136-.15-4.533-.893-8.933-2.486-13.175-.332-.883-.86-1.7-1.377-2.498-.344-.533-.805-.52-1.122.02-.255.434-.424.94-.523 1.438-.76 3.755-1.36 7.532-1.567 11.367-.286 5.297-.354 10.598-.17 15.896.042 1.18-.12 2.432.494 3.56.087.16-.017.424-.03.64-.025.437-.088.874-.068 1.31.044 1.025.13 2.05.194 3.076.076 1.175.13 2.35.234 3.522.022.256.16.545.336.736.38.412.388.755-.034 1.124-.128.11-.227.257-.375.43l.75.868c-.857.447-.677 1.218-.656 1.945.054 1.84.115 3.68.173 5.52.012.405.056.75.368 1.1.38.428.44.994.05 1.518-.427.57-.436 1.22-.375 1.84l.723.462c-.205.422-.92.455-.626.986.125.228.51.31.81.478l-.084.528c.13.077.218.147.317.184.412.145.475.44.32.79-.162.37-.437.457-.81.256-.145-.078-.33-.08-.72-.166.398.434.75.647.826.935.137.508.106 1.062.147 1.595l.57-.15c.457.72-.963.932-.305 1.63-.54.532-.445 1.153-.296 1.873l.81-.313c0 .256.074.518-.013.592-.22.187-.512.287-.698.383.042.337.15.616.09.855-.12.49-.356.953-.49 1.442-.08.3-.19.714-.054.924.338.513.81.938 1.164 1.328l-1.115 2.506c.182.347.566.77.475.948-.52 1.006.3 1.905.02 2.872h.856c-.104.28-.137.617-.26.655-.75.23-.647.762-.582 1.333.033.285.062.684-.098.858-.593.648-.406 1.25-.055 1.9.265.494.306.978-.216 1.268-.042.492.828.79.105 1.214l.668.698.687-.14c.57 1.01-.323 1.485-.73 2.208l1.1.076c-.417.596-.83 1.006-1.012 1.5-.186.51-.145 1.104-.202 1.643.403.362 1.343-.23 1.31.84l-.824.267-.535 1.568c.513.164.582.552.374 1.158-.116.34.085.868.712.798.04-.6.074-1.155.11-1.71.098-.06.195-.116.294-.175.046.14.115.275.135.418.078.58.255 1.178.174 1.736-.072.496-.438.95-.75 1.573.714.062 1.026.51.834 1.12-.185.59-.713-.06-1.153.222.026.37-.04.823.104 1.193.324.834.497 1.665.3 2.526 1.202.607 1.316.814 1.064 1.88-.687.07-.687.07-1.117.415.146.752.896.022 1.158.447 0 .106.028.222-.005.244-.733.51-.582 1.17-.475 1.93.14.965.723 2.07-.535 2.827l1.6.556c-1.02.423-.476 1.485-1.067 2.003.362.17.766.262.77.375.03.605.515 1.233-.03 1.833-.087.095-.164.26-.147.376.123.833.272 1.66.412 2.49.572.178.308.575.263.93-.018.138.035.298.1.427.51 1.054.367 2.222.565 3.33.037.208-.13.466-.237.684-.19.39-.508.74-.594 1.147-.206.966-.333 1.952-.443 2.936-.098.89.067 1.737.6 2.49.104.148.157.332.238.497.528 1.086 1.05 2.175 1.593 3.253.098.19.278.342.44.488 2.438 2.21 5.307 3.62 8.52 4.16 2.645.442 5.334.62 8.01.853 1.28.114 2.574.066 3.86.127 2.133.1 4.263.245 6.395.337.966.042 1.965-.03 2.77-.59 1.48-1.026 2.693-2.3 3.058-4.164.118-.604.17-1.225.322-1.818.475-1.857.654-2.112-1.677-2.826zm-36.75-78.82c.29-.69-.865-1.272-.125-2.093.607.723.24 1.417.126 2.092zm.332 30.15c.053-.1.147-.235.24-.245.088-.01.192.117.397.256-.228.098-.338.18-.447.18-.068-.002-.204-.163-.19-.19zm.505 3.268v-1.585c.292.523.42 1.053 0 1.584zm5.05-49.442c-.094-.003-.21-.136-.268-.24-.02-.032.102-.21.17-.216.11-.014.23.062.46.137-.18.17-.272.322-.36.32zm4.916 87.662c-.03-.054-.103-.124-.09-.16.03-.08.105-.143.16-.212l.117.198-.186.174zm1.132-9.117l.164-.064c.062.164.122.327.185.49-.053.022-.106.043-.16.063l-.188-.49zm-3.02-49.38c-.117.567-.13 1.12.516 1.565l-.267-1.606-.248.04zm.823 12.152c.022.124.11.237.17.356l.11-.058-.07-.73c-.06.003-.12.008-.178.012-.012.14-.055.285-.032.42zm-.295-8l-.166-.004c-.015.216-.03.43-.043.646.07.016.14.03.21.047v-.69zm2.173 35.807c.045-.63.045-.63-.402-.818.14.28.237.48.403.817zm-1.145-17.255l-.124-.015c-.024.144-.05.285-.073.43l.198.027v-.442zm-1.13-20.354c-.056.01-.113.022-.17.034l.078.382c.056-.01.11-.022.166-.033-.024-.127-.05-.254-.073-.382zm2.425 39.36c.033-.06.096-.12.092-.174-.007-.085-.06-.166-.12-.32-.082.154-.164.24-.158.32.006.062.12.114.186.173zm-1.525-23.452v-.19c-.056.014-.115.02-.166.045-.013.007-.013.09.002.098.052.025.11.033.164.048zM87.043 32.726c-.952-.546-1.897-1.104-2.864-1.62-.284-.152-.628-.233-.95-.26-.77-.063-1.546-.12-2.317-.1-5.298.116-10.597.21-15.892.414-1.236.048-1.96-.24-2.486-1.41-.402-.893-1.137-1.637-1.784-2.53-.346.46-.636.75-.816 1.102-.625 1.207-1.73 2.21-1.578 3.76.03.3-.19.628-.31.936-.652 1.653-1.105 3.355-1.317 5.12-.338 2.814-.717 5.622-1.015 8.44-.123 1.16-.215 2.35.416 3.446.113.194.063.483.082.73.014.174-.022.365.035.524.424 1.18.604 2.352.25 3.608-.123.435-.433.923-.062 1.467.586.858.398 1.887.444 2.85.042.907.058 1.813-.318 2.685-.105.242.018.576.01.868-.01.498-.022.998-.077 1.493-.03.284-.233.568-.21.84.117 1.393.016 2.777-.148 4.152-.168 1.422.527 2.817.067 4.242-.06.187.07.43.085.65.04.575.09 1.153.092 1.73.003.437-.07.874-.09 1.312-.046.99-.086 1.98-.117 2.968-.008.23.027.46.06.947.233-.36.396-.496.402-.638.075-1.746.126-3.493.184-5.24-.49-.77.72-.725.637-1.31-.008-.063.185-.222.215-.205.2.106.523.23.54.383.085.686.1 1.383.095 2.077 0 .14-.19.283-.3.418-.5.61-.534 1.04.008 1.61.403.423.338.77.01 1.15-.155.18-.334.338-.504.507.75.7.897 1.35.462 1.96-.1.14-.296.31-.435.3-.392-.03-.777-.146-1.285-.253-.144 1.96-.333 3.927-.422 5.898-.096 2.13-.106 4.266-.134 6.4-.004.308.097.618.15.93.227-.776.25-1.51.346-2.235.138-1.054.352-2.098.478-3.153.04-.35-.056-.727-.147-1.076-.245-.947 0-1.41 1-1.803.038.06.114.12.11.177-.085 1.305.19 2.618-.128 3.924-.1.412-.003.877.032 1.313.038.493.132.983.155 1.477.014.27-.17.594-.074.812.08.188.43.258.78.445-.84.206-.813.754-.826 1.33-.043 1.94.336 3.886-.11 5.818-.1.428-.132.87-.19 1.306-.16 1.2-.318 2.4-.48 3.6-.015.11-.02.24-.083.318-.15.186-.308.425-.51.49-.13.04-.384-.167-.51-.32-.153-.19-.23-.44-.368-.717-.333.89-.738 1.68-.918 2.518-.215 1-.268 2.04-.325 3.068-.017.292.236.59.292.897.055.296.115.657-.003.906-.293.617-.482 1.742-.305 2.5.772-.555 1.14-2.187.778-3.227.138-.395.357-.723.347-1.044-.025-.805-.066-.804.81-1.077.043.172.123.34.12.51-.02 1.602.046 3.202-.064 4.808-.096 1.42-.374 2.844-.1 4.283.078.413.02.903-.134 1.297-.25.644-.225 1.2.306 1.773-.61.393-.6.835-.28 1.362.136.228.124.555.15.84.065.725-.05 1.44-.092 2.16-.052.903.124 1.835.306 2.732.14.69.003 1.446.58 2.066.315.337-.09 1.15-.613 1.52-.6-.423-1.012-.893-.822-1.735.083-.37-.125-.805-.2-1.21-.13.018-.26.033-.39.05 0 .646.074 1.303-.017 1.935-.138.954-.16 1.827.362 2.717.324.553.422 1.253.55 1.9.305 1.553.75 3.035 1.955 4.15.455.42.95.805 1.466 1.15 1.34.903 2.652 1.874 4.073 2.633 1.352.724 2.8 1.304 4.258 1.784 2.477.815 4.995 1.503 7.497 2.242.852.25 1.69.165 2.483-.193.67-.3 1.33-.636 1.946-1.03.865-.56 1.443-1.353 1.66-2.382.038-.178.048-.387.15-.52.46-.606.914-1.222 1.436-1.772.532-.56.847-1.076.67-1.934-.194-.935-.08-.96-1.01-1.267-.28-.093-.562-.187-.85-.247-2.7-.57-5.407-1.106-8.1-1.712-1.946-.44-3.8-1.143-5.508-2.206-.84-.524-1.317-1.237-1.424-2.233-.158-1.462-.41-2.914-.54-4.378-.16-1.805-.578-3.597-.178-5.437.145-.662-.03-1.39-.01-2.084.076-2.643.187-5.283.253-7.926.023-.99-.204-2.04.2-2.95.63-1.424.23-2.978.735-4.395.023-.066.035-.165.002-.217-.305-.492-.133-.925.037-1.43.127-.375-.227-.933-.07-1.275.507-1.12 0-2.245.134-3.37.16-1.324-.023-2.687-.05-4.034-.02-.874.044-1.755-.063-2.617-.073-.586-.143-1.088.07-1.692.348-.993.262-1.08 1.237-1.045 1.654.06 3.307.175 4.958.302 2.758.21 5.348-.24 7.702-1.787 1.085-.713 1.866-1.657 2.375-2.832.196-.452.33-.93.533-1.518-1.05 0-1.924.005-2.798 0-1.064-.01-2.143-.15-3.188-.018-3.03.383-6.046.874-9.067 1.322-.353.053-.707.098-1.21.167-.087-.93-.308-1.77-.213-2.572.112-.944.126-1.888.114-2.83.206.02.415.027.63.028.89.004 1.785-.032 2.676-.022.422.004.838.096 1.238-.112.054-.028.164-.03.232-.012.318.08.573-.03.87-.113.366-.104.77-.237 1.176-.124.585.163 1.175.237 1.802.044.067-.02.175-.025.23 0 .367.173.783.092 1.177.063.227-.017.424-.06.626.05.072.04.258.037.343-.003.418-.195.84-.096 1.16.03.635.25 1.218.114 1.816-.064.682-.203 1.263-.508 1.736-.93.248-.22.475-.427.627-.703.15-.27.283-.598.706-.747-.068-.292-.192-.56-.176-.828.014-.267.17-.534.27-.826-.213-.04-.383-.07-.552-.105-1.147-.232-2.29-.417-3.526-.146-.505.11-1.055.11-1.584.134-.688.03-1.397-.047-2.06.063-1.206.202-2.397.362-3.63.388-.955.02-1.912.182-2.87.268-.282.025-.572.023-.854.007-.156-.01-1.09-.065-2.18-.11-.003-.115-.01-.23-.012-.343-.023-1.466-.13-2.926-.085-4.396.293.012.586.024.88.038.13.007.26.032.39.035.756.02 1.512.03 2.267.046.857.02 1.715.045 2.572.065 1.235.028 2.47.058 3.706.08.405.006.812-.003 1.217-.022.186-.01.37-.06.556-.092.17-.027.355-.107.512-.07.436.1.85-.033 1.24-.144.425-.12.81-.382 1.21-.588.205-.105.4-.23.608-.33.846-.406 1.747-.637 2.66-.835.226-.05.46-.104.585-.376l-.217-.126.215-.38-1.397-.104c.338-.238.755-.07 1.167-.288-.3-.014-.526-.014-.75-.038-.332-.035-.66-.087-.99-.132-.03-.004-.06-.018-.087-.015-.56.07-1.038-.227-1.56-.33-.34-.068-.685-.107-1.028-.162-.122-.02-.242-.054-.363-.074-.343-.057-.684-.13-1.027-.153-.1-.007-.228.113-.313.203-.106.112-.194.217-.402.123l.195-.433c-.37-.062-.72-.2-1.06.046-.19.14-.363.15-.644-.006.21-.062.347-.103.563-.165-.356-.204-.69-.213-1.023-.22-.332-.01-.658-.236-1.116.007l.348.194-.018.062c-.12 0-.24.01-.36 0-.285-.025-.228-.232-.235-.445-.055.05-.157.103-.155.148.017.264-.16.283-.34.287-.25.006-.497.003-.745-.01-1.38-.066-2.765-.098-4.14-.22-.853-.076-1.705-.083-2.556-.128-.04-.002-.078-.01-.118-.02-.003-.055-.005-.108-.01-.162l.337-.132c-.13-.073-.25-.084-.356-.064-.032-.332-.08-.663-.158-.993-.058-.24-.027-.52.028-.767.385-1.752.062-3.497-.098-5.232-.18-1.938-.57-3.854-.76-5.79-.13-1.31-.07-2.638-.095-3.958-.035-1.836-.015-3.675-.115-5.508-.175-3.235-.428-6.465-1.075-9.65-.06-.3-.008-.626-.008-.926.214-.053.322-.11.424-.1.22.022.438.063.648.123 3.85 1.103 7.787 1.582 11.78 1.59.987.002 1.996-.07 2.955-.283 1.108-.247 2.175-.677 3.252-1.05.267-.094.528-.245.747-.424.672-.546 1.323-1.12 2.007-1.703-.065-.13-.17-.345-.266-.544.27-.19.487-.344.78-.548-.175-.124-.257-.198-.35-.252zm-29.4 39.01c-.263-.298-.297-.604 0-1.025v1.027zM56.638 85.44l1.18.3c-.558.464-.558.464-1.18-.3zm.887-.406c-.456.148-.84-.077-1.172-.578.513-.47.973-.656 1.584-.45.05.45.042.88-.412 1.028zm.454-17.234c-.09 0-.18-.078-.27-.122.07-.1.13-.215.224-.284.026-.02.155.1.412.275-.17.064-.27.132-.366.13zm-1.962 40.854c-.1-.03-.18-.14-.266-.213.072-.06.142-.166.217-.17.074-.002.153.1.37.255-.146.063-.25.15-.32.13zm20.432-35.46c-.088.063-.117.098-.152.105-.052.01-.11.004-.164.004l-.01-.108c.086 0 .172 0 .326-.002zm-5.717-3.368c.017 0 .036.027.053.043l-.052.048-.052-.046c.017-.016.034-.044.053-.046zm-3.015 3.523l-.09-.045c.015-.02.03-.036.043-.055.022.01.054.015.063.03.01.017-.01.045-.015.07zm.262-3.957c-.1.158-.21.18-.375.093.106-.15.204-.207.375-.093zM56.36 103.425l-.02.017.03.024c0-.017-.007-.026-.01-.04zm-.834-.4c.294.105.747-.086.834.4l.463-.392c-.946-.61-.946-.61-1.297-.007zm.31-2.924l-.292 1.342c.683-.42.683-.42.29-1.34zm-2.178 19.774l1.06.21c-.205-.787-.53-.574-1.06-.21zm2.5-23.672l-.255-.01-.082 1.013.337.014V96.2zm-.68 9.587c.213-.014.425-.06.637-.098-.02-.12-.037-.24-.056-.358l-.655.1c.024.125.054.356.072.355zm-1.745 19.072l-.198.637.218.103c.074-.1.198-.193.21-.3.015-.144-.055-.297-.088-.445-.047 0-.095.002-.142.004zm2.608-21.42c-.01.01-.02.027-.03.04.02-.007.04-.01.06-.018 0 .002-.03-.023-.03-.023zm-.03.04c-.353.102-.826.037-.917.636.592.08.676-.382.916-.637zm-9.074-75.275c-.544-.47-1.156-.86-1.893-1.397-.097-.012-.46.035-.73-.103-1.235-.63-2.607-.768-3.92-.956-2.144-.31-4.322-.37-6.497-.118-1.35.157-2.718.168-4.07.317-2.19.24-4.383.502-6.563.837-1.925.295-3.85.63-5.743 1.08-2.106.5-4.252.93-6.155 2.058-1.675.995-3.358 1.977-5.024 2.988-.307.187-.59.453-.81.737-.508.65-.323 1.093.484 1.215.326.05.66.054.992.054 1.076-.002 2.1.142 3.112.59 1 .444 2.064.84 3.137.988 1.56.218 3.152.204 4.73.27.253.01.508-.082.764-.115.433-.057.867-.133 1.303-.15 1.838-.074 3.676-.14 5.514-.19 3.875-.106 7.553-1.034 11.117-2.53 1.098-.462 2.248-.88 3.565-.96.258 1.013-.127 1.752-.42 2.484-.83 2.085-1.712 4.15-2.563 6.23-1.017 2.48-2.068 4.953-3.017 7.462-.643 1.7-1.777 3.224-1.87 5.125-.003.06-.084.115-.128.172-1.36 1.728-1.925 3.84-2.794 5.803-.157.357-.18.77-.327 1.135-.365.915-.806 1.804-1.135 2.73-.142.4-.08.87-.117 1.378-.27.44-.604.982-.89 1.45.183.228.402.38.405.538.004.168-.2.485-.308.483-.516-.008-.582.344-.693.702-.315 1.02-.596 2.052-.985 3.043-.203.517-.027.86.284 1.178-.364.488-1.184.672-.72 1.47.022.04-.1.163-.152.25-.16.27-.377.52-.47.812-.41 1.295-.786 2.6-1.176 3.9-.496 1.655-.994 3.308-1.487 4.95.177.235.34.456.594.796h-.914c-.322.865-.627 1.654-.907 2.453-.16.45-.39.915-.384 1.37.006.437-.166.72-.32 1.085-.342.808-1.016 1.63-.427 2.413-.236.812-.385 1.5-.637 2.15-.256.66-.613 1.284-.907 1.886.298.226.473.357.81.61-1.06.222-1.196.922-1.353 1.668-.293 1.398-.706 2.77-.993 4.168-.585 2.85-1.404 5.63-2.433 8.348-.035.093-.004.21-.004.315l.553-.044c.096.456-.008.746-.414.937-.243.114-.553.267-.64.48-.086.21.072.52.076.54-.293.544-.573.89-.675 1.28-.716 2.736-1.393 5.482-2.088 8.224-.044.173-.146.33-.208.498-.406 1.103-.922 2.182-1.18 3.32-.252 1.118-.83 2.023-1.688 2.602-.78.524-.946 1.265-1.25 1.982-.263.62-.427 1.284-.636 1.93-.11.377-.013.826-.127 1.212-.344 1.165-.05 2.254.894 3.025.195.158.342.376.507.57.77.905 1.63 1.62 2.903 1.73.484.043 1.126.2 1.386.54.768 1.005 1.836 1.15 2.924 1.27 1.6.173 3.208.25 4.804.437.757.09 1.49.397 2.235-.05.1-.063.298-.043.416.013.56.263 1.033.03 1.576-.125.67-.19 1.412-.452 2.126-.092 1.028.52 2.076.813 3.226.444.123-.04.317-.03.41.043.637.502 1.395.378 2.104.378.412 0 .77-.073 1.118.245.124.113.457.138.616.053.777-.413 1.52-.083 2.08.293 1.104.743 2.167.512 3.263.175 1.25-.383 2.332-1.043 3.236-2.015.476-.51.91-.984 1.22-1.65.303-.657.588-1.45 1.367-1.75-.084-.747-.27-1.442-.208-2.114.06-.666.373-1.31.595-2.025-.377-.14-.68-.25-.978-.365-2.027-.798-4.05-1.473-6.304-1.022-.92.185-1.906.086-2.858.045-1.238-.052-2.5-.377-3.703-.222-2.19.284-4.347.467-6.564.3-1.712-.13-3.45.104-5.177.144-.51.01-1.03-.05-1.534-.145-.718-.137-.837-.36-.673-1.086.04-.178.12-.348.17-.525.73-2.508 1.49-5.006 2.172-7.525.566-2.095.995-4.228 1.562-6.322.557-2.055 1.213-4.084 1.822-6.125.167-.56.347-1.118.476-1.687.706-3.12 1.4-6.24 2.093-9.364.365-1.65.67-3.314 1.09-4.95.806-3.13 1.673-6.243 2.52-9.36.548-2.02 1.095-4.04 1.663-6.055.898-3.184 1.776-6.376 2.733-9.543.542-1.792 1.122-3.586 1.88-5.293.59-1.33 1.03-2.716 1.698-4.023.678-1.326 1.045-2.813 1.563-4.226.885-2.413 1.76-4.83 2.68-7.23 1.118-2.918 2.24-5.836 3.434-8.725.87-2.107 1.935-4.135 2.46-6.377.276-1.18.58-2.354 1.344-3.347.197-.255.32-.568.546-.983-.496-.504-.97-1.05-1.514-1.516zm-31.8 80.783c-.05-.07-.12-.133-.143-.21-.01-.034.08-.142.117-.14.076.008.148.067.27.13l-.244.22zm4.95-9.656c-.037-.057-.112-.12-.102-.166.02-.08.09-.147.173-.273.074.13.168.228.148.28-.027.07-.142.107-.22.16zm128.216 41.19c-.293-3.666-.562-7.338-.69-11.013-.14-4.04-.1-8.09-.16-12.136-.02-1.212-.124-2.423-.166-3.635-.07-2.006-.106-4.01-.187-6.015-.036-.88-.177-1.756-.218-2.637-.085-1.79-.13-3.583-.207-5.375-.008-.173-.078-.374-.188-.505-.305-.36-.185-.73-.152-1.14.072-.868.328-1.893-.025-2.58-.452-.878-.367-1.55-.12-2.37.125-.41.105-.877.088-1.314-.044-1.092-.09-2.186-.195-3.273-.267-2.815-.522-5.637-.873-8.445-.128-1.02-.346-2.017-.403-3.062-.108-2.01-.437-4.006-.678-6.008-.043-.35.012-.71-.51-.84-.455-.11-.417-.542-.084-.743.42-.254.47-.595.313-.933-.34-.728-.284-1.603-.88-2.232-.33-.347-.37-.75.103-1.012.363-.202.48-.514.347-.83-.32-.77.127-1.736-.628-2.396-.07-.062-.074-.313-.008-.4.397-.526-.038-.863-.257-1.17.123-.347.33-.633.296-.888-.146-1.143.032-2.33-.58-3.42-.228-.41-.242-1.005-.183-1.495.086-.72-.328-1.495.215-2.168.036-.046.012-.145.004-.218-.073-.642-.157-1.283-.22-1.927-.06-.61-.08-1.198-.278-1.813-.225-.703-.292-1.585-.066-2.27.26-.786.183-1.298-.468-1.75.19-.39.35-.713.407-.832-.153-.944-.284-1.69-.393-2.442-.07-.47-.262-.998-.122-1.405.3-.876.11-1.542-.47-2.195-.338-.382-.305-.73.238-.933.123-.046.21-.186.37-.334-.786-.8.05-2.054-.875-2.815.588-.674.098-1.36-.026-2.018-.138-.725-.323-1.41.055-2.12.232-.436.298-.897-.03-1.35-.098-.137-.162-.332-.164-.502-.01-.93.216-1.864-.026-2.796-.025-.097-.006-.27.057-.313.532-.368.305-.88.303-1.363 0-.31.094-.623.178-.927.256-.926.718-1.84-.07-2.757-.126-.146-.138-.536-.032-.707.48-.77.62-1.56.32-2.42-.01-.033-.002-.072-.002-.11-.005-2.23-.087-4.468.013-6.695.064-1.43-.01-3.017 1.56-3.802.14-1.506.07-2.914-.275-4.45l-.648.748L141.42.86c-.23.682.132 1.37-.57 1.95l-.22-1.712c-.177.56-.3.95-.42 1.337l-.226-.015L139.03 0c-.276.653-.307 1.47-.842 2.082-.52-.333.07-1.275-.84-1.26l-.887 1.094c-.12-.375-.196-.602-.328-1.006-.468.64-.774 1.245-1.248 1.66-.935.82-1.22 1.898-1.44 3.02-.23 1.183-.3 2.408-.644 3.554-.613 2.038-.288 4.15-.658 6.2-.116.645-.01 1.326-.1 1.977-.112.82-.048 1.54.66 2.084.057.042.026.2.04.357l-.756-.06c0 .877-.01 1.682.003 2.484.017.988-.082 1.987.296 2.945.07.178-.042.422-.042.637 0 .95.038 1.9.005 2.848-.027.766.333 1.445.272 2.253-.1 1.314.126 2.646.125 3.985 0 2.187.232 4.376.39 6.562.147 1.994.32 3.987.494 5.98.068.766.237 1.53.236 2.294-.003 3.064.63 6.06.953 9.088.17 1.604.492 3.192.707 4.793.372 2.763.692 5.533 1.074 8.294.432 3.125.952 6.24 1.347 9.368.248 1.956.322 3.932.505 5.897.078.844.268 1.678.34 2.522.037.46-.064.93-.112 1.395-.018.175-.114.354-.09.518.194 1.33.203 2.658.173 4.005-.042 1.866.143 3.737.25 5.605.15 2.642.358 5.28.466 7.925.112 2.79.134 5.585.202 8.378 0 .024 0 .048.002.072-1.293-3.66-2.585-7.32-3.9-10.978-2.787-7.747-4.18-16.116-6.99-23.858-2.22-6.11-5.882-11.586-8.073-17.7-2.7-7.538-5.43-15.07-8.086-22.617-1.44-4.09-2.865-8.18-4.293-12.27l-2.536-.256v.003c-1.004.518-.773 1.993-1.467 1.12-.32-.4-.524.77-.78.33-.34-.588-.625-.582-1.495-.39-.15.033-.338 1.673-.494 1.525-.444-.415-.822-.213-1.148.13-.177.185-.263.458-.53.947-.238-.877-.405-1.488-.542-1.988l-2.443.115c-.044 1.276-.046 1.274-.832 2.707-.18.324-.214.602-.052 1.014.314.8.326 1.718 1.004 2.376.084.082.07.28.077.427.12 2.087.287 4.173.337 6.26.057 2.38-.003 4.762.007 7.143.008 2.017.066 4.033.06 6.05-.007 2.63-.076 5.26-.078 7.89-.002 2.796.05 5.59.064 8.386.02 4.335-.027 8.67.058 13.004.066 3.384.255 6.767.455 10.146.175 2.972.48 5.936.654 8.908.173 2.975.207 5.958.383 8.933.258 4.335.598 8.664.885 12.997.148 2.24.28 4.482.38 6.725.116 2.645.186 5.295.292 7.94.014.347.127.69.222 1.177 1.028-.82 1.818-.227 2.65.188.194-.226.374-.4.518-.604 1.104-1.554 1.388-3.39 1.695-5.197.446-2.627.332-5.283.192-7.93-.11-2.06-.35-4.112-.384-6.17-.058-3.827.04-7.654-.017-11.48-.052-3.568-.21-7.136-.335-10.7-.13-3.756-.14-7.505.043-11.26.18-3.71.17-7.43.284-11.144.134-4.453.31-8.902.468-13.354.063-1.802.12-3.605.188-5.407.01-.262.075-.52.115-.78.353.355.495.72.626 1.09.728 2.046 1.41 4.107 2.185 6.135 2.282 5.97 4.774 11.86 6.672 17.975.403 1.3.934 2.56 1.37 3.85.434 1.288.824 2.594 1.23 3.892.408 1.297 1.028 2.573 1.155 3.896.13 1.345 1.134 2.452.863 3.852-.01.054.05.13.092.185.81 1.046 1.116 2.213.846 3.534.537.016.6.427.69.826.114.497.22.998.372 1.484.475 1.507 1.05 2.987 1.43 4.518.25 1 .695 2.02.298 3.096l.632.42c.262 1.06.445 1.91.685 2.744.698 2.427 1.438 4.843 2.125 7.274.758 2.68 2.07 5.188 2.447 7.982.01.07.052.14.077.207.323.897.265 1.813.132 2.743.363-.155.558.002.64.345.226.928.464 1.852.658 2.784.046.228-.056.486-.1.73-.035.2-.136.403-.116.598.033.326.274.317.545.275.068-.012.23.187.25.305.06.394.186.828.083 1.187-.25.868-.005 1.476.585 1.777.04.652-.016 1.163.117 1.62.506 1.73 1.124 3.428 1.59 5.167.17.637.62 1.155.598 1.885-.02.666.21 1.34.34 2.01.182.937.363 1.874.565 2.808.083.383.25.748.328 1.132.16.784.316 1.572.42 2.365.07.533.08 1.08.058 1.617-.022.547-.272 1.134-.135 1.623.12.433.032.645-.17.968-.416.66-.434 1.387-.217 2.126.226.77.45 1.54.67 2.312.174.612.576 1.075 1.15 1.246.87.26 1.776.5 2.684.09 1.295-.583 2.562-.383 3.815.14 1.125.468 1.485.315 1.86-.845.373-1.148.72-2.307 1.08-3.46.55-1.753 1.138-3.494 1.64-5.26.27-.952.457-1.938.578-2.92.387-3.16.168-6.32-.12-9.473-.25-2.75-.64-5.488-.858-8.24zm-13.32-89.126c0 .122.01.246-.01.364-.005.028-.117.04-.18.058l-.065-.443c.084.008.17.015.254.02zm-1.685-33.956l.196.145c-.125.184-.25.365-.376.548-.06-.04-.122-.08-.184-.118l.364-.575zm-.24 3.298c.056.02.112.04.167.062l-.145.486-.247-.083.225-.465zm-.615 2.135c0-.057 0-.113-.002-.17h.523c0 .057.002.113.003.17h-.524zm.47 1.127l.257-.03c.035.273.074.548.096.824 0 .007-.182.028-.28.043-.024-.28-.05-.56-.075-.838zm.162 6.932V29.77c.674.42.674.42 0 1.164zm.685 4.292l.054.982c-.367-.504-.367-.504-.055-.982zm.413 9.17c.243 1.163.412 2.342.297 3.692-.505-.633-.673-2.683-.297-3.692zm.395 5.147l-.292-.038c.02-.19.034-.382.072-.568.002-.013.18.01.275.016-.02.196-.037.394-.055.59zm.14 3.977v-.56c.093.004.27-.003.27.008.016.182.01.366.01.55-.093 0-.187 0-.28.002zm6.12 2.495c.533 1.007.13 2.057.383 3.08.238.956.052 2.016.052 3.155-.573-1.01-.41-2.05-.515-3.038-.11-1.018-.25-2.032-.33-3.053-.08-1.024-.48-2.037-.113-3.085.715.912.054 2.055.523 2.94zm-.63-6.035c-.11.796.68 1.496.172 2.423-.628-.773-.23-1.61-.394-2.345-.18-.807-.378-1.625-.4-2.443-.022-.762.178-1.53.28-2.293l.278-.015c.023.775.054 1.552.068 2.33.014.78.098 1.575-.005 2.343zm-.935-14.598c.89-.186.417.392.437.67-.135-.207-.27-.416-.437-.67zm.307 29.458l-.19.08-.075-.23c.068-.01.148-.05.2-.026.04.02.044.113.065.176zm.07-23.843v-1.184c.64.546.64.546 0 1.184zm.57-31.348c.05.11.14.222.14.334.002.062-.163.195-.213.178-.106-.037-.186-.15-.354-.302.206-.1.316-.156.426-.21zm-.468 4.6c.066-.024.236.056.265.125.185.438.026.744-.428.99-.096-.14-.128-.17-.135-.202-.073-.36-.16-.735.297-.912zm-.565-6.517c-.3-.417-.07-.79.257-1.166v1.145l-.257.02zm-.97 14.487l-.34-2.152c.923.472 1.067 1.375.34 2.152zm-1.41 48.94c-.06-.046-.06-.168-.084-.257.085-.02.195-.083.25-.05.065.037.082.156.14.284-.138.015-.258.064-.307.024zm.907-40.316c-.106-.148-.21-.24-.237-.353-.012-.05.162-.212.19-.198.108.054.215.145.27.248.02.036-.107.152-.223.304zm.426-2.386l-1.02-.957c.467-.094.834-.214.857-.167.157.324.243.685.163 1.125zm-.39-2.083c-.173-.676-.482-1.104-1.257-1.27.554-.48.938-.85 1.37-1.152.122-.083.454-.02.574.098.124.12.19.412.136.58-.073.23-.285.41-.46.644l.626.493-.99.608zm1.103-10.534c-.074.227-.242.287-.9.347.265-.496-.117-1.118.483-1.61.327.437.574.782.417 1.264zm.482-11.443c.12.26.234.407.24.557.002.09-.167.186-.258.277-.098-.136-.238-.263-.276-.415-.02-.08.14-.206.295-.418zm.077 19.456l-.043.766c-.154-.034-.26-.032-.27-.063-.107-.297-.103-.3.312-.704zm-.255 67.4c-.01-.082.134-.184.21-.276l.254.284-.217.254c-.088-.087-.234-.166-.246-.262zm-15.597 16.97c-.02-.07.138-.19.285-.37.107.21.196.318.207.435.006.057-.16.195-.203.18-.117-.05-.262-.142-.29-.245zm.265.802c-.016-.023.108-.142.198-.255l.398.352c-.09.085-.235.26-.26.242-.132-.084-.245-.208-.335-.34zm.38 1.066c.113-.055.238-.167.337-.148.1.02.175.17.352.363-.24.06-.384.143-.465.102-.103-.053-.153-.207-.226-.316zm.29-2.316c.047-.42.07-.623.106-.93l1.03.414-1.136.516zm.61 4.24l-.177.025-.102-.543c.093-.01.187-.02.28-.027v.543zm.778-1.734c-.758-.8-.823-.968-.787-2.196.312.224.627.448.94.67-.05.48-.106 1.057-.153 1.526zm.772 2.866c-.57-.494-.57-1.157-.347-1.895l.608 1.777-.26.12zm1.71 11.098c-.09-.085-.175-.193-.212-.31-.012-.036.13-.12.265-.237.074.166.15.28.164.4.004.045-.2.163-.216.147zm-.343-6.107c.27-.17.55-.396.756.232-.334-.103-.545-.17-.756-.233zm1.72 9.36l-.22-.132c.06-.07.115-.157.19-.205.028-.016.17.083.164.098-.03.085-.086.16-.134.24zm-.832-5.43c.552.38.552.38.656 1.325l-.656-1.325zm.995 6.42l.058-.23c.375-.067.75-.134 1.23-.218.072.316.136.606.21.937-.556-.18-1.027-.335-1.498-.49zm2.317 2.918c-.048-.114-.13-.23-.13-.344 0-.068.154-.207.195-.192.1.036.174.144.32.28l-.385.257zm2.964 10.12l-.202-.494c.064-.022.128-.048.192-.073l.18.503-.17.065zm5.667 2.495l-.298.013c-.435-1.63-.942-3.242-1.29-4.89-.725-3.43-1.618-6.81-2.942-10.052-.46-1.132-.594-2.44-1.553-3.35-.038-.037-.05-.15-.022-.198.34-.575-.056-1.066-.184-1.58-.25-1-.525-1.993-.796-2.987-.68-2.484-1.33-4.98-2.056-7.45-.57-1.938-1.22-3.852-1.86-5.77-.36-1.08-.818-2.13-1.143-3.22-.8-2.68-1.475-5.397-2.33-8.06-1.517-4.73-3.057-9.454-4.724-14.133-1.53-4.295-3.223-8.533-4.875-12.784-1.944-5.006-3.94-9.993-5.59-15.11-.983-3.045-2.077-6.055-3.14-9.073-.71-2.012-1.47-4.006-2.168-6.02-.125-.362-.144-.805-.068-1.18.12-.593.984-1.907 1.677-3.06.224.56.442 1.12.647 1.685 1.386 3.828 2.663 7.678 4.047 11.506 2.338 6.468 4.69 12.933 7.1 19.385 1.723 4.607 3.556 9.19 5.334 13.783 1.04 2.684 2.132 5.358 3.085 8.06 1.88 5.333 3.617 10.695 5.533 16.02 1.988 5.532 4.115 11.036 6.18 16.553.018.683.034 1.366.053 2.05.07 2.42.05 4.847.244 7.257.318 3.923.78 7.836 1.173 11.753.028.28-.02.57-.034.854zm.342-72.366c-.036.008-.17-.176-.15-.217.05-.102.166-.17.255-.25l.237.272c-.137.084-.233.17-.342.194zm.42-3.86c-.076-.606-.063-1.226-.107-1.838-.055-.758-.13-1.515-.196-2.27l.237-.014.842 5.426c-.715-.32-.72-.85-.777-1.304zm.648 2.426c.51.713.534 1.574.764 2.365.035.12-.21.32-.426.625-.78-1.05-.468-2.02-.337-2.99zm.69 5.9c-.052-.004-.103-.01-.153-.013l-.12-.595.13-.065c.076.116.184.224.218.35.025.096-.047.216-.076.323zm.44 3.84c.44.496.484.77.182 1.054-.106-.013-.213-.024-.32-.036l.138-1.02zm.255 2.125c-.067-.15-.16-.26-.14-.337.03-.105.144-.188.222-.28.068.074.187.148.19.228.004.08-.107.164-.272.39zm.672-.98c.096.025.276.06.274.075-.024.205-.073.407-.115.61l-.274-.066.114-.62zm-.087 9.192c0-.023.047-.063.076-.067.03-.003.064.028.13.06v.595c-.06.008-.12.016-.178.022-.01-.204-.025-.408-.03-.61zm.088 3.015v-.696l.165-.018.12.717c-.094-.002-.19-.003-.284-.003zm127.2 46.444c-.97-4.36-1.87-8.738-2.693-13.13-.94-5.02-2.236-9.944-3.76-14.816-1.782-5.703-3.556-11.41-5.26-17.137-1.01-3.392-1.918-6.813-2.797-10.24-.842-3.287-1.58-6.6-2.38-9.898-.367-1.507-.78-3.002-1.154-4.508-.22-.892-.492-1.784-.58-2.69-.18-1.863-.925-3.646-.773-5.556.018-.217-.173-.445-.235-.677-.44-1.633-.966-3.25-1.288-4.905-.61-3.142-1.052-6.316-1.66-9.46-.645-3.337-1.29-6.68-2.142-9.967-.815-3.145-1.802-6.254-2.905-9.31-.373-1.032-.88-1.92-.457-2.722-.237-.837-.504-1.413-.546-2.005-.076-1.06-.413-1.864-1.437-2.33-.48-.22-.896-.575-1.33-.884-.112-.08-.183-.217-.3-.36l.265-1.086c-1.473.11-1.07 1.873-2.188 2.366l-.99-1.09c-.18.2-.336.375-.492.552-.877.99-.854.902-2.175.564-1.088-.277-2.19-.54-3.34.14-.744.44-1.712.508-2.72.78-.004.012-.13.18-.156.36-.097.7-.177 1.402-.227 2.107-.012.174.083.383.188.534.382.547.28 1.047.035 1.64-.57 1.375-.547 2.744.318 4.032 1.013 1.508 1.284 3.103.533 4.812-.1.223-.18.452-.25.685-1.02 3.393-2.116 6.766-3.03 10.188-.748 2.808-1.33 5.663-1.892 8.516-.695 3.527-1.338 7.066-1.925 10.613-.363 2.203-.556 4.435-.867 6.646-.36 2.55-.796 5.088-1.145 7.64-.593 4.33-1.05 8.682-1.736 12.997-1.004 6.33-2.16 12.634-3.245 18.95-1.193 6.953-1.797 13.974-2.398 20.993-.168 1.96-.856 3.904-.31 5.905.01.044-.012.096-.012.145.038 1.986.014 3.975.132 5.956.102 1.686.9 3.158 1.772 4.57.14.228.43.364.733.61.73-.48 1.176-1.01.956-1.764-.532-1.824.067-3.444.78-5.062 1.34-3.033 2.247-6.21 2.944-9.438.82-3.796 1.48-7.614 1.89-11.49.343-3.22 1.14-6.39 1.682-9.59.997-5.89 1.955-11.785 2.93-17.677.49-2.97 1.06-5.93 1.457-8.913.068-.526.124-1.056.19-1.583l13.662-4.017c1.65-.485 3.347-.978 5.016-1.053.816 3.29 1.64 6.582 2.507 9.86 1.024 3.878 2.218 7.708 3.136 11.617.73 3.106 1.59 6.184 2.4 9.27.512 1.962 1.08 3.91 1.544 5.882.714 3.025 1.37 6.066 2.034 9.104.57 2.61 1.165 5.214 1.668 7.836.457 2.378.648 4.815 1.232 7.158.997 4 2.16 7.962 3.365 11.905.314 1.028.63 2.147 1.59 2.89 1.138.88 2.06.663 2.624-.66.15-.35.334-.695.562-.998 1.014-1.354 2.064-2.68 3.074-4.04.64-.86.738-1.843.653-2.908-.157-1.995-.64-3.916-1.076-5.86zM237.09 35.72c.962 1.894 4.312 17.82 5.343 25.286.044.312-.03.643-.048.95-2.12.196-4.18.198-6.15.62-1.95.42-3.813 1.266-5.944 2.003 1.167-10.003 3.645-19.455 6.8-28.86zm-7.958 36.77c.104-.917.348-1.143 1.268-1.23.375-.036.755-.112 1.11-.232.874-.295 1.725-.657 2.604-.937 2.772-.885 5.553-1.748 8.332-2.61.358-.112.733-.166 1.226-.274.177.53.364.966.468 1.42.142.618.273 1.237.406 1.856-1.847.483-3.6 1.26-5.47 1.723-1.626.4-3.45.26-5.05.752-1.076.33-2.506.094-3.567.466-.544.19-1.038.466-1.517.768.063-.567.125-1.133.19-1.7zm11.636 4.822l-5.618 1.12-6.977 2.45c.13-1.102.267-2.203.39-3.306 5.332-2.106 10.88-3.672 16.53-4.663.095.417.183.837.285 1.253l.503 2.028c-1.8.155-3.532.655-5.112 1.118zM1.254 132.562c-1.003.547-1.86 1.223-.688 3.09 3.183 2.154 3.494-.872 3.672-1.687-.832-1.182-1.502-2.212-2.984-1.403zm5.295-7.437c-.317-1.098-.79-2.08-2.87-1.345-1.63 1.54-1.326 2.51-.64 3.118.863.768 2.238.75 3.11-.01.442-.384.645-.91.4-1.763zm2.846-18.388c.863.767 2.238.75 3.11-.01.442-.386.645-.91.4-1.765-.317-1.097-.79-2.08-2.87-1.344-1.628 1.54-1.326 2.51-.64 3.12zM19.7 73.185c.864.767 2.24.75 3.11-.01.443-.386.646-.91.4-1.765-.316-1.097-.79-2.08-2.868-1.344-1.63 1.54-1.327 2.508-.64 3.12zm11.693-30.748c-1.63 1.54-1.327 2.508-.64 3.118.862.767 2.237.75 3.108-.01.444-.386.647-.91.4-1.765-.315-1.096-.79-2.08-2.867-1.343zm-6.23 14.125c-1.63 1.54-1.326 2.508-.64 3.118.863.767 2.238.75 3.11-.01.442-.386.645-.91.4-1.765-.317-1.095-.79-2.08-2.87-1.343zm-13.352 43.65c.864.77 1.258.913 2.13.154.442-.386 1.626-1.07 1.38-1.926-.316-1.1-.79-2.08-2.868-1.345-1.63 1.54-1.327 2.51-.64 3.118zm10.254-34.19c.863.77 1.257.913 2.128.153.443-.386 1.627-1.07 1.38-1.926-.315-1.1-.79-2.082-2.867-1.345-1.63 1.54-1.327 2.51-.64 3.118zm14.76-26.847c.443-.387 1.627-1.07 1.38-1.927-.315-1.098-.79-2.08-2.867-1.344-1.63 1.54-1.327 2.508-.64 3.117.862.77 1.256.914 2.127.155zM15.32 85.36c.342 1.104.606 1.43 1.743 1.23.578-.102 1.486-.896 1.717-1.756.296-1.103.857-1.372-1.303-1.812-2.19.477-2.43 1.463-2.158 2.34zm-7.433 34.51c1.334-.556 2.16-.074 1.692-1.697-.316-1.098-.79-2.08-2.868-1.344-2.794 2.638.417 2.69 1.175 3.04zm1.978-5.938c.987-.574 1.825-1.273.604-3.11-3.24-2.064-2.507 1.063-2.663 1.882.863 1.158.598 2.075 2.058 1.228zm5.498-19.196c.987-.574 1.825-1.272.604-3.11-3.24-2.064-2.506 1.063-2.662 1.883.863 1.157.598 2.074 2.058 1.226zm2.5-17.507c-.2.28-.303.618-.288.963.05 1.146-.06 1.896 1.415 1.905 1.14.008 2.22-.17 2.1-2.37-1.456-2.867-2.577-1.417-3.227-.5zm9.695-26.31c-.2.28-.303.62-.288.964.05 1.146-.06 1.896 1.415 1.905 1.14.007 2.22-.17 2.1-2.37-1.456-2.868-2.577-1.418-3.227-.5zm174.857 91.84c-.052-.067-.16-.086-.243-.104-1.148-.25-2.293-.547-3.447-.727-1.446-.228-2.9-.365-4.35-.517-.248-.025-.503.058-.75.12-.19.046-.37.138-.557.212-.31.127-.62.257-1.02.42-.15-.308-.445-.478-.904-.316-.307.106-.68-.05-1.02-.024-.358.025-.745.04-1.06.21-.576.315-1.154.258-1.753.132-.19-.04-.38-.097-.594-.15l-.272.775c-.35-.822-.892-.806-1.438-.806-.656 0-1.316.02-1.97-.062-1.25-.156-2.5-.47-3.75-.552-1.652-.11-3.31-.12-4.957-.06-.932.034-1.844.334-2.773.44-.957.108-1.926.103-2.886.19-1.192.112-2.38.27-3.57.404-.536.06-.942.302-1.248.878-.514.964-1.196 1.743-2.09 2.23-.22.118-.41.31-.66.506.34.182.605.32.975.52-.936.554-1.988.4-2.768 1.24.45.198.792.38 1.147.495 1.284.417 2.185.738 3.518 1.025.24.053.463.282.68.453.79.62 1.6 1.102 2.57 1.015.422-.04.856.045 1.284.06.914.035 1.833.123 2.742.076 1.52-.08 3.112.38 4.654.516.08.007.162-.054.246-.07.914-.19 1.82-.458 2.745-.54 1.044-.093 2.11.037 3.16-.026 1.44-.09 2.92.405 4.332-.168.093-.038.22.044.333.05.37.018.737.026 1.106.04.34.013.707-.068 1.02.06.833.346 1.67.274 2.455.08 1.85-.46 3.736-.358 5.61-.443.707-.032 3.64.272 3.878-.18.322-.612.954-.154 1.443-.203.82-.082 1.353-.705 1.33-1.7-.01-.34-.093-.684-.09-1.022.004-.294 0-.678.143-.855.442-.557.465-1.192.14-1.772-.377-.673-.885-1.245-1.345-1.85zm-21.71 6.902c0-.103.003-.205.005-.308l.468.077c0 .078.002.154.003.23-.158 0-.316 0-.475.002zm7.357-6.78l-.156-.172c.037-.037.084-.113.11-.104.065.028.122.093.182.143l-.136.132zm157.384-13.258c-.188-1.816-.616-3.593-1.215-5.347-1.016-2.974-1.997-5.955-3.06-8.918-.73-2.035-1.46-4.064-1.834-6.167-.166-.928-.397-1.848-.597-2.77-.29-1.336-.605-2.67-.857-4.008-.395-2.09-.717-4.187-1.12-6.274-.487-2.505-.982-5.012-1.56-7.505-.48-2.075-1.1-4.128-1.635-6.195-.343-1.325-.66-2.656-.958-3.99-.257-1.154-.458-2.317-.702-3.475-.223-1.06-.498-2.112-.7-3.175-.43-2.268-.75-4.552-1.263-6.807-.528-2.314-1.188-4.61-1.876-6.898-.798-2.645-1.67-5.275-2.546-7.906-.555-1.666-1.027-3.3-.755-5.078.145-.965-.23-1.934-1.37-2.744-1.182-.84-2.51-1.354-3.82-1.946-.36-.164-.86-.222-1.11.1-.488.626-1.266.888-1.99 1.233-.797.38-1.07 1.05-.73 1.782.406.87.587 1.745.296 2.66-.074.232-.09.48-.125.718-.142.984-.19 1.985-.447 2.947-.268.993-.67 1.96-.6 2.998.01.116-.02.243-.07.354-.9 1.965-1.034 4.055-1.413 6.104-.17.922-.146 1.866-.274 2.796-.317 2.304-.685 4.603-1.007 6.905-.167 1.19-.29 2.38-.5 3.57-.348 1.98-.78 3.96-.772 5.978 0 .112-.1.223-.138.337-.096.286-.208.57-.27.864-.18.85-.333 1.7-.502 2.553-.293 1.483-.707 2.96-.854 4.453-.142 1.46-.178 2.92-.687 4.336-.02.056-.015.12-.024.18-.155.925-.29 1.853-.47 2.776-.217 1.104-.4 2.202-.275 3.335.066.597.198 1.242-.373 1.78-.125.116-.113.345-.132.523-.075.747-.162 1.493-.2 2.242-.107 2.158-.212 4.317-.286 6.478-.052 1.54-.065 3.08-.075 4.622-.018 2.566-.07 5.134-.01 7.7.052 1.993.35 3.985.366 5.977.018 2.114-.19 4.23-.257 6.344-.03.963.036 1.93.074 2.895.015.395.24.69.696.832 2.024-.513 2.99-1.81 3.51-3.328.556-1.622 1.088-3.272 1.326-4.94.525-3.688.887-7.395 1.264-11.098.264-2.588.44-5.183.658-7.774.042-.51.078-1.02.12-1.567l-.614.125c.004-.223-.017-.43.015-.63.363-2.397.715-4.792 1.11-7.183.233-1.404.504-2.807.826-4.198.182-.786.34-.822 1.294-.646 1.826.336 3.583.93 5.492.952.882.01 1.773.066 2.64.2 1.434.22 2.855.19 4.287.062.84-.074.938-.032 1.08.68.225 1.134.397 2.272.6 3.41.512 2.87 1.177 5.732 1.484 8.617.18 1.7.85 3.29 1.206 4.943.518 2.418 1.563 4.762 2.344 7.146.984 3.01 1.908 6.03 2.902 9.037.23.692.642 1.346.967 2.018.298.615.646 1.22.87 1.85.18.517.21 1.066.316 1.66.908.132.987.154 1.294-.095.545-.442 1.188-.857 1.54-1.395 1.023-1.552 1.68-3.2 1.492-5.02zm-29.467-45.49c-.02.008-.172-.136-.154-.166.054-.085.154-.156.254-.21.017-.01.124.094.238.183-.137.085-.23.155-.34.195zm3.527-21.37c.07-.002.146.1.254.182-.112.07-.2.168-.265.157-.08-.012-.19-.114-.188-.177 0-.06.125-.158.2-.16zm-.324 3.556c.106-.007.223.09.438.186-.2.113-.326.235-.4.216-.137-.034-.242-.15-.36-.234.106-.06.21-.163.323-.168zm-.36 3.364c.15.614-.105.78-.445.902l-.282-.196.728-.706zm-.225 3.5c-.055.06-.11.123-.185.21l-.24-.16c.085-.044.163-.103.254-.125.044-.012.113.046.17.073zm-1.16 10.102c.08.012.16.023.24.037l-.243 1.146-.25-.04.254-1.144zm12.253 10.227c-4.43-1.09-8.768-1.485-13.194-1.944.12-.497.236-.965.347-1.433.11-.475.23-.952-.353-1.3.706-.47.706-.47.214-.96.124-.156.37-.322.37-.49 0-.98.653-1.8.912-2.713.267-.94.52-1.885.707-2.838.16-.814.214-1.64.33-2.46.02-.146.12-.28.175-.422.1-.26.293-.524.27-.778-.125-1.438.64-2.76.736-4.167.023-.325.016-.65.022-1.073l-.878.25c-.023-.118-.083-.218-.048-.28.104-.19.194-.464.382-.528 1.075-.367.973-1.174.95-1.858-.018-.576-.02-1.133.233-1.657.273-.563.104-1.07-.174-1.572-.26-.47-.373-.856.38-1.086.375-.115.336-.406.325-.695-.016-.416-.043-.86.113-1.242.154-.382.344-.686.05-1.094-.086-.12.173-.403.27-.612.097-.214.29-.438.264-.644-.073-.56-.24-1.11-.388-1.74.33-.09.62-.17.952-.263.118.19.24.312.27.45.297 1.308.61 2.615.855 3.932.78 4.187 1.433 8.39 2.325 12.56.588 2.75 1.527 5.45 2.26 8.182.246.912.342 1.85.507 2.778.278 1.555.566 3.108.828 4.666.05.282 0 .576-.01 1.027zM315.66 27.68c3.067 2.726 7.955 2.664 11.05-.032 1.573-1.37 2.295-3.233 1.42-6.274-1.122-3.9-2.807-7.395-10.19-4.776-5.794 5.47-4.72 8.914-2.28 11.08zM116.93 46.333c.027.08.062.146.09.224.335-.175.68-.336 1.03-.48.02-.008.043-.012.064-.02-.102-.242-.207-.483-.303-.727-.307-.774-.6-1.554-.922-2.388v-.07c-.348.197-.67.46-1.003.682l.636 1.92c.152.314.357.69.41.86zm18.976 43.08l.234.478c-.048-.14-.116-.32-.187-.506l-.047.028zm-1.535-3.982l-.44-1.08c-.123.08-.252.153-.384.216-.276.13-.568.22-.86.306l.533 1.26c.135.135.25.52.375.85.05.128.114.273.17.39.012.026.023.057.036.083.318-.29.577-.74.994-.698-.24-.6-.488-1.23-.657-1.69l.502 1.072c-.145-.382-.204-.55-.27-.71zm-22.536-51.78l.023.048c.205.466.406.98.61 1.475l.014-.166c.2.398.244.657.326.94.353-.13.71-.245 1.073-.347l-.998-2.444.018-.03.84 1.96c.005-.018.01-.036.012-.054-.13-.33-.26-.665-.396-.993l-.468-1.14c-.136.158-.27.317-.423.457-.127.194-.374.272-.606.295-.01 0-.017-.003-.026-.002zm23.08 53.212c0 .003.004.005.006.007l-.032-.074.025.068zm-24.537-56.867c.13.4.055.468.287.946.1.205.178.264.277.403l.186.495.07.102c.336-.222.714-.373 1.107-.465l-.535-1.3c-.86-2.104-1.89-1.148-1.652-.574.1.15.18.27.26.394zm15.063 37.23c.11.024.316.424.518 1 .196.56-.11-.018-.06.263.14.346.3.768.454 1.104.077.166.14.343.213.51l1.32-.368c-.035-.13-.104-.287-.273-.648.002.052.005.107.004.152 0 .007-.02-.033-.05-.08l-.716-1.795c.005-.01.01-.017.015-.024l.48 1.1c-.105-.318-.216-.618-.335-.91-.194-.48-.396-1.048-.583-1.383l-.075.046c-.335.213-.712.355-1.102.432.06.188.117.378.19.603zm5.165 12.327c.025.355.32 1.033.5 1.556.155-.18.35-.328.567-.428.21-.098.44-.147.672-.167-.245-.592-.49-1.187-.736-1.773-.125-.298-.257-.588-.392-.885-.1.095-.202.187-.32.257-.267.158-.565.256-.862.35.075.23.135.45.17.653.15.164.276.3.4.437zm-2.452-5.933c-.06.102-.06.102.015.44.297.69.12-.022.31.36.038.1.084.203.09.227.068.36.23.784.418 1.237.32-.276.665-.524 1.037-.73-.133-.31-.262-.616-.39-.92-.23-.55-.456-1.105-.68-1.658-.28.046-.562.154-.838.237-.08.024-.165.037-.247.056.08.193.167.427.285.75zm7.01 16.247c-.088.054-.174.114-.262.17.056.134.11.27.167.402.082.19.156.437.224.645.12.37.212.713.352 1.094.332.907.682 1.83 1.032 2.748 0 0 1.032-.77.788-1.372-.26-.64-.3-1.21-.553-1.512-.012-.012-.058-.123-.084-.188-.308-.784-.642-1.583-.94-2.43-.24.148-.482.295-.723.44zm.86.426l.042.17c-.024-.048-.06-.108-.07-.144-.027-.076-.04-.14-.06-.205l.088.178zm-22.49-52.41c.058.137.108.263.17.408l-.015-.33c.095.238.2.478.217.55.042.185.043.293.056.392.13.31.247.564.33.79.135.377.256.74.385 1.112.31-.275.677-.486 1.073-.605l-.982-2.4-.13-.324-.278.13c-.253.12-.51.24-.788.277-.012 0-.025-.002-.036 0zm5.202 12.964c.087.208.198.48.263.67.007-.006.013-.012.02-.016.346-.23.77-.405 1.17-.35-.31-.768-.62-1.537-.933-2.302l-.98.6c.022.064.04.117.038.132-.007.25.203.74.422 1.267zm4.185 10.415c.184.316.08-.28.473.717 0 .105-.002.21-.003.287l.514 1.48c.02.02.04.056.06.084l.155-.06-.005-.028.01.024.925-.37c.077-.03.155-.058.233-.085-.15-.336-.326-.752-.36-.78-.16-.132-.297-.588-.492-1.054l.215.323-.453-1.14c-.423.21-.857.397-1.306.512.01.03.024.06.034.09zm-2.233-5.813l-.51-1.28c-.035.02-.074.03-.11.05.047.137.097.278.113.385.177.46.395.693.462 1.122.134.242.246.443.34.616.015-.067.026-.123.034-.164.444.908.51 1.395.727 2.087l.164.016c.047.16.083.288.122.427l.122-.056c.31-.142.63-.264.954-.356-.118-.287-.234-.575-.352-.86-.488-1.187-.992-2.368-1.462-3.557-.244.078-.507.075-.754.14-.124.03-.237.094-.35.15.193.41.373.833.5 1.28zm94.327-9.013c.688-1.686 1.36-3.384 1.858-5.14.156-.547.293-1.102.4-1.647.198-1.01.368-2.017.55-3.024.122-.663.247-1.328.363-1.99.117-.668.045-.787-.36-.645-.455.16-.852.142-1.104-.304-.176-.313-.478-.273-.772-.22-.195.036-.397.248-.564.563l-.634 1.19c-.204.38-.34.776-.35 1.177-.005.195-.02.32-.14.544-.13.253-.174.597-.272.897l-.04.114c-.066.81-.114 1.615-.21 2.436-.305 2.59-1.062 5.192-2.052 7.768l.07.03c-.052.156-.094.318-.156.47-.864 2.09-1.75 4.172-2.595 6.273-.52 1.292-.98 2.614-1.467 3.924-.446 1.203-.893 2.408-1.335 3.612-.56 1.514-1.103 3.03-1.672 4.537-.538 1.426-1.105 2.84-1.657 4.263-.39 1.006-.802 2.005-1.15 3.023-.25.735-.51 1.456-.82 2.16-.037.088-.045.195-.073.29-.076.26-.14.524-.238.77-.182.453-.396.89-.582 1.34-.43 1.05-.83 2.118-1.277 3.156-.715 1.663-1.46 3.305-2.185 4.96-.64 1.465-1.263 2.94-1.9 4.404-.368.85-.766 1.68-1.122 2.536-.675 1.615-1.43 3.18-2.02 4.848-.146.416-.342.815-.51 1.226-.432 1.065-.864 2.133-1.29 3.202-.466 1.174-.953 2.342-1.374 3.53-.258.73-.578 1.43-.803 2.155-.14.446-.372.78-.513 1.198-.173.52-.366 1.032-.55 1.55-.04.116-.057.26-.11.35-.29.484-.456 1.037-.65 1.573-.16.435-.312.874-.48 1.35.08.017.147.03.225.043-.034.085-.056.174-.08.19-.304.227-.46.61-.587 1.068-.102.362-.26.723-.353 1.084-.24.948-.61 1.874-.86 2.823-.027-.15-.05-.304-.077-.457-.1-.546-.227-1.103-.374-1.65-.472-1.766-1.116-3.474-1.778-5.168-.578-1.48-1.192-2.94-1.76-4.423-.76-1.978-1.512-3.96-2.225-5.956-.785-2.197-1.52-4.414-2.282-6.62-.228-.66-.48-1.313-.716-1.973-.39-1.09-.77-2.183-1.162-3.27-.172-.48-.373-.944-.547-1.422-.353-.97-.696-1.946-1.048-2.918-.034-.093-.09-.197-.146-.258-.153-.17-.187-.382-.253-.61-.14-.48-.256-1.065-.483-1.407-.29-.437-.39-.812-.47-1.285-.04-.235-.132-.488-.217-.727-.214-.592-.43-1.187-.658-1.77-.595-1.517-1.187-3.033-1.804-4.535-.223-.547-.47-1.07-.677-1.638-.4-1.088-.862-2.148-1.3-3.22-.076-.188-.126-.39-.298-.41-.15-.018-.218-.257-.16-.398.07-.18.023-.37-.084-.54-.23-.364-.374-.85-.66-1.137-.157-.157-.242-.374-.156-.562.065-.146.04-.326-.055-.487-.234-.39-.285-.962-.62-1.25-.032-.027-.08-.165-.077-.22.016-.324-.17-.467-.287-.613-.03-.202-.024-.378-.08-.515-.252-.61-.42-1.276-.794-1.814-.14-.202-.254-.525-.328-.8-.108-.402-.368-.786-.34-1.206.003-.028-.022-.08-.037-.12-.14-.343-.28-.686-.417-1.03-.13-.328-.244-.648-.413-.966-.193-.362-.375-.84-.437-1.234-.07-.455-.187-.73-.455-.912l-.038-.494c-.217-.502-.392-.898-.56-1.298-.107-.25-.26-.52-.295-.757-.075-.51-.252-.855-.537-1.157-.166-.176-.22-.37-.104-.532.027-.036.026-.12.044-.217-.37-.362-.365-1.128-.767-1.457.042-.424-.223-.753-.38-1.1-.172-.384-.35-.74-.374-1.164-.014-.262-.08-.52-.257-.736-.053-.065-.107-.166-.14-.258-.173-.51-.28-1.04-.52-1.527-.026-.05-.052-.144-.043-.174.083-.253-.075-.51-.165-.775-.057-.168-.088-.348-.12-.52-.098-.532-.136-1.076-.528-1.502-.063-.068-.138-.28-.14-.385-.006-.467-.11-.91-.354-1.353-.01-.017-.014-.04-.02-.06-.414-1.222-.85-2.436-1.23-3.663-.246-.788-.56-1.648-.26-2.23-.237-.835-.516-1.6-.897-2.406l-.047.473-.346-.562c.06.397.29.736.198 1.12l-.378-.914.128.772-.067.012-.717-1.232c.044.385.185.833.147 1.22-.21-.133-.216-.704-.47-.608l-.05.683-.28-.52c-.014.395.01.756-.047 1.028-.114.538.004 1.154.15 1.79.15.668.358 1.345.47 2.004.202 1.173.684 2.297.957 3.454.086.36.24.725.335 1.09.12.458.27.845.572 1.075.023.018.043.106.076.19l-.225.04c.162.48.307.92.46 1.358.186.54.34 1.095.625 1.583.053.09.066.234.106.353.175.52.36 1.035.526 1.556.133.422.36.76.492 1.207.214.727.523 1.434.77 2.165.403 1.196.872 2.37 1.32 3.552.408 1.076.825 2.15 1.24 3.223.16.413.35.814.49 1.232.564 1.677 1.295 3.254 1.945 4.88.343.86.726 1.696 1.082 2.552.614 1.475 1.215 2.96 1.832 4.432.698 1.668 1.42 3.32 2.107 4.994.432 1.045.817 2.12 1.23 3.176.178.454.386.894.562 1.35.095.246.153.513.225.77.027.1.033.205.07.293.3.708.547 1.433.787 2.172.332 1.024.73 2.03 1.103 3.04.53 1.432 1.075 2.854 1.592 4.29.545 1.516 1.066 3.04 1.6 4.56.425 1.212.852 2.423 1.28 3.634.465 1.316.907 2.645 1.406 3.944.813 2.114 1.665 4.21 2.498 6.314.06.15.1.313.148.47l-.07.03c.95 2.59 1.667 5.204 1.93 7.798.084.822.12 1.627.173 2.438l.038.114c.094.302.132.646.26.9.115.226.13.35.13.546.005.4.134.8.33 1.183.207.4.413.8.617 1.2.162.318.36.532.555.57.295.06.596.105.778-.206.067-.114.145-.198.23-.26l.02.357c.2.08.253-.26.37-.47.037-.002.07-.006.108-.002-.002.355-.118.745-.162 1.087l.596-.99c.06.02.116.035.16.038l-.093.514.246-.57c.008-.01.012-.026.018-.04l.13-.3c.085.387-.148.724-.216 1.118l.355-.556c.012.146.02.273.038.472.395-.8.685-1.56.936-2.394-.29-.584.035-1.438.293-2.224.4-1.22.853-2.43 1.285-3.643.007-.02.012-.043.02-.06.25-.438.363-.88.376-1.348.004-.104.083-.315.147-.382.398-.42.445-.963.552-1.492.034-.174.067-.354.127-.522.094-.262.256-.517.177-.77-.01-.03.02-.125.044-.175.248-.482.364-1.013.547-1.52.032-.09.09-.19.143-.255.18-.214.25-.472.27-.732.03-.424.214-.776.392-1.157.16-.344.432-.668.396-1.094.407-.322.414-1.09.79-1.444-.017-.098-.015-.183-.04-.22-.113-.164-.057-.355.112-.53.29-.297.472-.64.555-1.147.04-.234.196-.503.306-.752.175-.396.355-.79.58-1.29l.046-.492c.27-.18.39-.45.47-.903.068-.396.256-.868.455-1.23.175-.313.295-.632.43-.958.14-.344.288-.684.433-1.026.016-.038.042-.09.04-.118-.023-.42.242-.8.356-1.2.077-.273.196-.596.34-.795.38-.53.56-1.194.82-1.8.06-.138.057-.313.09-.516.12-.144.308-.284.296-.608 0-.055.048-.19.08-.22.34-.28.4-.852.64-1.238.098-.16.125-.34.062-.486-.083-.19.006-.405.165-.56.29-.284.443-.766.678-1.128.11-.166.162-.357.093-.537-.056-.144.018-.382.166-.396.173-.018.226-.218.306-.405.453-1.063.93-2.117 1.348-3.2.218-.562.47-1.082.704-1.624.64-1.492 1.255-3 1.873-4.507.24-.58.464-1.17.686-1.76.09-.237.186-.488.23-.724.087-.473.193-.847.49-1.278.23-.34.355-.922.503-1.4.068-.227.105-.44.262-.605.056-.06.115-.162.15-.255.365-.967.725-1.938 1.094-2.903.18-.476.39-.938.57-1.413.407-1.082.804-2.17 1.21-3.252.245-.655.508-1.304.747-1.96.796-2.194 1.564-4.4 2.383-6.585.744-1.985 1.526-3.957 2.315-5.922.588-1.472 1.225-2.922 1.824-4.39zm-62.906-11.16c-.053-.067-.116-.123-.155-.203-.02-.042 0-.125.006-.256.08.13.14.2.17.282.017.048-.012.117-.022.176zm.424 1.38c-.162-.2-.166-.427-.142-.663l.21.625c-.02.012-.045.025-.068.036zm.2 6.265l-.075-.047-.002-.35.082.062-.006.335zm.445-5.317c.036.056.08.108.102.17.01.034-.01.122-.03.117-.036-.01-.08-.064-.155-.132.04-.073.06-.114.082-.155zm.04 7.023l-.023-.275.06.018c.015.095.03.188.047.282l-.084-.024zm.197.95c-.01-.03-.02-.062-.032-.093.05-.018.1-.033.148-.05l.033.093-.15.05zm.167-5.11c.174.21.308.374.352.653.02.13-.016.18-.19.276-.018-.295-.242-.6-.16-.927zm.35 6.133l-.176-.45.067-.04c.062.145.123.292.18.44.002.003-.045.033-.07.05zm.122-5.81c-.053-.067-.067-.08-.075-.097-.087-.19-.182-.388-.084-.527.014-.02.076.007.098.043.134.22.145.403.062.58zm1.513 4.658l.13.423c-.05-.002-.08.01-.09-.007-.084-.153-.083-.154-.04-.415zm-1.13-1.923c.347.17.555.65.49 1.144l-.49-1.145zm.642 6.4c-.095-.285-.15-.443-.214-.637.268.166.268.166.214.636zm-.108-3.513c.068-.314.108-.555.175-.76.02-.06.125-.055.18-.003.058.053.13.206.146.304.022.13-.004.252-.01.395l.267.21-.168.427c-.175-.354-.34-.56-.59-.575zm.618 1.25c.115-.096.196-.197.212-.173.104.16.195.35.253.598-.118-.11-.238-.218-.465-.426zm.474 4.544l.197.532c-.198-.24-.198-.24-.198-.532zm.31-2.773c-.057-.07-.103-.11-.13-.17-.014-.026.005-.132.016-.127.04.02.087.06.123.11.013.018-.003.093-.007.187zm1.525 2.658c-.077-.1-.154-.2-.248-.325.22-.186.19.175.247.326zm-.028 5.09c.282.613.547 1.242.763 1.99-.26-.297-.686-1.4-.764-1.99zm.703-3.027c.282.236.282.236.218.646-.08-.243-.148-.443-.217-.647zm.265 5.81c-.03-.104-.06-.21-.084-.316-.002-.008.052-.013.08-.018l.094.327-.09.007zm.574 1.218l-.1-.234.076-.014c.022.066.048.134.064.2.004.016-.027.032-.04.05zm.29.938l-.104-.305c.027-.01.076-.028.078-.023.038.098.07.2.105.3l-.08.028zm.855-2.395c-.2-.424-.407-.853-.564-1.298-.147-.414-.23-.853-.343-1.28.025-.013.05-.023.076-.035.15.423.3.844.448 1.267.148.427.318.854.43 1.282.117.445.47.753.496 1.308-.322-.364-.362-.86-.543-1.245zm2.568 8.183l-.063-.12c.017-.012.032-.04.05-.033.016.007.035.06.052.09-.014.02-.027.042-.04.063zm-.665-3.252c-.22-.546-.445-1.088-.656-1.638-.21-.553-.51-1.067-.6-1.676.37.43.394 1.117.69 1.558.337.5.415 1.11.676 1.647.243.5.386 1.098.596 1.72-.35-.495-.494-1.08-.706-1.61zm1.082 6.91c-.025-.02-.048-.086-.07-.134.02-.02.04-.062.06-.05.026.014.052.077.092.142-.036.022-.06.06-.082.043zm.743-2.3c-.133-.323-.243-.662-.37-.993-.154-.408-.315-.815-.473-1.224l.065-.03c.4.935.8 1.868 1.24 2.888-.264-.107-.363-.396-.462-.64zm.59 2.152c-.007.007-.08-.08-.08-.104-.005-.06.015-.108.025-.16.03.03.062.065.117.125-.022.06-.034.116-.06.14zm.687.716c-.414-.5-.505-1.06-.647-1.603.276.34.442.81.653 1.22.032.062-.002.195-.006.382zm.59 1.565c-.05-.105-.096-.21-.144-.314l.025-.048c.042.057.093.104.126.17.023.05.025.123.037.186l-.046.007zm1.123 2.608c-.033.005-.065.01-.098.012-.04-.15-.078-.302-.148-.57.216.23.28.376.245.558zm.22.58c-.048-.075-.094-.126-.103-.17-.01-.062.006-.12.01-.177.034.035.082.064.097.107.015.044 0 .1-.006.24zm.09-.25l-.082-.35c.032.004.09.007.09.014.032.114.056.23.08.345-.028-.003-.06-.008-.088-.01zm.442 5.81c-.04-.04-.097-.068-.118-.12-.02-.043.003-.112.008-.17.04.04.08.083.124.13l-.015.16zm1.265-.796c-.04-.11-.082-.222-.12-.332-.005-.013 0-.04.01-.043.007-.005.022.01.046.02l.11.325-.046.03zm.46 1.31l-.13-.382.045-.025.166.38c-.026.01-.054.017-.08.026zm14.854 40.73c-.03.083-.09.15-.174.28-.004-.13-.023-.215-.003-.257.04-.08.103-.134.157-.2.008.06.038.13.02.178zm.274-.89c-.02-.234-.013-.462.152-.657l.067.036c-.072.206-.145.414-.22.62zm.367-6.526l.008-.35.074-.046v.335c-.03.02-.056.04-.083.06zm1.336-4.054c.024.02.072.05.07.053-.06.147-.123.293-.187.438l-.065-.043.183-.447zm-.89 8.982l-.08-.157c.076-.065.122-.12.158-.13.02-.003.04.086.027.12-.02.06-.07.112-.104.167zm.18-6.763c-.02.005-.04.01-.06.017.01-.092.02-.184.027-.276l.085-.02c-.016.093-.035.186-.052.28zm.178-1.206l.15.052c-.013.03-.024.062-.035.093-.05-.02-.098-.036-.147-.053.012-.03.023-.062.033-.093zm.263 4.187c.175.1.21.15.188.28-.047.276-.185.44-.36.645-.075-.327.152-.628.173-.924zm.233 1.192c-.02.035-.085.062-.1.04-.095-.142.003-.336.093-.525.008-.017.02-.03.076-.096.082.18.066.364-.07.582zm.494-3.31l.51-1.136c.055.495-.16.972-.51 1.137zm.518-5.755l.225-.633c.047.47.047.47-.225.633zm.644 3.85c-.04-.262-.04-.264.048-.414.01-.017.038-.004.087-.007-.047.146-.09.284-.135.42zm-.092-.902c.004.143.028.264.005.395-.018.1-.09.25-.15.303-.056.05-.162.053-.18-.004-.064-.208-.1-.45-.165-.765.25-.013.42-.216.6-.565.06.158.102.27.16.43l-.27.205zm.357-1.135c-.016.023-.096-.078-.21-.176.23-.204.353-.312.473-.42-.063.25-.155.436-.263.596zm.54-5.24l-.205.528c.004-.29.004-.29.204-.53zm.068 3.492c-.036.052-.084.09-.124.107-.01.005-.028-.1-.015-.128.028-.058.076-.098.135-.168.004.096.016.17.005.188zm1.308-2.5c.096-.12.174-.22.252-.32-.058.15-.037.51-.252.32zm.302-5.41c.09-.587.53-1.685.795-1.98-.228.747-.503 1.372-.795 1.98zm.658 3.038l.23-.645c.055.412.055.412-.23.645zm.346-5.47c-.028-.007-.082-.013-.08-.02.024-.104.058-.21.09-.315l.09.008c-.035.108-.068.217-.1.327zm.903-2.476l.08.03c-.036.098-.07.2-.11.297-.003.006-.05-.015-.077-.023l.107-.303zm-.332 1.182c-.023-.006-.05-.01-.074-.016l.104-.233c.014.016.043.032.04.05-.018.065-.044.13-.07.2zm1.198 1.29c-.118.43-.295.853-.45 1.276-.153.42-.312.84-.468 1.26l-.075-.035c.118-.427.21-.864.362-1.275.164-.443.378-.87.584-1.29.19-.383.238-.877.563-1.235-.034.554-.39.855-.515 1.3zm3.123-11.86c.022-.017.047.022.083.045-.04.063-.07.127-.094.142-.023.013-.042-.032-.063-.053.025-.047.048-.114.074-.133zm-1.08 7.004c-.27.532-.357 1.143-.702 1.637-.302.436-.336 1.122-.713 1.546.098-.605.406-1.115.626-1.665.22-.547.455-1.085.682-1.628.22-.526.374-1.108.73-1.6-.22.62-.37 1.214-.622 1.71zm.592-3.2c-.02.01-.034-.02-.05-.033.02-.04.042-.08.063-.117.014.02.025.042.038.062-.017.032-.035.083-.05.09zm.382.744l-.063-.03c.165-.405.332-.81.493-1.217.13-.328.246-.666.385-.99.104-.24.207-.527.47-.63-.454 1.012-.87 1.94-1.284 2.867zm1.355-4.274c0-.023.075-.11.083-.103.025.024.037.08.06.14-.057.06-.09.09-.12.124-.01-.052-.03-.1-.024-.16zm.78-.426c-.22.407-.392.873-.673 1.21.15-.54.25-1.1.672-1.593 0 .188.03.322 0 .384zm.617-1.747c-.033.065-.085.113-.13.168-.007-.016-.015-.03-.022-.048.05-.104.1-.208.147-.312l.046.008c-.013.062-.016.135-.04.184zm.904-2.227l.16-.568.096.012c.03.184-.035.33-.255.556zm.38-.962c.008-.045.055-.095.103-.17.003.14.018.196.002.24-.018.042-.064.07-.1.105-.002-.057-.018-.114-.006-.175zm.196.417c-.002.008-.06.01-.092.014.028-.117.06-.232.088-.35l.09-.008c-.03.115-.053.23-.086.343zm.414-5.85c-.003-.057-.025-.127-.006-.17.02-.05.078-.08.12-.118l.012.16-.126.13zm1.297.882c-.024.01-.04.023-.048.02-.008-.006-.015-.032-.01-.045.04-.11.084-.22.126-.33l.046.03c-.04.11-.08.222-.115.325zm.458-1.252c-.014-.01-.03-.017-.043-.025.045-.126.09-.252.134-.38.027.01.054.02.08.027-.056.126-.115.252-.17.378zM157.835 37.4c.75 2.314 1.364 4.67 2.068 6.998.417 1.38.86 2.754 1.363 4.11.553 1.488 1.19 2.953 1.787 4.43.783 1.94 1.522 3.89 2.353 5.814.973 2.253 2.034 4.48 3.04 6.722 1.115 2.483 2.29 4.947 3.287 7.466.662 1.676 1.034 3.437 1.577 5.15.893 2.81 1.834 5.61 2.725 8.42.65 2.05 4.22 13.366 5.967 13.666.312.002.63.058.966.18.298.105.73.1 1.075.072.117-.01.42-.457.82-1.142.1-.012.192-.02.26-.015.07.004.087-.23.08-.58 1.232-2.23 3.023-5.906 3.43-6.808.395-.877.724-1.77 1.192-2.63.44-.806.444-1.693.83-2.49.787-1.635.827-3.384 1.415-5.047.43-1.218.642-2.477 1.024-3.704.69-2.21 1.41-4.417 2.172-6.613.375-1.08.59-2.185 1.132-3.242.707-1.38 1.128-2.837 1.697-4.256.807-2.013 1.638-4.02 2.458-6.028.094-.228.268-.452.267-.687-.005-.72 2.58-3.45 2.28-4.075-.022-.045.127-.106.158-.17.135-.28.26-.565.38-.85.104-.246.152-.508.307-.735.304-.45.72-.864.604-1.41-.025-.115.004-.262.102-.346.536-.465.537-1.063.828-1.583.66-1.185-.257.316.306-.888.178-.382.236-.145.37-.537.216-.647.446-1.295.62-1.95.314-1.17.397-.284.66-1.46.105-.467.102-.948.164-1.422.016-.114.094-.225.15-.336.19-.38.44-.747.564-1.137.237-.74.374-1.496.606-2.236.62-1.98 1.57-2.905 2.786-4.732.415-.623.475-1.27.538-1.942-.422-.12-.766-.262-1.125-.31-.3-.038-.68-.023-.918.068-.677.26-1.282.59-1.95.86-.37.15-.67.334-.568.62.216.617-.117 1.074-.66 1.507-.198.16-.303.372-.438.563-.48.68-.705.434-.792 1.207-.12 1.068-1.247 1.9-1.34 3.01-.063.75-.59 1.456-.872 2.19-.653 1.696-.942 1.375-1.743 3.035-1.065 2.204-.973.98-2.214 3.138-.524.912-1.25 1.767-1.824 2.665-.84 1.322-8.25 20.61-8.488 21.644-.287 1.244-.943 2.376-1.635 3.512-.264.434-.423.9-.63 1.35l-.99 2.15-.277-.04c-.054-.336-.986 4.247-1.952 9.745-1.065-4.73-2.413-10.227-2.462-10.22-.247-.517-.498-1.03-.738-1.55-1.327-2.862-2.605-5.74-3.997-8.58-.694-1.416-8.128-19.572-8.914-20.856-.648-1.056-1.195-2.15-1.853-3.202-1.096-1.752-2.21-3.498-3.384-5.22-.856-1.25-1.757-2.49-2.765-3.67-.497-.583-1.254-1.046-1.947-1.524-.436-.3-.976-.528-1.46-.785-.627.772-.69 1.07-.092 1.737.807.9 1.274 1.927 1.616 2.98z"/></svg>