<?xml version="1.0" encoding="utf-8"?>
<!-- Generator: Adobe Illustrator 15.0.0, SVG Export Plug-In . SVG Version: 6.00 Build 0)  -->
<!DOCTYPE svg PUBLIC "-//W3C//DTD SVG 1.1//EN" "http://www.w3.org/Graphics/SVG/1.1/DTD/svg11.dtd">
<svg version="1.1" id="Layer_1" xmlns="http://www.w3.org/2000/svg" xmlns:xlink="http://www.w3.org/1999/xlink" x="0px" y="0px"
	 width="138.19px" height="68.387px" viewBox="106.642 54.291 138.19 68.387" enable-background="new 106.642 54.291 138.19 68.387"
	 xml:space="preserve">
<g>
	<path fill="#6FC2C5" d="M231.236,112.98c-0.096-0.028-0.198-0.04-0.298-0.048c-0.993-0.084-1.984-0.17-2.977-0.242
		c-0.229-0.018-0.463,0.006-0.692,0.014c-1.302,0.035-2.598-0.065-3.884-0.245c-0.379-0.053-0.744-0.218-1.106-0.358
		c-0.208-0.08-0.349-0.239-0.358-0.494c-0.012-0.27,0.1-0.596-0.27-0.743c-0.016-0.006-0.021-0.053-0.021-0.08
		c0.013-0.36-0.061-0.731,0.089-1.119c0.072,0.122,0.119,0.206,0.176,0.304c0.092-0.277,0.074-0.838-0.051-1.31l-0.117,0.625
		c-0.11-0.255-0.135-0.968-0.055-1.362c0.066,0.152,0.117,0.27,0.203,0.463c0.022-0.159,0.043-0.23,0.04-0.298
		c-0.022-0.388-0.044-0.774-0.081-1.161c-0.051-0.56-0.102-1.119-0.182-1.676c-0.032-0.225-0.139-0.441-0.222-0.689
		c0.129-0.172,0.171-0.453,0.046-0.528l-0.17,0.155c-0.055-0.314-0.111-0.588-0.146-0.865c-0.033-0.27-0.059-0.546-0.061-0.818
		c-0.001-0.166,0.053-0.332,0.092-0.553l-0.143-0.391c0.314-0.129,0.314-0.129,0.194-0.405c-0.051,0.019-0.102,0.04-0.154,0.057
		c-0.009,0.003-0.022-0.015-0.051-0.036v-0.758l0.067-0.008l0.117,0.471c0.058-0.131,0.08-0.257,0.074-0.381
		c-0.01-0.268,0.115-0.593-0.299-0.699c-0.049-0.014-0.09-0.146-0.094-0.227c-0.012-0.271-0.005-0.541-0.005-0.816h0.283
		c-0.054-0.149-0.075-0.363-0.146-0.381c-0.298-0.072-0.172-0.258-0.198-0.455c0.099,0.063,0.152,0.098,0.234,0.148v-0.648
		c-0.268-0.012-0.352-0.168-0.36-0.396c-0.012-0.273-0.036-0.547-0.059-0.818c-0.044-0.513-0.139-1.024-0.126-1.535
		c0.025-0.979,0.006-1.951-0.119-2.924c-0.029-0.222-0.085-0.444-0.083-0.666c0.004-0.326,0.05-0.653,0.079-1.004l0.305-0.102
		c-0.084-0.127-0.125-0.27-0.215-0.308c-0.152-0.067-0.178-0.173-0.188-0.306c-0.035-0.488-0.071-0.977-0.1-1.466
		c-0.015-0.245-0.008-0.489-0.021-0.735c-0.02-0.409-0.049-0.818-0.074-1.228l0.083-0.008l0.165,0.835l0.09-0.018
		c0-0.14,0.008-0.28-0.004-0.419c-0.039-0.546-0.09-1.092-0.131-1.639c-0.062-0.89-0.109-1.782-0.183-2.672
		c-0.092-1.134-0.194-2.266-0.308-3.398c-0.07-0.703-0.172-1.402-0.252-2.103c-0.086-0.756-0.168-1.513-0.247-2.27
		c-0.075-0.732-0.15-1.464-0.212-2.197c-0.102-1.193-0.236-2.386-0.274-3.582c-0.06-1.777-0.351-3.501-0.976-5.164
		c-0.13-0.346-0.336-0.667-0.539-0.979c-0.135-0.209-0.314-0.204-0.439,0.008c-0.101,0.17-0.166,0.369-0.205,0.564
		c-0.299,1.472-0.533,2.953-0.614,4.456c-0.112,2.076-0.139,4.154-0.067,6.231c0.017,0.462-0.047,0.954,0.193,1.396
		c0.035,0.062-0.006,0.166-0.012,0.251c-0.009,0.171-0.033,0.342-0.026,0.513c0.018,0.401,0.052,0.804,0.077,1.206
		c0.029,0.461,0.051,0.921,0.092,1.381c0.008,0.101,0.062,0.213,0.131,0.289c0.149,0.161,0.152,0.296-0.014,0.441
		c-0.049,0.043-0.089,0.1-0.146,0.168l0.294,0.34c-0.336,0.175-0.265,0.477-0.257,0.763c0.021,0.721,0.045,1.442,0.067,2.164
		c0.005,0.159,0.022,0.294,0.145,0.432c0.148,0.167,0.173,0.39,0.019,0.595c-0.167,0.224-0.17,0.478-0.146,0.721l0.284,0.181
		c-0.081,0.166-0.36,0.179-0.246,0.386c0.05,0.09,0.2,0.122,0.317,0.188l-0.032,0.207c0.051,0.031,0.085,0.058,0.124,0.073
		c0.161,0.056,0.186,0.172,0.125,0.309c-0.063,0.146-0.17,0.179-0.316,0.101c-0.057-0.031-0.13-0.032-0.283-0.065
		c0.156,0.17,0.294,0.254,0.324,0.367c0.053,0.199,0.041,0.417,0.057,0.625l0.225-0.059c0.179,0.282-0.377,0.366-0.12,0.639
		c-0.212,0.208-0.174,0.452-0.116,0.735l0.318-0.123c0,0.1,0.029,0.203-0.006,0.231c-0.086,0.073-0.201,0.113-0.273,0.15
		c0.018,0.132,0.059,0.241,0.035,0.335c-0.047,0.192-0.14,0.373-0.192,0.566c-0.03,0.116-0.073,0.279-0.021,0.361
		c0.133,0.201,0.317,0.367,0.456,0.521l-0.438,0.983c0.071,0.135,0.222,0.301,0.187,0.371c-0.203,0.395,0.118,0.746,0.008,1.125
		h0.336c-0.041,0.109-0.054,0.242-0.103,0.258c-0.294,0.09-0.253,0.299-0.228,0.521c0.012,0.111,0.023,0.269-0.039,0.336
		c-0.232,0.254-0.159,0.49-0.021,0.745c0.104,0.194,0.121,0.384-0.084,0.497c-0.018,0.193,0.324,0.311,0.041,0.477l0.262,0.273
		l0.27-0.056c0.223,0.396-0.127,0.582-0.286,0.866l0.431,0.029c-0.164,0.234-0.325,0.395-0.396,0.588
		c-0.072,0.2-0.057,0.434-0.079,0.645c0.157,0.143,0.526-0.09,0.514,0.33l-0.323,0.104l-0.209,0.615
		c0.2,0.064,0.227,0.217,0.146,0.453c-0.046,0.133,0.033,0.342,0.279,0.313c0.015-0.235,0.028-0.452,0.043-0.67
		c0.037-0.024,0.076-0.046,0.114-0.069c0.019,0.055,0.046,0.108,0.054,0.164c0.031,0.228,0.1,0.462,0.068,0.68
		c-0.028,0.195-0.172,0.374-0.295,0.617c0.28,0.024,0.402,0.201,0.327,0.439c-0.071,0.23-0.28-0.023-0.452,0.087
		c0.011,0.146-0.016,0.322,0.041,0.468c0.127,0.327,0.195,0.652,0.117,0.99c0.472,0.238,0.517,0.318,0.418,0.737
		c-0.27,0.026-0.27,0.026-0.438,0.163c0.057,0.295,0.351,0.008,0.453,0.175c0,0.041,0.011,0.087-0.002,0.096
		c-0.287,0.2-0.228,0.458-0.187,0.756c0.056,0.378,0.284,0.812-0.21,1.108l0.628,0.219c-0.399,0.165-0.187,0.581-0.418,0.785
		c0.142,0.066,0.3,0.102,0.302,0.146c0.012,0.237,0.201,0.482-0.012,0.719c-0.035,0.037-0.064,0.102-0.059,0.146
		c0.049,0.327,0.107,0.651,0.162,0.977c0.225,0.07,0.121,0.225,0.104,0.365c-0.008,0.053,0.014,0.115,0.039,0.166
		c0.199,0.414,0.143,0.872,0.222,1.306c0.014,0.082-0.052,0.183-0.094,0.269c-0.075,0.152-0.199,0.291-0.232,0.45
		c-0.081,0.378-0.13,0.765-0.173,1.15c-0.039,0.349,0.025,0.681,0.234,0.976c0.041,0.059,0.062,0.131,0.094,0.195
		c0.207,0.426,0.411,0.852,0.623,1.275c0.04,0.074,0.109,0.134,0.174,0.191c0.955,0.865,2.08,1.418,3.339,1.631
		c1.038,0.173,2.091,0.242,3.14,0.334c0.502,0.045,1.01,0.025,1.514,0.049c0.836,0.04,1.672,0.098,2.508,0.133
		c0.377,0.016,0.77-0.012,1.085-0.23c0.581-0.403,1.056-0.902,1.199-1.633c0.046-0.236,0.067-0.48,0.126-0.713
		c0.186-0.729,0.257-0.828-0.657-1.107L231.236,112.98z M216.83,82.083c0.114-0.271-0.339-0.499-0.049-0.821
		C217.019,81.547,216.876,81.818,216.83,82.083L216.83,82.083z M216.96,93.901c0.021-0.039,0.058-0.092,0.096-0.096
		c0.033-0.004,0.074,0.047,0.154,0.102c-0.089,0.037-0.132,0.069-0.175,0.069c-0.026,0-0.081-0.063-0.075-0.073V93.901z
		 M217.158,95.184v-0.621C217.273,94.767,217.323,94.975,217.158,95.184L217.158,95.184z M219.138,75.802
		c-0.038-0.001-0.083-0.053-0.105-0.094c-0.008-0.013,0.04-0.083,0.067-0.085c0.042-0.005,0.09,0.024,0.18,0.054
		C219.21,75.743,219.173,75.803,219.138,75.802L219.138,75.802z M221.065,110.165c-0.012-0.021-0.041-0.049-0.035-0.062
		c0.012-0.031,0.041-0.056,0.062-0.084l0.046,0.078L221.065,110.165L221.065,110.165z M221.509,106.591l0.064-0.024
		c0.025,0.063,0.048,0.128,0.072,0.192c-0.021,0.008-0.041,0.016-0.062,0.025L221.509,106.591L221.509,106.591z M220.325,87.234
		c-0.046,0.223-0.051,0.438,0.202,0.613l-0.104-0.63L220.325,87.234L220.325,87.234z M220.647,91.999
		c0.009,0.049,0.043,0.092,0.067,0.139l0.043-0.022l-0.028-0.286c-0.023,0.001-0.047,0.003-0.069,0.004
		C220.655,91.888,220.639,91.944,220.647,91.999L220.647,91.999z M220.532,88.862l-0.065-0.002
		c-0.006,0.085-0.011,0.168-0.017,0.254c0.027,0.006,0.055,0.012,0.082,0.018V88.862L220.532,88.862z M221.384,102.897
		c0.018-0.246,0.018-0.246-0.157-0.319C221.281,102.688,221.319,102.767,221.384,102.897L221.384,102.897z M220.934,96.135
		l-0.049-0.007c-0.008,0.058-0.02,0.111-0.028,0.17l0.079,0.01v-0.173H220.934z M220.491,88.155
		c-0.021,0.004-0.043,0.01-0.065,0.014l0.03,0.149c0.022-0.003,0.043-0.009,0.065-0.013c-0.01-0.049-0.021-0.1-0.028-0.15H220.491z
		 M221.442,103.585c0.014-0.023,0.038-0.047,0.036-0.068c-0.003-0.033-0.022-0.065-0.047-0.125c-0.032,0.06-0.063,0.094-0.062,0.125
		C221.372,103.541,221.417,103.562,221.442,103.585L221.442,103.585z M220.844,94.392v-0.074c-0.021,0.006-0.045,0.008-0.064,0.018
		c-0.006,0.002-0.006,0.035,0,0.037C220.801,94.384,220.823,94.386,220.844,94.392L220.844,94.392z M142.144,67.803
		c-0.374-0.214-0.743-0.433-1.122-0.635c-0.112-0.06-0.247-0.091-0.373-0.102c-0.301-0.025-0.605-0.047-0.908-0.04
		c-2.077,0.045-4.153,0.083-6.229,0.163c-0.485,0.018-0.769-0.095-0.975-0.553c-0.157-0.351-0.445-0.642-0.699-0.992
		c-0.136,0.18-0.25,0.294-0.319,0.432c-0.245,0.473-0.679,0.867-0.619,1.474c0.012,0.118-0.075,0.246-0.122,0.367
		c-0.256,0.648-0.433,1.315-0.516,2.007c-0.132,1.103-0.281,2.204-0.398,3.309c-0.048,0.455-0.084,0.921,0.163,1.351
		c0.045,0.076,0.025,0.189,0.033,0.286c0.006,0.068-0.009,0.144,0.013,0.206c0.167,0.462,0.237,0.921,0.099,1.415
		c-0.049,0.17-0.17,0.362-0.024,0.575c0.23,0.336,0.156,0.74,0.174,1.117c0.016,0.355,0.023,0.711-0.125,1.053
		c-0.041,0.095,0.007,0.226,0.004,0.34c-0.004,0.195-0.009,0.392-0.03,0.585c-0.012,0.111-0.091,0.223-0.082,0.33
		c0.046,0.546,0.006,1.088-0.058,1.628c-0.066,0.557,0.207,1.104,0.026,1.662c-0.023,0.074,0.028,0.168,0.034,0.255
		c0.016,0.226,0.035,0.453,0.036,0.678c0.001,0.171-0.028,0.343-0.035,0.514c-0.019,0.388-0.034,0.776-0.046,1.163
		c-0.002,0.09,0.011,0.182,0.024,0.372c0.091-0.142,0.155-0.194,0.157-0.25c0.03-0.685,0.05-1.37,0.073-2.055
		c-0.192-0.302,0.282-0.284,0.249-0.513c-0.003-0.025,0.073-0.087,0.084-0.08c0.079,0.041,0.205,0.09,0.212,0.15
		c0.033,0.269,0.039,0.542,0.038,0.814c0,0.055-0.075,0.111-0.118,0.165c-0.196,0.239-0.209,0.407,0.003,0.63
		c0.158,0.166,0.133,0.302,0.004,0.451c-0.06,0.07-0.13,0.133-0.197,0.199c0.294,0.273,0.352,0.529,0.181,0.768
		c-0.04,0.056-0.116,0.123-0.17,0.119c-0.154-0.014-0.304-0.059-0.503-0.1c-0.057,0.768-0.131,1.539-0.166,2.312
		c-0.038,0.835-0.042,1.673-0.052,2.509c-0.002,0.121,0.039,0.242,0.059,0.364c0.089-0.304,0.099-0.591,0.136-0.876
		c0.054-0.413,0.138-0.822,0.188-1.236c0.016-0.137-0.022-0.285-0.058-0.422c-0.096-0.371,0-0.553,0.392-0.706
		c0.016,0.022,0.045,0.047,0.043,0.069c-0.033,0.512,0.075,1.025-0.05,1.539c-0.039,0.16,0,0.343,0.013,0.514
		c0.014,0.193,0.052,0.385,0.06,0.578c0.006,0.107-0.066,0.234-0.028,0.319c0.031,0.073,0.168,0.101,0.306,0.174
		c-0.329,0.081-0.318,0.296-0.324,0.522c-0.017,0.76,0.132,1.523-0.043,2.279c-0.039,0.168-0.052,0.342-0.075,0.513
		c-0.062,0.471-0.124,0.94-0.188,1.411c-0.006,0.043-0.008,0.094-0.032,0.125c-0.059,0.072-0.121,0.166-0.2,0.191
		c-0.051,0.016-0.151-0.065-0.2-0.125c-0.06-0.075-0.09-0.173-0.145-0.281c-0.13,0.349-0.289,0.658-0.36,0.986
		c-0.084,0.393-0.104,0.801-0.127,1.203c-0.007,0.114,0.093,0.23,0.114,0.352c0.021,0.116,0.045,0.258-0.001,0.355
		c-0.115,0.242-0.188,0.684-0.119,0.98c0.303-0.218,0.446-0.857,0.305-1.266c0.055-0.154,0.14-0.283,0.136-0.408
		c-0.009-0.316-0.025-0.316,0.318-0.423c0.017,0.067,0.048,0.134,0.047,0.2c-0.007,0.628,0.018,1.254-0.025,1.885
		c-0.038,0.556-0.146,1.114-0.039,1.678c0.031,0.162,0.008,0.354-0.053,0.509c-0.098,0.253-0.088,0.471,0.12,0.696
		c-0.238,0.153-0.234,0.326-0.109,0.532c0.053,0.091,0.049,0.218,0.058,0.331c0.026,0.283-0.019,0.564-0.036,0.846
		c-0.021,0.354,0.048,0.719,0.12,1.07c0.054,0.271,0.001,0.568,0.227,0.811c0.124,0.133-0.035,0.451-0.24,0.596
		c-0.235-0.166-0.396-0.35-0.322-0.68c0.032-0.146-0.049-0.316-0.079-0.475c-0.051,0.007-0.103,0.012-0.153,0.02
		c0,0.253,0.029,0.511-0.006,0.758c-0.054,0.375-0.062,0.717,0.142,1.066c0.127,0.217,0.166,0.49,0.216,0.744
		c0.12,0.608,0.294,1.189,0.766,1.627c0.179,0.164,0.373,0.316,0.575,0.451c0.525,0.354,1.039,0.734,1.596,1.031
		c0.53,0.284,1.098,0.512,1.669,0.699c0.972,0.32,1.958,0.59,2.939,0.88c0.334,0.098,0.663,0.063,0.974-0.075
		c0.263-0.118,0.521-0.25,0.763-0.405c0.339-0.22,0.565-0.53,0.651-0.933c0.015-0.07,0.019-0.152,0.059-0.205
		c0.181-0.236,0.358-0.479,0.563-0.694c0.208-0.219,0.333-0.422,0.263-0.758c-0.076-0.366-0.031-0.376-0.396-0.497
		c-0.109-0.036-0.22-0.073-0.333-0.096c-1.059-0.225-2.119-0.434-3.174-0.672c-0.763-0.173-1.49-0.448-2.16-0.865
		c-0.329-0.205-0.516-0.484-0.558-0.875c-0.062-0.572-0.161-1.143-0.211-1.717c-0.063-0.707-0.227-1.409-0.07-2.131
		c0.057-0.26-0.011-0.545-0.004-0.816c0.03-1.036,0.073-2.072,0.1-3.107c0.009-0.389-0.08-0.8,0.079-1.156
		c0.247-0.559,0.09-1.167,0.288-1.723c0.009-0.025,0.014-0.064,0-0.085c-0.119-0.193-0.052-0.362,0.015-0.561
		c0.05-0.147-0.088-0.366-0.027-0.499c0.199-0.439,0-0.881,0.053-1.322c0.063-0.519-0.009-1.053-0.02-1.581
		c-0.008-0.343,0.018-0.688-0.024-1.026c-0.029-0.229-0.056-0.426,0.027-0.662c0.137-0.391,0.103-0.424,0.485-0.41
		c0.648,0.023,1.296,0.068,1.943,0.119c1.082,0.082,2.097-0.096,3.019-0.701c0.426-0.279,0.732-0.65,0.931-1.11
		c0.077-0.177,0.129-0.364,0.209-0.595c-0.412,0-0.754,0.002-1.097,0c-0.417-0.004-0.84-0.059-1.25-0.007
		c-1.188,0.149-2.37,0.343-3.554,0.518c-0.139,0.021-0.277,0.038-0.475,0.065c-0.034-0.364-0.121-0.693-0.083-1.008
		c0.044-0.369,0.05-0.74,0.045-1.109c0.081,0.008,0.163,0.01,0.247,0.01c0.349,0.002,0.7-0.012,1.049-0.007
		c0.166,0.001,0.329,0.037,0.485-0.044c0.021-0.012,0.064-0.013,0.091-0.005c0.125,0.031,0.225-0.013,0.341-0.045
		c0.144-0.04,0.302-0.093,0.461-0.048c0.229,0.062,0.46,0.093,0.706,0.018c0.026-0.008,0.068-0.012,0.09,0
		c0.145,0.066,0.307,0.035,0.461,0.024c0.089-0.008,0.167-0.024,0.246,0.019c0.028,0.016,0.101,0.015,0.134,0
		c0.164-0.077,0.33-0.039,0.455,0.012c0.249,0.097,0.478,0.045,0.712-0.025c0.267-0.08,0.495-0.199,0.68-0.365
		c0.098-0.086,0.187-0.167,0.246-0.275c0.059-0.105,0.111-0.234,0.276-0.293c-0.026-0.115-0.075-0.219-0.069-0.324
		s0.067-0.209,0.106-0.324c-0.083-0.016-0.15-0.027-0.217-0.042c-0.449-0.091-0.898-0.163-1.382-0.056
		c-0.198,0.043-0.414,0.043-0.621,0.052c-0.27,0.012-0.549-0.019-0.808,0.024c-0.473,0.079-0.939,0.142-1.423,0.152
		c-0.375,0.008-0.75,0.072-1.125,0.105c-0.11,0.009-0.224,0.009-0.334,0.003c-0.062-0.004-0.428-0.026-0.855-0.043
		c-0.001-0.045-0.004-0.09-0.004-0.135c-0.009-0.574-0.051-1.146-0.034-1.723c0.115,0.005,0.23,0.009,0.345,0.015
		c0.051,0.002,0.102,0.013,0.153,0.014c0.297,0.008,0.593,0.011,0.889,0.018c0.336,0.008,0.672,0.018,1.008,0.025
		c0.484,0.011,0.969,0.023,1.453,0.032c0.159,0.002,0.319-0.001,0.478-0.009c0.073-0.004,0.145-0.024,0.217-0.036
		c0.067-0.011,0.14-0.042,0.201-0.027c0.171,0.039,0.333-0.013,0.486-0.057c0.167-0.047,0.317-0.15,0.474-0.23
		c0.08-0.041,0.157-0.09,0.239-0.13c0.331-0.159,0.684-0.25,1.042-0.327c0.089-0.02,0.181-0.041,0.23-0.147l-0.085-0.049
		l0.084-0.149l-0.547-0.04c0.132-0.094,0.295-0.028,0.457-0.113c-0.118-0.006-0.206-0.006-0.294-0.016
		c-0.13-0.013-0.259-0.034-0.388-0.051c-0.012-0.002-0.023-0.007-0.035-0.006c-0.219,0.027-0.407-0.089-0.611-0.129
		c-0.134-0.027-0.269-0.042-0.403-0.064c-0.048-0.008-0.095-0.021-0.142-0.029c-0.135-0.022-0.269-0.051-0.403-0.06
		c-0.04-0.002-0.09,0.045-0.123,0.08c-0.042,0.044-0.076,0.085-0.158,0.048l0.077-0.17c-0.145-0.024-0.282-0.078-0.416,0.018
		c-0.074,0.055-0.143,0.059-0.252-0.002c0.083-0.024,0.136-0.041,0.221-0.065c-0.14-0.079-0.271-0.083-0.401-0.086
		c-0.13-0.004-0.258-0.092-0.437,0.003l0.136,0.076l-0.007,0.024c-0.047,0-0.094,0.004-0.142,0c-0.111-0.01-0.089-0.091-0.092-0.174
		c-0.021,0.019-0.061,0.04-0.06,0.058c0.006,0.104-0.063,0.111-0.134,0.113c-0.098,0.002-0.194,0.001-0.292-0.004
		c-0.541-0.026-1.083-0.038-1.623-0.086c-0.334-0.03-0.668-0.033-1.001-0.051c-0.016,0-0.031-0.004-0.046-0.008
		c-0.001-0.021-0.002-0.042-0.004-0.063l0.132-0.052c-0.051-0.028-0.098-0.033-0.14-0.025c-0.013-0.13-0.032-0.26-0.062-0.389
		c-0.023-0.095-0.011-0.204,0.011-0.301c0.151-0.687,0.024-1.371-0.039-2.051c-0.071-0.759-0.224-1.51-0.297-2.27
		c-0.051-0.514-0.028-1.034-0.038-1.551c-0.013-0.72-0.005-1.441-0.044-2.159c-0.069-1.269-0.168-2.535-0.422-3.783
		c-0.023-0.118-0.003-0.246-0.003-0.363c0.084-0.021,0.126-0.043,0.167-0.04c0.086,0.009,0.171,0.024,0.253,0.048
		c1.509,0.433,3.053,0.62,4.618,0.623c0.387,0.001,0.783-0.027,1.159-0.11c0.435-0.097,0.852-0.266,1.275-0.412
		c0.104-0.036,0.207-0.096,0.292-0.166c0.264-0.214,0.519-0.439,0.787-0.668c-0.025-0.051-0.067-0.135-0.104-0.213
		c0.105-0.074,0.19-0.135,0.305-0.214c-0.069-0.049-0.101-0.078-0.137-0.099H142.144z M130.619,83.095
		c-0.103-0.117-0.116-0.237,0-0.401V83.095L130.619,83.095z M130.226,88.467l0.462,0.118
		C130.469,88.767,130.469,88.767,130.226,88.467z M130.573,88.308c-0.179,0.059-0.329-0.03-0.459-0.227
		c0.201-0.185,0.381-0.258,0.621-0.177C130.755,88.081,130.752,88.249,130.573,88.308z M130.752,81.551
		c-0.036,0-0.071-0.03-0.106-0.048c0.028-0.039,0.051-0.084,0.088-0.111c0.01-0.008,0.06,0.039,0.162,0.108
		C130.828,81.525,130.789,81.552,130.752,81.551L130.752,81.551z M129.982,97.566c-0.039-0.012-0.071-0.055-0.104-0.083
		c0.029-0.024,0.056-0.065,0.085-0.067c0.029-0.001,0.06,0.04,0.145,0.101C130.051,97.54,130.01,97.575,129.982,97.566
		L129.982,97.566z M137.991,83.667c-0.034,0.024-0.046,0.038-0.059,0.041c-0.021,0.004-0.043,0.001-0.065,0.001l-0.003-0.042
		C137.898,83.667,137.931,83.667,137.991,83.667L137.991,83.667z M135.751,82.346c0.006,0,0.014,0.011,0.021,0.017l-0.02,0.019
		l-0.02-0.018C135.737,82.357,135.743,82.347,135.751,82.346L135.751,82.346z M134.568,83.727l-0.035-0.017
		c0.006-0.008,0.012-0.014,0.017-0.022c0.009,0.004,0.021,0.006,0.025,0.012C134.579,83.706,134.571,83.717,134.568,83.727
		L134.568,83.727z M134.672,82.176c-0.039,0.062-0.083,0.07-0.147,0.037C134.566,82.153,134.605,82.131,134.672,82.176z
		 M130.117,95.517l-0.008,0.006l0.012,0.01C130.121,95.526,130.118,95.522,130.117,95.517L130.117,95.517z M129.79,95.359
		c0.115,0.041,0.293-0.033,0.327,0.157l0.181-0.153C129.927,95.124,129.927,95.124,129.79,95.359L129.79,95.359z M129.911,94.214
		l-0.115,0.525C130.065,94.575,130.065,94.575,129.911,94.214L129.911,94.214z M129.058,101.965l0.415,0.083
		C129.393,101.739,129.265,101.822,129.058,101.965z M130.038,92.686l-0.1-0.004l-0.032,0.397l0.132,0.006V92.686L130.038,92.686z
		 M129.771,96.444c0.083-0.006,0.167-0.024,0.249-0.039c-0.007-0.047-0.014-0.094-0.021-0.141l-0.257,0.039
		C129.752,96.354,129.763,96.444,129.771,96.444L129.771,96.444z M129.087,103.92l-0.078,0.25l0.085,0.04
		c0.029-0.039,0.078-0.076,0.083-0.117c0.005-0.057-0.022-0.117-0.035-0.175C129.124,103.918,129.106,103.918,129.087,103.92
		L129.087,103.92z M130.11,95.522c-0.004,0.004-0.008,0.012-0.012,0.016c0.008-0.002,0.016-0.004,0.023-0.006L130.11,95.522
		L130.11,95.522z M130.098,95.538c-0.139,0.041-0.324,0.016-0.36,0.25C129.97,95.819,130.003,95.638,130.098,95.538L130.098,95.538z
		 M126.541,66.031c-0.213-0.184-0.454-0.337-0.743-0.547c-0.038-0.005-0.18,0.013-0.286-0.04c-0.484-0.247-1.022-0.302-1.537-0.375
		c-0.841-0.122-1.694-0.145-2.546-0.046c-0.529,0.062-1.066,0.065-1.596,0.125c-0.858,0.094-1.718,0.196-2.572,0.328
		c-0.755,0.115-1.51,0.247-2.251,0.424c-0.826,0.196-1.667,0.364-2.413,0.807c-0.657,0.39-1.316,0.774-1.97,1.171
		c-0.121,0.073-0.231,0.177-0.318,0.289c-0.199,0.255-0.126,0.428,0.19,0.476c0.127,0.02,0.259,0.021,0.389,0.021
		c0.422,0,0.823,0.056,1.22,0.231c0.392,0.174,0.809,0.33,1.23,0.388c0.611,0.085,1.235,0.08,1.854,0.105
		c0.1,0.004,0.199-0.032,0.3-0.045c0.169-0.022,0.339-0.052,0.511-0.059c0.721-0.03,1.44-0.056,2.161-0.075
		c1.519-0.042,2.961-0.406,4.358-0.991c0.43-0.182,0.881-0.346,1.397-0.377c0.102,0.397-0.049,0.687-0.165,0.974
		c-0.325,0.817-0.671,1.627-1.005,2.442c-0.399,0.972-0.811,1.941-1.183,2.924c-0.252,0.667-0.696,1.265-0.733,2.009
		c-0.001,0.024-0.033,0.045-0.05,0.068c-0.533,0.677-0.755,1.505-1.096,2.274c-0.061,0.14-0.07,0.302-0.127,0.445
		c-0.144,0.358-0.317,0.707-0.446,1.07c-0.055,0.157-0.031,0.341-0.045,0.54c-0.106,0.172-0.237,0.385-0.349,0.568
		c0.072,0.089,0.158,0.149,0.159,0.211c0.002,0.065-0.079,0.19-0.121,0.189c-0.202-0.003-0.228,0.135-0.272,0.276
		c-0.123,0.4-0.233,0.804-0.386,1.192c-0.08,0.203-0.01,0.337,0.111,0.462c-0.143,0.191-0.464,0.263-0.282,0.576
		c0.008,0.016-0.04,0.064-0.06,0.098c-0.063,0.106-0.148,0.204-0.185,0.319c-0.161,0.507-0.308,1.019-0.46,1.528
		c-0.194,0.649-0.39,1.297-0.583,1.941c0.069,0.092,0.133,0.179,0.232,0.312h-0.359c-0.125,0.338-0.245,0.647-0.355,0.961
		c-0.062,0.176-0.153,0.358-0.15,0.536c0.002,0.173-0.065,0.283-0.125,0.427c-0.135,0.316-0.399,0.639-0.167,0.945
		c-0.093,0.318-0.151,0.588-0.25,0.843c-0.101,0.259-0.24,0.503-0.356,0.739c0.117,0.088,0.186,0.141,0.317,0.238
		c-0.415,0.088-0.469,0.362-0.53,0.655c-0.115,0.548-0.276,1.085-0.389,1.634c-0.23,1.117-0.55,2.207-0.953,3.271
		c-0.015,0.037-0.002,0.082-0.002,0.123l0.216-0.017c0.038,0.179-0.003,0.293-0.162,0.368c-0.096,0.045-0.217,0.104-0.25,0.188
		c-0.034,0.082,0.028,0.204,0.03,0.212c-0.115,0.214-0.225,0.349-0.264,0.501c-0.282,1.073-0.547,2.148-0.819,3.225
		c-0.017,0.066-0.058,0.129-0.082,0.195c-0.159,0.433-0.362,0.854-0.462,1.302c-0.1,0.437-0.326,0.792-0.663,1.019
		c-0.305,0.206-0.37,0.497-0.49,0.777c-0.104,0.243-0.167,0.504-0.249,0.758c-0.043,0.146-0.006,0.322-0.05,0.475
		c-0.135,0.456-0.02,0.883,0.351,1.186c0.076,0.062,0.134,0.146,0.199,0.223c0.302,0.355,0.639,0.636,1.138,0.679
		c0.189,0.017,0.441,0.079,0.542,0.212c0.301,0.395,0.72,0.45,1.146,0.498c0.627,0.066,1.258,0.098,1.883,0.172
		c0.297,0.034,0.584,0.154,0.876-0.021c0.039-0.024,0.117-0.017,0.164,0.005c0.219,0.104,0.405,0.012,0.617-0.049
		c0.263-0.074,0.554-0.178,0.833-0.035c0.403,0.203,0.813,0.318,1.264,0.174c0.048-0.016,0.125-0.013,0.161,0.016
		c0.25,0.197,0.547,0.148,0.825,0.148c0.161,0,0.302-0.028,0.438,0.096c0.048,0.045,0.179,0.055,0.241,0.021
		c0.305-0.162,0.596-0.032,0.815,0.115c0.433,0.291,0.85,0.201,1.279,0.068c0.49-0.15,0.915-0.409,1.269-0.79
		c0.187-0.199,0.357-0.386,0.479-0.647c0.119-0.258,0.23-0.568,0.536-0.686c-0.034-0.293-0.106-0.564-0.082-0.828
		c0.023-0.262,0.146-0.514,0.233-0.795c-0.147-0.055-0.266-0.098-0.383-0.143c-0.795-0.312-1.588-0.576-2.471-0.4
		c-0.361,0.072-0.748,0.034-1.121,0.018c-0.485-0.021-0.98-0.148-1.452-0.086c-0.858,0.11-1.703,0.182-2.572,0.117
		c-0.671-0.052-1.353,0.04-2.03,0.057c-0.2,0.004-0.404-0.021-0.601-0.058c-0.281-0.054-0.328-0.141-0.264-0.426
		c0.015-0.07,0.047-0.136,0.067-0.206c0.286-0.982,0.584-1.962,0.852-2.949c0.221-0.821,0.39-1.658,0.612-2.479
		c0.219-0.805,0.476-1.601,0.715-2.4c0.065-0.221,0.136-0.438,0.186-0.662c0.277-1.223,0.549-2.445,0.821-3.671
		c0.143-0.646,0.262-1.298,0.427-1.939c0.316-1.228,0.656-2.447,0.988-3.669c0.215-0.793,0.43-1.584,0.652-2.374
		c0.352-1.248,0.696-2.5,1.071-3.741c0.212-0.702,0.44-1.406,0.737-2.075c0.231-0.521,0.404-1.064,0.666-1.577
		c0.265-0.52,0.41-1.103,0.613-1.657c0.346-0.945,0.689-1.893,1.05-2.833c0.438-1.144,0.878-2.289,1.346-3.42
		c0.341-0.826,0.759-1.622,0.965-2.5c0.108-0.462,0.227-0.922,0.526-1.312c0.078-0.1,0.125-0.223,0.214-0.385
		C126.938,66.428,126.753,66.214,126.541,66.031L126.541,66.031z M114.075,97.698c-0.02-0.027-0.047-0.053-0.057-0.082
		c-0.004-0.014,0.032-0.057,0.046-0.056c0.03,0.003,0.059,0.026,0.106,0.052L114.075,97.698z M116.015,93.913
		c-0.015-0.022-0.044-0.047-0.041-0.064c0.009-0.031,0.036-0.059,0.068-0.107c0.029,0.051,0.066,0.089,0.058,0.109
		C116.091,93.878,116.046,93.893,116.015,93.913L116.015,93.913z M166.276,110.06c-0.115-1.437-0.221-2.876-0.271-4.317
		c-0.055-1.583-0.039-3.171-0.063-4.757c-0.008-0.475-0.049-0.949-0.065-1.426c-0.027-0.786-0.042-1.571-0.073-2.357
		c-0.015-0.345-0.07-0.688-0.086-1.034c-0.033-0.701-0.051-1.403-0.081-2.106c-0.004-0.068-0.031-0.146-0.074-0.197
		c-0.119-0.141-0.072-0.287-0.06-0.447c0.029-0.34,0.129-0.742-0.009-1.012c-0.177-0.344-0.144-0.607-0.047-0.929
		c0.049-0.161,0.041-0.345,0.034-0.516c-0.017-0.428-0.035-0.856-0.077-1.282c-0.104-1.104-0.205-2.21-0.342-3.311
		c-0.05-0.4-0.135-0.791-0.158-1.201c-0.042-0.788-0.171-1.57-0.266-2.354c-0.017-0.138,0.005-0.279-0.2-0.33
		c-0.179-0.043-0.164-0.212-0.034-0.291c0.165-0.1,0.185-0.233,0.124-0.366c-0.133-0.285-0.112-0.628-0.345-0.875
		c-0.129-0.136-0.145-0.293,0.04-0.397c0.143-0.079,0.188-0.201,0.136-0.325c-0.125-0.302,0.051-0.681-0.246-0.939
		c-0.026-0.024-0.028-0.123-0.002-0.157c0.156-0.206-0.016-0.337-0.101-0.458c0.048-0.136,0.129-0.248,0.116-0.349
		c-0.058-0.448,0.012-0.913-0.228-1.341c-0.089-0.16-0.095-0.393-0.071-0.585c0.034-0.283-0.128-0.586,0.084-0.85
		c0.014-0.018,0.004-0.057,0.001-0.085c-0.029-0.252-0.062-0.503-0.086-0.756c-0.024-0.239-0.031-0.469-0.109-0.71
		c-0.088-0.275-0.114-0.622-0.026-0.89c0.103-0.308,0.072-0.509-0.184-0.686c0.075-0.153,0.138-0.279,0.16-0.326
		c-0.06-0.37-0.111-0.663-0.154-0.957c-0.027-0.184-0.103-0.391-0.048-0.55c0.118-0.344,0.043-0.605-0.185-0.861
		c-0.132-0.149-0.119-0.286,0.093-0.365c0.048-0.018,0.083-0.073,0.146-0.131c-0.308-0.314,0.019-0.806-0.343-1.104
		c0.23-0.265,0.038-0.533-0.01-0.792c-0.054-0.284-0.126-0.552,0.021-0.831c0.091-0.171,0.117-0.352-0.011-0.529
		c-0.039-0.053-0.064-0.13-0.064-0.197c-0.004-0.365,0.084-0.73-0.01-1.096c-0.01-0.038-0.002-0.106,0.022-0.123
		c0.208-0.145,0.119-0.345,0.119-0.535c0-0.121,0.037-0.244,0.069-0.363c0.101-0.363,0.282-0.722-0.027-1.081
		c-0.05-0.057-0.055-0.21-0.012-0.277c0.188-0.302,0.243-0.612,0.125-0.949c-0.004-0.013-0.001-0.028-0.001-0.043
		c-0.002-0.874-0.034-1.751,0.005-2.625c0.025-0.561-0.004-1.183,0.612-1.49c0.055-0.59,0.027-1.143-0.107-1.745l-0.254,0.294
		l-0.193-0.437c-0.09,0.267,0.052,0.537-0.223,0.764l-0.086-0.671c-0.069,0.22-0.117,0.373-0.165,0.524l-0.089-0.006l-0.374-0.949
		c-0.108,0.256-0.12,0.576-0.33,0.816c-0.205-0.13,0.027-0.5-0.33-0.494l-0.348,0.429c-0.047-0.146-0.077-0.235-0.129-0.395
		c-0.183,0.251-0.303,0.488-0.489,0.651c-0.366,0.322-0.478,0.744-0.564,1.184c-0.091,0.464-0.118,0.944-0.252,1.393
		c-0.24,0.799-0.113,1.627-0.258,2.43c-0.045,0.253-0.004,0.52-0.04,0.775c-0.043,0.322-0.018,0.604,0.26,0.817
		c0.022,0.017,0.01,0.079,0.015,0.14l-0.296-0.023c0,0.344-0.004,0.659,0.001,0.974c0.006,0.387-0.032,0.779,0.116,1.154
		c0.028,0.07-0.016,0.166-0.016,0.25c0,0.372,0.015,0.745,0.002,1.117c-0.011,0.3,0.13,0.566,0.106,0.883
		c-0.04,0.516,0.05,1.037,0.049,1.562c0,0.857,0.09,1.715,0.152,2.572c0.058,0.781,0.125,1.562,0.194,2.344
		c0.027,0.3,0.093,0.6,0.092,0.899c-0.001,1.201,0.247,2.376,0.374,3.562c0.067,0.629,0.193,1.251,0.277,1.879
		c0.146,1.083,0.271,2.169,0.421,3.251c0.169,1.225,0.374,2.445,0.528,3.672c0.097,0.768,0.126,1.541,0.198,2.312
		c0.031,0.33,0.104,0.656,0.133,0.988c0.015,0.18-0.025,0.364-0.044,0.546c-0.006,0.069-0.045,0.14-0.035,0.204
		c0.077,0.521,0.079,1.041,0.068,1.569c-0.016,0.731,0.057,1.466,0.098,2.197c0.059,1.036,0.141,2.069,0.183,3.106
		c0.044,1.094,0.053,2.189,0.08,3.283c0,0.01,0,0.02,0.001,0.029c-0.507-1.435-1.014-2.87-1.529-4.304
		c-1.093-3.036-1.639-6.317-2.741-9.353c-0.87-2.395-2.305-4.541-3.164-6.938c-1.059-2.955-2.128-5.907-3.17-8.866
		c-0.564-1.603-1.123-3.206-1.683-4.81l-0.994-0.1v0.001c-0.394,0.203-0.302,0.781-0.575,0.439
		c-0.126-0.157-0.205,0.302-0.306,0.129c-0.133-0.23-0.245-0.229-0.586-0.153c-0.059,0.013-0.132,0.656-0.193,0.598
		c-0.174-0.163-0.322-0.083-0.45,0.051c-0.069,0.073-0.103,0.18-0.208,0.372c-0.093-0.344-0.159-0.584-0.212-0.78l-0.958,0.045
		c-0.018,0.5-0.019,0.499-0.326,1.061c-0.071,0.127-0.084,0.236-0.021,0.397c0.124,0.313,0.128,0.673,0.394,0.931
		c0.033,0.032,0.028,0.11,0.031,0.167c0.047,0.818,0.112,1.636,0.132,2.454c0.022,0.933-0.001,1.867,0.003,2.8
		c0.003,0.791,0.026,1.581,0.023,2.372c-0.002,1.031-0.03,2.062-0.031,3.093c0,1.096,0.02,2.191,0.025,3.287
		c0.008,1.699-0.01,3.399,0.022,5.098c0.026,1.327,0.1,2.651,0.179,3.977c0.068,1.165,0.188,2.327,0.256,3.492
		c0.068,1.167,0.082,2.336,0.15,3.502c0.101,1.699,0.234,3.396,0.346,5.095c0.059,0.878,0.11,1.758,0.149,2.636
		c0.045,1.038,0.073,2.076,0.114,3.113c0.006,0.136,0.05,0.271,0.088,0.462c0.402-0.322,0.712-0.09,1.039,0.073
		c0.076-0.089,0.146-0.157,0.203-0.237c0.433-0.609,0.544-1.328,0.664-2.037c0.175-1.029,0.13-2.07,0.076-3.107
		c-0.043-0.809-0.138-1.613-0.15-2.42c-0.023-1.5,0.015-3-0.007-4.5c-0.021-1.398-0.082-2.797-0.131-4.195
		c-0.051-1.471-0.055-2.94,0.017-4.413c0.071-1.454,0.066-2.912,0.111-4.368c0.053-1.746,0.122-3.49,0.184-5.235
		c0.025-0.706,0.047-1.413,0.074-2.12c0.004-0.103,0.029-0.204,0.045-0.305c0.139,0.139,0.194,0.282,0.246,0.427
		c0.285,0.802,0.552,1.61,0.856,2.405c0.894,2.34,1.872,4.649,2.615,7.047c0.159,0.509,0.367,1.003,0.538,1.51
		c0.17,0.504,0.323,1.016,0.482,1.525c0.159,0.508,0.402,1.008,0.452,1.527c0.051,0.525,0.445,0.961,0.339,1.51
		c-0.004,0.02,0.019,0.05,0.036,0.072c0.318,0.41,0.438,0.867,0.332,1.385c0.211,0.006,0.236,0.168,0.271,0.324
		c0.044,0.193,0.086,0.391,0.146,0.582c0.186,0.59,0.412,1.17,0.561,1.771c0.098,0.391,0.272,0.791,0.117,1.213l0.248,0.165
		c0.103,0.415,0.174,0.748,0.268,1.075c0.274,0.951,0.564,1.898,0.833,2.852c0.297,1.05,0.812,2.033,0.959,3.129
		c0.004,0.027,0.02,0.055,0.031,0.08c0.126,0.352,0.104,0.712,0.052,1.075c0.142-0.06,0.218,0.002,0.25,0.136
		c0.089,0.363,0.182,0.726,0.258,1.092c0.018,0.09-0.022,0.189-0.039,0.285c-0.014,0.079-0.054,0.158-0.045,0.234
		c0.013,0.129,0.107,0.125,0.213,0.109c0.027-0.006,0.09,0.073,0.098,0.119c0.023,0.154,0.073,0.324,0.033,0.465
		c-0.098,0.341-0.002,0.579,0.229,0.697c0.016,0.256-0.006,0.455,0.046,0.635c0.198,0.678,0.441,1.344,0.623,2.025
		c0.067,0.25,0.243,0.453,0.234,0.738c-0.007,0.262,0.083,0.525,0.133,0.788c0.072,0.368,0.143,0.735,0.222,1.102
		c0.032,0.149,0.097,0.293,0.128,0.443c0.063,0.308,0.124,0.616,0.165,0.927c0.028,0.209,0.032,0.424,0.023,0.634
		c-0.008,0.214-0.106,0.445-0.052,0.637c0.047,0.169,0.012,0.253-0.067,0.38c-0.163,0.258-0.17,0.543-0.085,0.832
		c0.089,0.303,0.177,0.604,0.263,0.906c0.068,0.24,0.226,0.422,0.45,0.49c0.341,0.102,0.696,0.195,1.052,0.033
		c0.508-0.227,1.004-0.148,1.496,0.057c0.44,0.182,0.582,0.123,0.729-0.332c0.146-0.45,0.282-0.904,0.423-1.356
		c0.215-0.688,0.446-1.37,0.643-2.062c0.105-0.373,0.179-0.76,0.226-1.145c0.152-1.238,0.066-2.479-0.047-3.713
		C166.515,112.211,166.362,111.138,166.276,110.06L166.276,110.06z M161.054,75.122c0,0.048,0.004,0.097-0.004,0.143
		c-0.001,0.012-0.046,0.016-0.071,0.023l-0.025-0.174C160.988,75.117,161.022,75.12,161.054,75.122L161.054,75.122z M160.394,61.812
		l0.077,0.057c-0.049,0.072-0.098,0.144-0.147,0.215c-0.023-0.016-0.048-0.031-0.072-0.046L160.394,61.812z M160.3,63.104
		c0.022,0.008,0.044,0.016,0.065,0.024l-0.057,0.19l-0.097-0.032L160.3,63.104z M160.059,63.941c0-0.022,0-0.044-0.001-0.066h0.206
		c0,0.022,0,0.044,0.001,0.066H160.059z M160.243,64.383l0.101-0.012c0.013,0.107,0.029,0.215,0.037,0.323
		c0,0.003-0.071,0.011-0.109,0.017C160.262,64.602,160.252,64.491,160.243,64.383L160.243,64.383z M160.307,67.1v-0.457
		C160.571,66.809,160.571,66.809,160.307,67.1z M160.575,68.783l0.021,0.385C160.452,68.97,160.452,68.97,160.575,68.783
		L160.575,68.783z M160.738,72.377c0.095,0.456,0.161,0.917,0.116,1.447C160.656,73.577,160.59,72.773,160.738,72.377z
		 M160.892,74.395l-0.114-0.014c0.008-0.075,0.013-0.15,0.028-0.223c0-0.004,0.07,0.004,0.107,0.007
		C160.906,74.241,160.899,74.318,160.892,74.395z M160.947,75.954v-0.219c0.036,0.001,0.105-0.001,0.105,0.003
		c0.006,0.072,0.004,0.144,0.004,0.216C161.02,75.953,160.983,75.953,160.947,75.954z M163.346,76.932
		c0.209,0.396,0.051,0.807,0.149,1.208c0.094,0.374,0.021,0.79,0.021,1.236c-0.225-0.396-0.161-0.803-0.202-1.19
		c-0.043-0.399-0.099-0.797-0.13-1.197c-0.031-0.401-0.188-0.798-0.044-1.208C163.421,76.137,163.162,76.584,163.346,76.932
		L163.346,76.932z M163.099,74.566c-0.042,0.312,0.267,0.587,0.067,0.951c-0.246-0.304-0.09-0.632-0.154-0.92
		c-0.071-0.316-0.148-0.636-0.157-0.957c-0.009-0.299,0.07-0.6,0.109-0.899l0.109-0.006c0.009,0.304,0.021,0.608,0.026,0.914
		C163.106,73.954,163.139,74.266,163.099,74.566L163.099,74.566z M162.733,68.844c0.349-0.073,0.163,0.154,0.171,0.262
		C162.85,69.025,162.798,68.943,162.733,68.844z M162.852,80.392l-0.074,0.031l-0.029-0.09c0.026-0.004,0.057-0.02,0.078-0.01
		C162.843,80.33,162.845,80.367,162.852,80.392z M162.88,71.045v-0.464C163.131,70.795,163.131,70.795,162.88,71.045z
		 M163.103,58.757c0.02,0.043,0.055,0.087,0.055,0.131c0.001,0.024-0.064,0.076-0.083,0.07c-0.042-0.015-0.074-0.059-0.139-0.118
		C163.017,58.8,163.06,58.778,163.103,58.757L163.103,58.757z M162.92,60.56c0.026-0.01,0.092,0.022,0.104,0.049
		c0.072,0.171,0.01,0.292-0.168,0.388c-0.037-0.055-0.05-0.067-0.053-0.079C162.775,60.776,162.74,60.63,162.92,60.56L162.92,60.56z
		 M162.699,58.005c-0.118-0.163-0.027-0.31,0.101-0.457v0.449L162.699,58.005L162.699,58.005z M162.319,63.684l-0.133-0.843
		C162.547,63.025,162.604,63.379,162.319,63.684z M161.766,82.868c-0.024-0.018-0.024-0.065-0.034-0.101
		c0.034-0.007,0.077-0.032,0.099-0.02c0.025,0.015,0.032,0.061,0.055,0.112C161.832,82.865,161.784,82.885,161.766,82.868
		L161.766,82.868z M162.121,67.065c-0.042-0.059-0.083-0.094-0.093-0.139c-0.005-0.02,0.063-0.083,0.075-0.078
		c0.042,0.021,0.084,0.057,0.105,0.098C162.217,66.96,162.167,67.005,162.121,67.065L162.121,67.065z M162.289,66.129l-0.4-0.375
		c0.183-0.037,0.327-0.084,0.336-0.066C162.286,65.816,162.319,65.958,162.289,66.129L162.289,66.129z M162.135,65.312
		c-0.068-0.265-0.189-0.433-0.493-0.498c0.217-0.188,0.367-0.333,0.537-0.452c0.048-0.033,0.178-0.008,0.225,0.038
		c0.049,0.047,0.075,0.162,0.054,0.228c-0.029,0.09-0.112,0.161-0.181,0.252l0.246,0.193L162.135,65.312L162.135,65.312z
		 M162.568,61.184c-0.03,0.089-0.095,0.112-0.353,0.136c0.104-0.195-0.046-0.438,0.189-0.632
		C162.533,60.859,162.63,60.995,162.568,61.184L162.568,61.184z M162.757,56.698c0.047,0.102,0.092,0.159,0.094,0.219
		c0.001,0.035-0.065,0.073-0.101,0.108c-0.039-0.053-0.094-0.103-0.108-0.163C162.634,56.831,162.697,56.782,162.757,56.698
		L162.757,56.698z M162.787,64.325l-0.017,0.3c-0.061-0.014-0.102-0.013-0.106-0.024C162.622,64.484,162.624,64.483,162.787,64.325
		L162.787,64.325z M162.687,90.745c-0.004-0.032,0.053-0.072,0.083-0.107l0.1,0.111l-0.085,0.1
		C162.749,90.813,162.692,90.782,162.687,90.745L162.687,90.745z M156.573,97.397c-0.009-0.027,0.053-0.074,0.111-0.145
		c0.042,0.082,0.077,0.124,0.082,0.17c0.002,0.021-0.062,0.076-0.08,0.07C156.64,97.474,156.583,97.438,156.573,97.397
		L156.573,97.397z M156.677,97.712c-0.005-0.009,0.043-0.056,0.078-0.1l0.156,0.138c-0.036,0.034-0.092,0.102-0.102,0.095
		C156.757,97.812,156.712,97.764,156.677,97.712L156.677,97.712z M156.826,98.13c0.044-0.021,0.093-0.066,0.132-0.059
		c0.039,0.008,0.068,0.066,0.138,0.143c-0.094,0.023-0.151,0.057-0.183,0.041C156.873,98.233,156.854,98.173,156.826,98.13
		L156.826,98.13z M156.939,97.222c0.019-0.164,0.027-0.244,0.042-0.364l0.404,0.163L156.939,97.222z M157.178,98.884l-0.069,0.01
		l-0.04-0.213c0.036-0.003,0.073-0.007,0.11-0.011L157.178,98.884L157.178,98.884z M157.484,98.204
		c-0.297-0.313-0.323-0.379-0.309-0.861c0.123,0.089,0.247,0.177,0.369,0.263C157.524,97.794,157.502,98.021,157.484,98.204z
		 M157.786,99.328c-0.223-0.194-0.223-0.454-0.136-0.743l0.238,0.696L157.786,99.328L157.786,99.328z M158.457,103.679
		c-0.036-0.034-0.069-0.076-0.083-0.122c-0.004-0.014,0.051-0.047,0.104-0.093c0.03,0.064,0.06,0.109,0.064,0.156
		C158.543,103.639,158.463,103.685,158.457,103.679L158.457,103.679z M158.322,101.284c0.106-0.066,0.216-0.154,0.296,0.092
		C158.488,101.334,158.405,101.309,158.322,101.284L158.322,101.284z M158.996,104.954l-0.086-0.053
		c0.023-0.027,0.044-0.062,0.074-0.08c0.011-0.006,0.067,0.033,0.064,0.039C159.037,104.893,159.015,104.923,158.996,104.954
		L158.996,104.954z M158.67,102.824c0.216,0.149,0.216,0.149,0.257,0.52L158.67,102.824z M159.06,105.341l0.022-0.09
		c0.147-0.026,0.293-0.053,0.482-0.085c0.028,0.124,0.053,0.237,0.082,0.368C159.429,105.463,159.244,105.401,159.06,105.341
		L159.06,105.341z M159.969,106.485c-0.019-0.045-0.052-0.09-0.052-0.135c0-0.026,0.06-0.082,0.077-0.075
		c0.039,0.015,0.068,0.057,0.125,0.108L159.969,106.485L159.969,106.485z M161.131,110.452l-0.08-0.193
		c0.025-0.009,0.05-0.02,0.075-0.029l0.071,0.197L161.131,110.452L161.131,110.452z M163.352,111.431l-0.117,0.005
		c-0.171-0.64-0.369-1.271-0.506-1.917c-0.285-1.344-0.634-2.67-1.153-3.941c-0.18-0.442-0.233-0.955-0.609-1.312
		c-0.014-0.014-0.02-0.059-0.009-0.078c0.133-0.225-0.022-0.418-0.072-0.619c-0.098-0.392-0.206-0.78-0.312-1.17
		c-0.267-0.975-0.521-1.952-0.806-2.921c-0.224-0.76-0.478-1.511-0.729-2.261c-0.142-0.425-0.321-0.836-0.449-1.264
		c-0.313-1.051-0.578-2.115-0.914-3.158c-0.594-1.855-1.198-3.707-1.852-5.541c-0.6-1.684-1.263-3.345-1.911-5.012
		c-0.762-1.962-1.545-3.917-2.191-5.923c-0.386-1.193-0.814-2.374-1.231-3.556c-0.278-0.789-0.576-1.571-0.85-2.36
		c-0.049-0.142-0.056-0.315-0.026-0.462c0.047-0.233,0.386-0.748,0.658-1.2c0.087,0.22,0.173,0.438,0.253,0.66
		c0.543,1.5,1.043,3.01,1.586,4.511c0.917,2.536,1.838,5.07,2.783,7.599c0.675,1.806,1.394,3.603,2.09,5.403
		c0.408,1.051,0.836,2.1,1.21,3.158c0.737,2.092,1.417,4.193,2.168,6.281c0.78,2.168,1.614,4.325,2.423,6.488
		c0.007,0.268,0.013,0.535,0.021,0.804c0.028,0.948,0.02,1.899,0.096,2.845c0.125,1.537,0.306,3.072,0.46,4.606
		C163.376,111.206,163.357,111.319,163.352,111.431L163.352,111.431z M163.486,83.062c-0.015,0.004-0.067-0.069-0.06-0.084
		c0.02-0.04,0.065-0.067,0.101-0.098l0.093,0.106C163.566,83.02,163.528,83.053,163.486,83.062L163.486,83.062z M163.651,81.549
		c-0.03-0.237-0.025-0.48-0.042-0.72c-0.022-0.297-0.051-0.594-0.077-0.889l0.093-0.006l0.33,2.127
		C163.675,81.935,163.673,81.728,163.651,81.549L163.651,81.549z M163.904,82.501c0.2,0.279,0.209,0.617,0.3,0.927
		c0.014,0.047-0.083,0.125-0.167,0.245C163.731,83.262,163.853,82.881,163.904,82.501L163.904,82.501z M164.175,84.814
		c-0.02-0.002-0.04-0.004-0.061-0.006l-0.047-0.232l0.051-0.026c0.029,0.045,0.072,0.088,0.086,0.137
		C164.214,84.725,164.186,84.772,164.175,84.814L164.175,84.814z M164.347,86.318c0.172,0.195,0.189,0.302,0.072,0.413
		c-0.042-0.004-0.084-0.01-0.126-0.014L164.347,86.318L164.347,86.318z M164.448,87.151c-0.027-0.058-0.063-0.102-0.056-0.131
		c0.012-0.042,0.056-0.074,0.087-0.111c0.027,0.029,0.074,0.059,0.075,0.091C164.555,87.03,164.512,87.063,164.448,87.151
		L164.448,87.151z M164.711,86.769c0.037,0.01,0.108,0.022,0.107,0.028c-0.01,0.081-0.029,0.159-0.045,0.239l-0.107-0.025
		l0.045-0.244L164.711,86.769z M164.677,90.37c0-0.008,0.019-0.023,0.03-0.025c0.011-0.001,0.025,0.01,0.051,0.023v0.232
		c-0.024,0.004-0.047,0.008-0.071,0.01C164.684,90.53,164.678,90.45,164.677,90.37L164.677,90.37z M164.711,91.554V91.28
		l0.065-0.008l0.047,0.281C164.785,91.554,164.748,91.554,164.711,91.554L164.711,91.554z M214.573,109.759
		c-0.38-1.709-0.732-3.425-1.055-5.146c-0.369-1.969-0.877-3.898-1.475-5.809c-0.699-2.235-1.395-4.473-2.062-6.717
		c-0.396-1.33-0.752-2.672-1.097-4.014c-0.33-1.289-0.619-2.588-0.934-3.881c-0.143-0.591-0.305-1.177-0.451-1.767
		c-0.087-0.35-0.193-0.7-0.228-1.055c-0.071-0.73-0.362-1.429-0.304-2.178c0.008-0.085-0.068-0.175-0.092-0.266
		c-0.172-0.64-0.379-1.274-0.504-1.923c-0.24-1.231-0.414-2.476-0.651-3.708c-0.253-1.308-0.506-2.618-0.84-3.906
		c-0.319-1.233-0.706-2.452-1.14-3.65c-0.145-0.404-0.344-0.752-0.178-1.066c-0.094-0.329-0.197-0.554-0.214-0.786
		c-0.03-0.416-0.163-0.73-0.563-0.913c-0.189-0.086-0.352-0.226-0.521-0.347c-0.045-0.031-0.072-0.085-0.118-0.142l0.104-0.425
		c-0.578,0.043-0.42,0.734-0.857,0.927l-0.389-0.427c-0.071,0.079-0.133,0.147-0.193,0.216c-0.344,0.389-0.334,0.354-0.852,0.221
		c-0.428-0.108-0.859-0.211-1.31,0.055c-0.292,0.173-0.672,0.2-1.066,0.306c-0.001,0.005-0.052,0.071-0.062,0.141
		c-0.037,0.274-0.069,0.55-0.09,0.826c-0.004,0.068,0.033,0.15,0.075,0.209c0.149,0.214,0.108,0.41,0.013,0.643
		c-0.224,0.539-0.214,1.076,0.125,1.581c0.396,0.591,0.504,1.216,0.209,1.886c-0.039,0.087-0.07,0.177-0.098,0.269
		c-0.4,1.33-0.83,2.652-1.188,3.994c-0.295,1.101-0.521,2.22-0.742,3.338c-0.273,1.383-0.524,2.77-0.754,4.16
		c-0.143,0.864-0.219,1.739-0.341,2.605c-0.141,1-0.312,1.995-0.449,2.995c-0.232,1.697-0.411,3.404-0.681,5.095
		c-0.393,2.481-0.846,4.952-1.271,7.429c-0.468,2.726-0.705,5.479-0.939,8.229c-0.066,0.769-0.336,1.53-0.122,2.315
		c0.004,0.017-0.005,0.037-0.005,0.057c0.016,0.777,0.006,1.558,0.052,2.334c0.04,0.66,0.354,1.238,0.694,1.791
		c0.055,0.09,0.169,0.144,0.287,0.239c0.287-0.188,0.462-0.396,0.376-0.69c-0.209-0.715,0.026-1.351,0.306-1.985
		c0.525-1.188,0.881-2.434,1.154-3.7c0.32-1.486,0.579-2.984,0.74-4.504c0.135-1.261,0.447-2.504,0.659-3.759
		c0.392-2.308,0.767-4.62,1.148-6.929c0.192-1.165,0.417-2.324,0.571-3.494c0.027-0.206,0.049-0.414,0.074-0.62l5.355-1.575
		c0.647-0.189,1.312-0.383,1.967-0.413c0.32,1.29,0.643,2.581,0.982,3.864c0.402,1.521,0.87,3.023,1.23,4.555
		c0.285,1.218,0.623,2.425,0.939,3.635c0.201,0.77,0.424,1.531,0.605,2.305c0.28,1.186,0.537,2.379,0.797,3.568
		c0.225,1.023,0.458,2.045,0.654,3.072c0.18,0.933,0.254,1.888,0.482,2.807c0.393,1.567,0.848,3.121,1.319,4.666
		c0.124,0.403,0.248,0.843,0.624,1.133c0.445,0.346,0.808,0.26,1.029-0.259c0.059-0.137,0.131-0.271,0.22-0.392
		c0.397-0.529,0.809-1.05,1.205-1.582c0.251-0.338,0.288-0.723,0.257-1.141C214.934,111.274,214.745,110.521,214.573,109.759
		L214.573,109.759z M200.962,68.976c0.378,0.743,1.691,6.986,2.096,9.913c0.018,0.122-0.012,0.252-0.02,0.373
		c-0.83,0.077-1.639,0.078-2.41,0.243c-0.764,0.165-1.495,0.496-2.33,0.785c0.458-3.921,1.43-7.626,2.666-11.313H200.962z
		 M197.844,83.39c0.041-0.359,0.137-0.448,0.497-0.482c0.146-0.014,0.297-0.044,0.436-0.091c0.342-0.115,0.676-0.257,1.021-0.367
		c1.087-0.348,2.177-0.686,3.266-1.023c0.141-0.044,0.288-0.065,0.48-0.108c0.069,0.208,0.144,0.378,0.184,0.557
		c0.056,0.242,0.106,0.485,0.159,0.727c-0.725,0.189-1.411,0.495-2.145,0.676c-0.637,0.157-1.352,0.102-1.979,0.295
		c-0.422,0.129-0.982,0.037-1.399,0.183c-0.212,0.075-0.407,0.183-0.595,0.301C197.794,83.835,197.817,83.613,197.844,83.39
		L197.844,83.39z M202.405,85.28l-2.203,0.439l-2.734,0.961c0.051-0.434,0.105-0.864,0.152-1.296
		c2.091-0.826,4.266-1.44,6.479-1.828c0.038,0.163,0.073,0.328,0.112,0.491l0.197,0.795
		C203.704,84.903,203.024,85.099,202.405,85.28L202.405,85.28z M108.515,106.938c-0.393,0.215-0.728,0.479-0.269,1.211
		c1.247,0.845,1.369-0.342,1.439-0.662C109.359,107.024,109.096,106.621,108.515,106.938z M110.591,104.023
		c-0.125-0.431-0.311-0.815-1.125-0.527c-0.64,0.603-0.52,0.983-0.252,1.222c0.339,0.301,0.877,0.295,1.219-0.004
		C110.607,104.563,110.687,104.357,110.591,104.023z M111.707,96.815c0.338,0.301,0.876,0.293,1.219-0.004
		c0.173-0.151,0.252-0.357,0.157-0.692c-0.124-0.43-0.31-0.815-1.125-0.527C111.319,96.196,111.438,96.575,111.707,96.815
		L111.707,96.815z M115.746,83.663c0.339,0.301,0.877,0.294,1.219-0.004c0.173-0.151,0.253-0.357,0.156-0.692
		c-0.124-0.43-0.31-0.815-1.124-0.527C115.359,83.043,115.477,83.423,115.746,83.663L115.746,83.663z M120.329,71.61
		c-0.638,0.604-0.52,0.983-0.25,1.222c0.338,0.3,0.876,0.293,1.218-0.004c0.174-0.151,0.253-0.357,0.157-0.692
		C121.331,71.707,121.144,71.321,120.329,71.61L120.329,71.61z M117.887,77.146c-0.639,0.604-0.52,0.983-0.251,1.223
		c0.339,0.301,0.877,0.294,1.219-0.004c0.173-0.151,0.253-0.357,0.157-0.692C118.888,77.244,118.702,76.857,117.887,77.146z
		 M112.654,94.257c0.338,0.302,0.493,0.357,0.834,0.061c0.173-0.151,0.638-0.42,0.541-0.754c-0.124-0.432-0.309-0.816-1.125-0.529
		C112.266,93.639,112.385,94.019,112.654,94.257L112.654,94.257z M116.674,80.854c0.338,0.302,0.492,0.358,0.833,0.061
		c0.174-0.151,0.638-0.42,0.541-0.755c-0.124-0.431-0.309-0.816-1.124-0.527C116.285,80.236,116.404,80.616,116.674,80.854
		L116.674,80.854z M122.459,70.331c0.174-0.151,0.638-0.419,0.541-0.755c-0.123-0.43-0.309-0.815-1.124-0.526
		c-0.639,0.604-0.52,0.983-0.251,1.222C121.963,70.572,122.117,70.629,122.459,70.331L122.459,70.331z M114.03,88.436
		c0.134,0.433,0.237,0.561,0.683,0.481c0.227-0.039,0.582-0.351,0.673-0.688c0.116-0.432,0.336-0.538-0.511-0.71
		C114.016,87.706,113.922,88.093,114.03,88.436L114.03,88.436z M111.115,101.963c0.523-0.218,0.847-0.028,0.663-0.665
		c-0.124-0.431-0.309-0.815-1.125-0.526C109.559,101.806,110.818,101.825,111.115,101.963L111.115,101.963z M111.89,99.636
		c0.388-0.225,0.716-0.499,0.237-1.22c-1.27-0.809-0.983,0.417-1.044,0.738C111.422,99.608,111.318,99.968,111.89,99.636
		L111.89,99.636z M114.046,92.11c0.388-0.225,0.716-0.498,0.237-1.219c-1.27-0.809-0.983,0.417-1.043,0.738
		C113.578,92.083,113.473,92.442,114.046,92.11L114.046,92.11z M115.026,85.248c-0.079,0.109-0.119,0.243-0.113,0.377
		c0.02,0.449-0.023,0.743,0.555,0.747c0.447,0.004,0.87-0.066,0.823-0.929C115.72,84.319,115.281,84.888,115.026,85.248
		L115.026,85.248z M118.826,74.935c-0.078,0.11-0.119,0.243-0.113,0.378c0.02,0.449-0.023,0.743,0.555,0.747
		c0.447,0.003,0.87-0.066,0.823-0.929C119.521,74.006,119.081,74.574,118.826,74.935L118.826,74.935z M187.37,110.935
		c-0.021-0.025-0.062-0.033-0.096-0.039c-0.449-0.098-0.898-0.215-1.351-0.285c-0.566-0.09-1.138-0.143-1.706-0.203
		c-0.096-0.01-0.197,0.022-0.293,0.047c-0.074,0.018-0.145,0.055-0.219,0.083c-0.121,0.05-0.242,0.102-0.4,0.165
		c-0.058-0.121-0.174-0.188-0.354-0.124c-0.121,0.041-0.268-0.021-0.4-0.009c-0.139,0.01-0.291,0.015-0.415,0.082
		c-0.226,0.123-0.452,0.102-0.687,0.051c-0.075-0.015-0.148-0.037-0.232-0.059l-0.107,0.305c-0.137-0.323-0.35-0.316-0.564-0.316
		c-0.256,0-0.516,0.008-0.771-0.023c-0.49-0.062-0.98-0.186-1.471-0.217c-0.646-0.044-1.297-0.048-1.942-0.023
		c-0.366,0.013-0.723,0.131-1.087,0.172c-0.375,0.043-0.756,0.04-1.132,0.074c-0.467,0.045-0.933,0.106-1.399,0.158
		c-0.21,0.023-0.37,0.119-0.489,0.345c-0.202,0.378-0.469,0.683-0.82,0.874c-0.086,0.047-0.16,0.122-0.258,0.199
		c0.134,0.07,0.237,0.125,0.382,0.203c-0.367,0.217-0.78,0.157-1.085,0.486c0.176,0.078,0.311,0.149,0.45,0.193
		c0.503,0.164,0.856,0.29,1.379,0.402c0.094,0.021,0.181,0.11,0.266,0.178c0.31,0.242,0.627,0.432,1.008,0.398
		c0.165-0.017,0.335,0.017,0.503,0.022c0.358,0.013,0.719,0.049,1.075,0.03c0.597-0.031,1.22,0.148,1.824,0.202
		c0.031,0.003,0.063-0.022,0.097-0.028c0.357-0.074,0.714-0.18,1.076-0.211c0.409-0.036,0.826,0.015,1.238-0.01
		c0.564-0.036,1.145,0.158,1.698-0.066c0.036-0.015,0.086,0.018,0.13,0.02c0.146,0.007,0.289,0.01,0.434,0.016
		c0.135,0.006,0.277-0.027,0.4,0.023c0.327,0.135,0.654,0.107,0.963,0.032c0.725-0.181,1.464-0.141,2.199-0.175
		c0.276-0.012,1.426,0.107,1.52-0.07c0.127-0.239,0.374-0.061,0.565-0.08c0.321-0.031,0.53-0.275,0.522-0.666
		c-0.004-0.133-0.037-0.268-0.036-0.4c0.002-0.115,0-0.266,0.057-0.335c0.173-0.218,0.182-0.468,0.054-0.694
		C187.748,111.397,187.549,111.173,187.37,110.935L187.37,110.935z M178.86,113.642c0-0.041,0-0.08,0.002-0.121l0.184,0.03
		c0,0.03,0,0.06,0,0.09C178.985,113.641,178.923,113.641,178.86,113.642L178.86,113.642z M181.745,110.983l-0.062-0.067
		c0.016-0.015,0.033-0.044,0.043-0.041c0.025,0.011,0.049,0.037,0.071,0.056L181.745,110.983L181.745,110.983z M243.438,105.786
		c-0.074-0.712-0.241-1.408-0.476-2.096c-0.399-1.166-0.782-2.334-1.2-3.496c-0.286-0.797-0.572-1.594-0.719-2.418
		c-0.064-0.363-0.156-0.725-0.234-1.086c-0.113-0.523-0.237-1.046-0.336-1.57c-0.154-0.819-0.28-1.641-0.438-2.459
		c-0.191-0.982-0.386-1.965-0.611-2.942c-0.188-0.813-0.432-1.618-0.642-2.429c-0.134-0.52-0.258-1.041-0.375-1.564
		c-0.102-0.452-0.18-0.908-0.275-1.362c-0.088-0.416-0.195-0.828-0.275-1.245c-0.168-0.889-0.293-1.784-0.494-2.668
		c-0.207-0.907-0.467-1.807-0.734-2.704c-0.313-1.037-0.655-2.068-0.999-3.099c-0.218-0.653-0.403-1.293-0.296-1.991
		c0.057-0.378-0.09-0.758-0.537-1.075c-0.463-0.33-0.984-0.531-1.497-0.763c-0.142-0.064-0.338-0.086-0.436,0.039
		c-0.191,0.246-0.497,0.348-0.78,0.483c-0.312,0.149-0.419,0.412-0.285,0.699c0.158,0.341,0.229,0.684,0.115,1.042
		c-0.029,0.091-0.035,0.188-0.049,0.282c-0.056,0.385-0.074,0.778-0.176,1.155c-0.104,0.39-0.263,0.769-0.234,1.175
		c0.004,0.046-0.008,0.096-0.028,0.139c-0.353,0.771-0.405,1.59-0.554,2.393c-0.066,0.362-0.057,0.732-0.107,1.096
		c-0.125,0.903-0.268,1.805-0.395,2.707c-0.064,0.466-0.113,0.933-0.196,1.399c-0.137,0.776-0.306,1.552-0.302,2.344
		c0,0.043-0.039,0.087-0.055,0.132c-0.037,0.113-0.082,0.223-0.105,0.339c-0.07,0.332-0.131,0.666-0.197,1
		c-0.115,0.582-0.277,1.16-0.335,1.745c-0.056,0.573-0.069,1.146-0.269,1.7c-0.008,0.021-0.006,0.047-0.01,0.07
		c-0.061,0.363-0.114,0.727-0.184,1.088c-0.086,0.434-0.157,0.863-0.108,1.308c0.026,0.235,0.077,0.487-0.146,0.698
		c-0.049,0.045-0.044,0.136-0.052,0.205c-0.029,0.292-0.062,0.585-0.078,0.879c-0.041,0.846-0.084,1.691-0.112,2.539
		c-0.021,0.604-0.024,1.207-0.03,1.812c-0.006,1.006-0.026,2.013-0.004,3.019c0.021,0.781,0.139,1.562,0.145,2.343
		c0.006,0.829-0.074,1.659-0.101,2.487c-0.012,0.377,0.015,0.756,0.028,1.135c0.006,0.154,0.094,0.27,0.273,0.326
		c0.793-0.201,1.172-0.709,1.376-1.305c0.218-0.636,0.427-1.283,0.52-1.937c0.206-1.446,0.349-2.898,0.495-4.351
		c0.104-1.014,0.173-2.031,0.258-3.047c0.017-0.2,0.031-0.4,0.047-0.615l-0.24,0.049c0.002-0.086-0.006-0.168,0.006-0.246
		c0.143-0.939,0.28-1.879,0.436-2.816c0.091-0.55,0.197-1.1,0.323-1.645c0.071-0.309,0.134-0.322,0.507-0.254
		c0.717,0.133,1.406,0.365,2.154,0.373c0.346,0.004,0.694,0.026,1.034,0.079c0.562,0.086,1.118,0.075,1.681,0.024
		c0.329-0.029,0.367-0.014,0.423,0.266c0.089,0.445,0.156,0.891,0.235,1.337c0.201,1.126,0.461,2.247,0.582,3.378
		c0.07,0.666,0.333,1.291,0.473,1.938c0.203,0.947,0.613,1.866,0.919,2.801c0.386,1.181,0.747,2.363,1.138,3.542
		c0.09,0.271,0.252,0.528,0.379,0.791c0.117,0.242,0.253,0.479,0.341,0.725c0.071,0.203,0.083,0.419,0.124,0.651
		c0.356,0.052,0.387,0.062,0.508-0.036c0.213-0.174,0.465-0.338,0.604-0.548c0.401-0.608,0.658-1.253,0.585-1.968L243.438,105.786z
		 M231.887,87.954c-0.008,0.004-0.067-0.053-0.061-0.065c0.021-0.033,0.061-0.06,0.1-0.082c0.006-0.004,0.049,0.037,0.094,0.071
		C231.967,87.911,231.93,87.939,231.887,87.954L231.887,87.954z M233.27,79.577c0.027-0.001,0.057,0.039,0.1,0.072
		c-0.045,0.027-0.079,0.065-0.104,0.061c-0.031-0.005-0.075-0.045-0.074-0.069C233.192,79.617,233.241,79.579,233.27,79.577
		L233.27,79.577z M233.143,80.972c0.041-0.003,0.088,0.035,0.172,0.073c-0.079,0.044-0.129,0.092-0.157,0.084
		c-0.054-0.013-0.095-0.059-0.141-0.091C233.058,81.014,233.099,80.973,233.143,80.972L233.143,80.972z M233.002,82.29
		c0.06,0.24-0.041,0.306-0.174,0.354l-0.111-0.077L233.002,82.29L233.002,82.29z M232.914,83.662
		c-0.022,0.024-0.043,0.049-0.073,0.083l-0.094-0.062c0.033-0.017,0.063-0.041,0.1-0.049
		C232.864,83.628,232.891,83.65,232.914,83.662L232.914,83.662z M232.46,87.622c0.031,0.004,0.062,0.01,0.094,0.014l-0.096,0.449
		l-0.098-0.016L232.46,87.622L232.46,87.622z M237.262,91.631c-1.736-0.428-3.438-0.583-5.173-0.763
		c0.047-0.194,0.093-0.378,0.136-0.561c0.043-0.188,0.092-0.373-0.138-0.51c0.276-0.185,0.276-0.185,0.083-0.377
		c0.049-0.061,0.146-0.126,0.146-0.192c0-0.384,0.256-0.705,0.357-1.063c0.104-0.368,0.203-0.738,0.276-1.111
		c0.063-0.32,0.085-0.644,0.13-0.965c0.008-0.058,0.047-0.11,0.068-0.166c0.039-0.102,0.115-0.206,0.105-0.305
		c-0.049-0.563,0.252-1.082,0.289-1.633c0.01-0.127,0.006-0.255,0.008-0.421l-0.344,0.099c-0.009-0.047-0.033-0.086-0.019-0.11
		c0.04-0.075,0.075-0.182,0.149-0.207c0.422-0.145,0.382-0.46,0.373-0.728c-0.008-0.226-0.008-0.445,0.092-0.65
		c0.105-0.221,0.039-0.419-0.068-0.616c-0.103-0.185-0.146-0.335,0.148-0.426c0.146-0.045,0.132-0.159,0.127-0.272
		c-0.006-0.163-0.016-0.337,0.044-0.487c0.062-0.15,0.136-0.269,0.021-0.429c-0.033-0.047,0.068-0.158,0.105-0.24
		c0.037-0.083,0.113-0.171,0.104-0.252c-0.028-0.219-0.094-0.435-0.152-0.682c0.13-0.035,0.244-0.066,0.373-0.103
		c0.047,0.074,0.094,0.122,0.105,0.176c0.117,0.513,0.24,1.025,0.336,1.542c0.306,1.641,0.562,3.288,0.912,4.923
		c0.23,1.079,0.598,2.137,0.886,3.208c0.096,0.356,0.134,0.725,0.198,1.088c0.109,0.609,0.222,1.218,0.324,1.83
		c0.02,0.109,0,0.225-0.004,0.401V91.631z M231.762,65.825c1.202,1.069,3.118,1.044,4.332-0.013
		c0.615-0.537,0.898-1.267,0.556-2.459c-0.439-1.528-1.1-2.899-3.993-1.872C230.385,63.625,230.805,64.975,231.762,65.825
		L231.762,65.825z M153.86,73.137c0.011,0.031,0.024,0.057,0.036,0.087c0.131-0.068,0.266-0.131,0.404-0.188
		c0.007-0.004,0.016-0.005,0.025-0.008c-0.04-0.095-0.082-0.189-0.119-0.285c-0.121-0.303-0.236-0.609-0.361-0.936V71.78
		c-0.137,0.077-0.263,0.18-0.394,0.267l0.25,0.753C153.76,72.923,153.84,73.07,153.86,73.137L153.86,73.137z M161.299,90.024
		l0.092,0.188c-0.019-0.056-0.046-0.125-0.074-0.199L161.299,90.024z M160.697,88.463l-0.172-0.423
		c-0.048,0.031-0.098,0.06-0.151,0.084c-0.108,0.051-0.222,0.086-0.337,0.12l0.209,0.493c0.053,0.055,0.098,0.205,0.146,0.334
		c0.02,0.051,0.045,0.107,0.067,0.152c0.005,0.011,0.009,0.023,0.014,0.033c0.125-0.113,0.227-0.291,0.39-0.273
		c-0.094-0.234-0.191-0.482-0.257-0.663l0.196,0.421C160.746,88.591,160.723,88.525,160.697,88.463L160.697,88.463z M151.863,68.166
		l0.009,0.019c0.081,0.182,0.159,0.384,0.238,0.578l0.006-0.065c0.079,0.156,0.096,0.257,0.128,0.368
		c0.138-0.051,0.278-0.096,0.42-0.136l-0.392-0.958l0.008-0.013l0.329,0.769c0.002-0.006,0.004-0.014,0.005-0.021
		c-0.051-0.129-0.103-0.26-0.155-0.39l-0.184-0.447c-0.054,0.062-0.106,0.125-0.166,0.18c-0.05,0.076-0.147,0.106-0.237,0.115
		C151.869,68.166,151.865,68.165,151.863,68.166L151.863,68.166z M160.91,89.024c0,0.002,0.001,0.002,0.002,0.002l-0.012-0.028
		L160.91,89.024L160.91,89.024z M151.291,66.733c0.051,0.157,0.022,0.183,0.113,0.37c0.039,0.081,0.07,0.104,0.108,0.159
		l0.073,0.193l0.027,0.041c0.132-0.087,0.28-0.146,0.435-0.183l-0.209-0.509c-0.338-0.825-0.742-0.45-0.648-0.225
		C151.229,66.637,151.26,66.685,151.291,66.733L151.291,66.733z M157.197,81.327c0.043,0.009,0.124,0.167,0.203,0.392
		c0.078,0.219-0.042-0.007-0.023,0.104c0.055,0.135,0.118,0.3,0.178,0.433c0.03,0.065,0.054,0.134,0.083,0.2l0.518-0.145
		c-0.014-0.051-0.042-0.113-0.107-0.254c0.001,0.021,0.002,0.042,0.001,0.06c0,0.003-0.008-0.014-0.02-0.032l-0.281-0.704
		c0.002-0.003,0.004-0.006,0.006-0.009l0.188,0.431c-0.042-0.125-0.085-0.242-0.132-0.356c-0.076-0.188-0.155-0.411-0.228-0.543
		l-0.029,0.019c-0.131,0.083-0.28,0.139-0.433,0.169C157.146,81.165,157.168,81.239,157.197,81.327L157.197,81.327z M159.221,86.159
		c0.01,0.139,0.125,0.404,0.196,0.609c0.06-0.07,0.137-0.129,0.222-0.167c0.083-0.039,0.172-0.058,0.263-0.065
		c-0.096-0.232-0.192-0.466-0.288-0.695c-0.049-0.117-0.101-0.23-0.154-0.347c-0.039,0.037-0.079,0.073-0.125,0.101
		c-0.104,0.062-0.222,0.1-0.338,0.137c0.03,0.09,0.053,0.176,0.067,0.255C159.123,86.052,159.173,86.104,159.221,86.159
		L159.221,86.159z M158.26,83.833c-0.023,0.04-0.023,0.04,0.006,0.173c0.116,0.27,0.047-0.009,0.122,0.141
		c0.014,0.039,0.032,0.08,0.035,0.089c0.027,0.141,0.09,0.307,0.164,0.485c0.125-0.108,0.261-0.206,0.406-0.286
		c-0.052-0.122-0.103-0.242-0.153-0.36c-0.09-0.216-0.179-0.434-0.267-0.65c-0.11,0.018-0.22,0.061-0.328,0.093
		c-0.032,0.009-0.065,0.015-0.097,0.022C158.179,83.615,158.214,83.706,158.26,83.833L158.26,83.833z M161.008,90.202
		c-0.034,0.021-0.068,0.045-0.103,0.066c0.021,0.053,0.043,0.105,0.065,0.157c0.032,0.075,0.061,0.171,0.087,0.253
		c0.047,0.146,0.083,0.279,0.138,0.429c0.13,0.356,0.267,0.718,0.404,1.077c0,0,0.405-0.301,0.309-0.537
		c-0.102-0.251-0.118-0.475-0.216-0.593c-0.005-0.005-0.023-0.049-0.034-0.073c-0.121-0.309-0.251-0.621-0.368-0.953
		C161.198,90.087,161.103,90.144,161.008,90.202L161.008,90.202z M161.345,90.368l0.017,0.067c-0.01-0.019-0.024-0.042-0.027-0.057
		c-0.011-0.029-0.016-0.054-0.023-0.08L161.345,90.368L161.345,90.368z M152.529,69.824c0.023,0.054,0.042,0.104,0.067,0.161
		l-0.006-0.13c0.037,0.094,0.079,0.188,0.085,0.216c0.017,0.073,0.017,0.115,0.021,0.154c0.051,0.122,0.097,0.221,0.129,0.31
		c0.053,0.147,0.1,0.29,0.151,0.436c0.122-0.107,0.266-0.19,0.421-0.237l-0.385-0.941l-0.051-0.126l-0.109,0.051
		c-0.099,0.047-0.2,0.094-0.309,0.108C152.539,69.824,152.533,69.823,152.529,69.824L152.529,69.824z M154.568,74.906
		c0.034,0.082,0.078,0.188,0.103,0.263c0.002-0.003,0.005-0.005,0.008-0.007c0.135-0.09,0.301-0.158,0.458-0.137
		c-0.122-0.301-0.243-0.603-0.366-0.902l-0.384,0.235c0.008,0.025,0.016,0.046,0.015,0.052
		C154.4,74.508,154.482,74.7,154.568,74.906L154.568,74.906z M156.209,78.989c0.072,0.124,0.032-0.109,0.186,0.281
		c0,0.041-0.001,0.082-0.001,0.113l0.201,0.58c0.007,0.007,0.016,0.022,0.023,0.032l0.061-0.023l-0.002-0.011l0.004,0.009
		l0.363-0.145c0.03-0.012,0.061-0.022,0.091-0.033c-0.059-0.132-0.127-0.295-0.141-0.306c-0.062-0.052-0.117-0.231-0.192-0.413
		l0.084,0.127l-0.178-0.447c-0.166,0.083-0.336,0.156-0.512,0.201C156.199,78.965,156.205,78.977,156.209,78.989z M155.333,76.71
		l-0.199-0.502c-0.015,0.007-0.03,0.012-0.043,0.02c0.019,0.054,0.038,0.109,0.044,0.151c0.069,0.181,0.154,0.271,0.181,0.44
		c0.053,0.095,0.097,0.173,0.133,0.241c0.005-0.026,0.01-0.048,0.013-0.064c0.174,0.356,0.2,0.547,0.285,0.818l0.064,0.006
		c0.019,0.063,0.033,0.113,0.048,0.167l0.048-0.022c0.122-0.055,0.247-0.103,0.375-0.139c-0.046-0.112-0.092-0.226-0.138-0.337
		c-0.191-0.465-0.389-0.928-0.573-1.395c-0.096,0.031-0.199,0.03-0.296,0.056c-0.049,0.012-0.093,0.037-0.137,0.059
		C155.213,76.369,155.284,76.535,155.333,76.71z M192.309,73.177c0.27-0.661,0.533-1.327,0.729-2.015
		c0.062-0.214,0.115-0.432,0.157-0.645c0.077-0.396,0.144-0.791,0.216-1.186c0.047-0.26,0.096-0.521,0.143-0.78
		c0.045-0.262,0.017-0.308-0.143-0.253c-0.178,0.062-0.334,0.056-0.432-0.12c-0.069-0.123-0.188-0.106-0.303-0.086
		c-0.076,0.014-0.156,0.098-0.221,0.221l-0.25,0.466c-0.08,0.149-0.133,0.304-0.137,0.461c-0.002,0.077-0.008,0.125-0.055,0.213
		c-0.051,0.1-0.068,0.234-0.106,0.352l-0.017,0.044c-0.025,0.318-0.044,0.634-0.082,0.955c-0.119,1.016-0.416,2.036-0.804,3.045
		l0.026,0.012c-0.02,0.061-0.036,0.124-0.061,0.185c-0.338,0.819-0.686,1.635-1.018,2.458c-0.203,0.506-0.384,1.025-0.574,1.538
		c-0.176,0.472-0.351,0.944-0.523,1.417c-0.219,0.593-0.434,1.188-0.656,1.778c-0.21,0.559-0.432,1.113-0.649,1.671
		c-0.152,0.394-0.313,0.786-0.45,1.185c-0.098,0.288-0.201,0.571-0.321,0.847c-0.015,0.034-0.019,0.076-0.028,0.114
		c-0.031,0.102-0.056,0.205-0.094,0.301c-0.071,0.178-0.155,0.35-0.229,0.525c-0.168,0.412-0.325,0.831-0.5,1.238
		c-0.281,0.65-0.572,1.295-0.856,1.943c-0.251,0.574-0.496,1.152-0.745,1.727c-0.145,0.332-0.301,0.658-0.439,0.994
		c-0.265,0.633-0.562,1.247-0.793,1.9c-0.057,0.162-0.134,0.318-0.199,0.48c-0.169,0.418-0.338,0.836-0.506,1.255
		c-0.184,0.46-0.373,0.919-0.539,1.384c-0.101,0.286-0.226,0.561-0.314,0.846c-0.055,0.174-0.146,0.305-0.2,0.469
		c-0.067,0.204-0.144,0.404-0.216,0.607c-0.016,0.046-0.022,0.102-0.043,0.138c-0.115,0.189-0.18,0.407-0.256,0.616
		c-0.062,0.17-0.122,0.343-0.188,0.529c0.031,0.007,0.057,0.012,0.088,0.018c-0.014,0.033-0.021,0.067-0.031,0.074
		c-0.119,0.089-0.181,0.238-0.23,0.418c-0.039,0.143-0.102,0.283-0.138,0.426c-0.095,0.371-0.239,0.734-0.338,1.105
		c-0.011-0.059-0.019-0.118-0.03-0.179c-0.039-0.214-0.088-0.432-0.146-0.647c-0.187-0.691-0.438-1.36-0.696-2.025
		c-0.228-0.58-0.469-1.152-0.691-1.733c-0.298-0.774-0.593-1.552-0.872-2.335c-0.308-0.86-0.597-1.73-0.896-2.595
		c-0.088-0.259-0.188-0.515-0.279-0.772c-0.152-0.429-0.302-0.856-0.456-1.283c-0.067-0.188-0.146-0.369-0.214-0.557
		c-0.139-0.381-0.273-0.764-0.411-1.145c-0.013-0.035-0.035-0.077-0.058-0.102c-0.059-0.065-0.072-0.148-0.1-0.238
		c-0.055-0.188-0.1-0.418-0.188-0.551c-0.115-0.172-0.154-0.319-0.186-0.505c-0.016-0.093-0.051-0.19-0.085-0.284
		c-0.083-0.232-0.169-0.465-0.257-0.694c-0.234-0.595-0.466-1.189-0.708-1.778c-0.087-0.214-0.185-0.419-0.265-0.642
		c-0.157-0.426-0.339-0.842-0.51-1.262c-0.03-0.074-0.049-0.152-0.117-0.161c-0.059-0.007-0.085-0.101-0.062-0.156
		c0.027-0.07,0.009-0.145-0.033-0.212c-0.09-0.143-0.146-0.333-0.259-0.445c-0.062-0.062-0.095-0.147-0.061-0.22
		c0.026-0.057,0.015-0.127-0.022-0.191c-0.091-0.153-0.111-0.377-0.243-0.49c-0.013-0.011-0.031-0.065-0.03-0.086
		c0.006-0.127-0.067-0.183-0.113-0.24c-0.012-0.079-0.01-0.148-0.031-0.202c-0.099-0.239-0.165-0.5-0.312-0.711
		c-0.054-0.08-0.1-0.206-0.128-0.314c-0.042-0.158-0.145-0.308-0.133-0.473c0.001-0.01-0.008-0.031-0.015-0.047
		c-0.055-0.134-0.11-0.269-0.163-0.404c-0.051-0.128-0.096-0.253-0.163-0.379c-0.075-0.142-0.146-0.329-0.17-0.483
		c-0.028-0.178-0.074-0.286-0.179-0.357l-0.014-0.194c-0.085-0.196-0.154-0.352-0.22-0.508c-0.042-0.098-0.102-0.205-0.116-0.297
		c-0.029-0.2-0.099-0.335-0.21-0.453c-0.065-0.069-0.087-0.145-0.041-0.208c0.011-0.014,0.011-0.047,0.017-0.085
		c-0.145-0.143-0.144-0.442-0.3-0.571c0.016-0.167-0.088-0.295-0.149-0.432c-0.067-0.15-0.137-0.29-0.146-0.456
		c-0.005-0.103-0.031-0.204-0.101-0.289c-0.021-0.025-0.042-0.065-0.055-0.101c-0.067-0.2-0.11-0.408-0.204-0.598
		c-0.01-0.02-0.021-0.057-0.017-0.068c0.033-0.099-0.03-0.2-0.065-0.304c-0.022-0.066-0.035-0.136-0.047-0.204
		c-0.039-0.209-0.054-0.422-0.207-0.589c-0.025-0.027-0.054-0.11-0.055-0.151c-0.002-0.183-0.043-0.357-0.139-0.53
		c-0.004-0.007-0.005-0.016-0.008-0.023c-0.162-0.479-0.333-0.955-0.482-1.436c-0.096-0.309-0.219-0.646-0.102-0.874
		c-0.093-0.327-0.202-0.627-0.352-0.943l-0.018,0.186l-0.136-0.22c0.023,0.156,0.114,0.288,0.078,0.439l-0.148-0.358l0.05,0.302
		l-0.026,0.005l-0.281-0.482c0.017,0.15,0.073,0.326,0.058,0.478c-0.083-0.052-0.084-0.275-0.184-0.238l-0.02,0.268l-0.109-0.204
		c-0.005,0.155,0.004,0.297-0.019,0.403c-0.045,0.211,0.001,0.453,0.059,0.701c0.059,0.262,0.14,0.527,0.184,0.786
		c0.08,0.46,0.268,0.901,0.375,1.354c0.034,0.141,0.095,0.284,0.131,0.427c0.047,0.179,0.106,0.331,0.225,0.421
		c0.008,0.007,0.017,0.042,0.03,0.074l-0.088,0.016c0.063,0.188,0.121,0.36,0.18,0.532c0.073,0.211,0.133,0.43,0.245,0.621
		c0.021,0.035,0.025,0.091,0.042,0.138c0.068,0.204,0.141,0.406,0.206,0.61c0.053,0.165,0.141,0.298,0.193,0.473
		c0.084,0.285,0.206,0.562,0.302,0.849c0.158,0.468,0.342,0.929,0.518,1.393c0.16,0.421,0.323,0.842,0.486,1.263
		c0.062,0.162,0.137,0.318,0.192,0.482c0.221,0.657,0.508,1.275,0.763,1.913c0.134,0.337,0.284,0.665,0.424,1
		c0.241,0.579,0.477,1.16,0.719,1.737c0.272,0.654,0.556,1.302,0.825,1.957c0.169,0.41,0.32,0.832,0.482,1.245
		c0.07,0.179,0.151,0.351,0.221,0.529c0.037,0.097,0.061,0.201,0.088,0.303c0.012,0.039,0.014,0.079,0.027,0.114
		c0.117,0.277,0.215,0.562,0.309,0.852c0.131,0.401,0.287,0.796,0.434,1.191c0.207,0.562,0.421,1.119,0.623,1.682
		c0.214,0.595,0.418,1.191,0.627,1.787c0.167,0.477,0.334,0.951,0.502,1.426c0.183,0.516,0.355,1.036,0.551,1.545
		c0.319,0.829,0.653,1.65,0.979,2.475c0.024,0.06,0.039,0.124,0.059,0.186l-0.028,0.012c0.373,1.015,0.654,2.039,0.758,3.057
		c0.032,0.322,0.047,0.638,0.067,0.955l0.015,0.045c0.037,0.118,0.051,0.254,0.102,0.353c0.045,0.089,0.051,0.138,0.051,0.214
		c0.002,0.158,0.053,0.313,0.13,0.465c0.081,0.156,0.161,0.312,0.242,0.47c0.063,0.124,0.141,0.209,0.218,0.224
		c0.115,0.023,0.232,0.041,0.305-0.081c0.025-0.044,0.057-0.077,0.09-0.101l0.008,0.139c0.078,0.031,0.1-0.102,0.146-0.184
		c0.015-0.002,0.026-0.002,0.042-0.002c-0.001,0.141-0.046,0.293-0.064,0.428l0.234-0.389c0.023,0.008,0.045,0.014,0.062,0.015
		l-0.036,0.201l0.097-0.224c0.003-0.004,0.005-0.01,0.006-0.016l0.053-0.117c0.032,0.151-0.059,0.283-0.086,0.438l0.139-0.218
		c0.006,0.057,0.01,0.107,0.016,0.185c0.155-0.313,0.27-0.612,0.367-0.938c-0.113-0.229,0.014-0.562,0.115-0.871
		c0.156-0.479,0.334-0.953,0.504-1.43c0.002-0.007,0.004-0.016,0.008-0.022c0.098-0.173,0.143-0.345,0.146-0.528
		c0.002-0.041,0.033-0.123,0.058-0.15c0.156-0.164,0.175-0.377,0.216-0.584c0.014-0.068,0.027-0.139,0.051-0.204
		c0.037-0.104,0.1-0.203,0.069-0.303c-0.004-0.011,0.008-0.049,0.018-0.069c0.097-0.188,0.143-0.396,0.214-0.595
		c0.013-0.036,0.035-0.075,0.057-0.101c0.07-0.083,0.098-0.185,0.105-0.287c0.012-0.166,0.084-0.303,0.154-0.453
		c0.062-0.135,0.169-0.262,0.154-0.428c0.16-0.127,0.162-0.428,0.31-0.566c-0.006-0.039-0.006-0.072-0.015-0.087
		c-0.045-0.063-0.022-0.14,0.043-0.208c0.114-0.116,0.186-0.25,0.218-0.449c0.017-0.092,0.077-0.197,0.12-0.295
		c0.068-0.156,0.139-0.311,0.227-0.506l0.019-0.193c0.106-0.07,0.153-0.176,0.185-0.354c0.026-0.154,0.1-0.34,0.178-0.482
		c0.069-0.123,0.116-0.248,0.169-0.375c0.055-0.135,0.113-0.268,0.169-0.402c0.008-0.016,0.017-0.035,0.017-0.047
		c-0.009-0.164,0.095-0.312,0.14-0.47c0.029-0.106,0.076-0.233,0.133-0.312c0.148-0.208,0.22-0.469,0.322-0.705
		c0.023-0.055,0.021-0.123,0.035-0.203c0.047-0.056,0.121-0.111,0.115-0.238c0-0.021,0.02-0.074,0.032-0.086
		c0.133-0.109,0.155-0.334,0.251-0.486c0.038-0.062,0.049-0.133,0.023-0.189c-0.032-0.075,0.003-0.159,0.065-0.22
		c0.114-0.11,0.173-0.3,0.265-0.442c0.045-0.064,0.064-0.139,0.037-0.21c-0.021-0.057,0.008-0.149,0.064-0.155
		c0.068-0.008,0.09-0.086,0.121-0.158c0.177-0.418,0.364-0.832,0.527-1.256c0.086-0.22,0.185-0.424,0.276-0.636
		c0.251-0.585,0.491-1.177,0.735-1.767c0.094-0.228,0.182-0.458,0.268-0.69c0.035-0.093,0.074-0.191,0.091-0.284
		c0.034-0.185,0.075-0.332,0.191-0.501c0.091-0.133,0.14-0.362,0.198-0.549c0.025-0.089,0.04-0.173,0.103-0.237
		c0.022-0.024,0.045-0.064,0.058-0.101c0.145-0.379,0.285-0.759,0.43-1.138c0.07-0.187,0.152-0.368,0.224-0.554
		c0.159-0.424,0.315-0.851,0.474-1.275c0.097-0.257,0.2-0.511,0.293-0.768c0.312-0.86,0.613-1.726,0.934-2.582
		c0.293-0.778,0.599-1.55,0.908-2.321c0.23-0.577,0.48-1.146,0.715-1.721L192.309,73.177z M167.651,68.802
		c-0.021-0.026-0.045-0.048-0.061-0.08c-0.007-0.017,0-0.049,0.002-0.1c0.032,0.051,0.056,0.078,0.067,0.11
		C167.665,68.752,167.654,68.779,167.651,68.802L167.651,68.802z M167.817,69.344c-0.063-0.079-0.065-0.167-0.056-0.261l0.083,0.245
		C167.836,69.333,167.826,69.338,167.817,69.344L167.817,69.344z M167.895,71.799l-0.029-0.018l0-0.138l0.032,0.025L167.895,71.799
		L167.895,71.799z M168.07,69.715c0.014,0.022,0.031,0.042,0.04,0.067c0.004,0.014-0.003,0.048-0.011,0.046
		c-0.014-0.004-0.032-0.025-0.061-0.052C168.052,69.748,168.061,69.731,168.07,69.715L168.07,69.715z M168.085,72.468l-0.009-0.108
		l0.024,0.007c0.006,0.037,0.011,0.074,0.018,0.111L168.085,72.468L168.085,72.468z M168.162,72.84
		c-0.004-0.012-0.007-0.024-0.012-0.036c0.02-0.008,0.039-0.014,0.058-0.02l0.013,0.036L168.162,72.84L168.162,72.84z
		 M168.228,70.837c0.068,0.083,0.12,0.146,0.138,0.255c0.007,0.051-0.007,0.071-0.075,0.108
		C168.284,71.086,168.197,70.966,168.228,70.837L168.228,70.837z M168.365,73.242l-0.069-0.177l0.026-0.016
		c0.024,0.057,0.048,0.115,0.07,0.172C168.394,73.223,168.375,73.235,168.365,73.242L168.365,73.242z M168.413,70.964
		c-0.021-0.026-0.026-0.032-0.029-0.039c-0.034-0.074-0.071-0.151-0.033-0.206c0.006-0.008,0.03,0.002,0.039,0.017
		C168.442,70.822,168.446,70.894,168.413,70.964L168.413,70.964z M169.006,72.79l0.051,0.166c-0.019,0-0.032,0.003-0.036-0.002
		C168.989,72.893,168.989,72.892,169.006,72.79L169.006,72.79z M168.563,72.036c0.136,0.067,0.217,0.255,0.191,0.449L168.563,72.036
		L168.563,72.036z M168.815,74.545c-0.037-0.112-0.059-0.174-0.084-0.25C168.836,74.36,168.836,74.36,168.815,74.545L168.815,74.545
		z M168.773,73.168c0.026-0.124,0.042-0.218,0.068-0.298c0.008-0.023,0.049-0.021,0.07-0.001c0.023,0.021,0.051,0.082,0.058,0.12
		c0.008,0.051-0.002,0.099-0.004,0.155l0.104,0.082l-0.065,0.167C168.935,73.253,168.87,73.173,168.773,73.168L168.773,73.168z
		 M169.015,73.658c0.045-0.038,0.076-0.078,0.083-0.068c0.041,0.062,0.077,0.137,0.1,0.234
		C169.151,73.781,169.104,73.739,169.015,73.658L169.015,73.658z M169.2,75.439l0.077,0.208C169.2,75.554,169.2,75.554,169.2,75.439
		L169.2,75.439z M169.322,74.352c-0.022-0.027-0.041-0.043-0.051-0.066c-0.006-0.011,0.002-0.052,0.006-0.05
		c0.016,0.008,0.034,0.023,0.048,0.043C169.33,74.286,169.324,74.315,169.322,74.352L169.322,74.352z M169.92,75.394
		c-0.031-0.04-0.061-0.079-0.098-0.127C169.908,75.194,169.897,75.335,169.92,75.394L169.92,75.394z M169.908,77.389
		c0.111,0.24,0.214,0.487,0.299,0.78C170.106,78.053,169.939,77.621,169.908,77.389L169.908,77.389z M170.184,76.203
		c0.111,0.093,0.111,0.093,0.085,0.253C170.238,76.36,170.212,76.282,170.184,76.203L170.184,76.203z M170.288,78.48
		c-0.011-0.042-0.023-0.083-0.033-0.125c-0.001-0.003,0.021-0.005,0.031-0.007l0.037,0.128L170.288,78.48z M170.513,78.958
		l-0.039-0.092l0.029-0.006c0.009,0.026,0.02,0.053,0.025,0.079C170.531,78.945,170.518,78.951,170.513,78.958L170.513,78.958z
		 M170.627,79.325l-0.041-0.12c0.011-0.003,0.03-0.011,0.031-0.009c0.014,0.039,0.027,0.078,0.041,0.117L170.627,79.325
		L170.627,79.325z M170.962,78.387c-0.078-0.167-0.16-0.334-0.221-0.509c-0.057-0.162-0.09-0.334-0.135-0.501
		c0.01-0.005,0.02-0.009,0.03-0.014c0.059,0.166,0.117,0.331,0.176,0.497c0.058,0.167,0.124,0.334,0.168,0.503
		c0.046,0.174,0.185,0.294,0.194,0.512C171.049,78.731,171.033,78.537,170.962,78.387L170.962,78.387z M171.969,81.595l-0.024-0.048
		c0.007-0.004,0.013-0.016,0.019-0.013c0.007,0.003,0.015,0.023,0.021,0.036C171.979,81.577,171.974,81.586,171.969,81.595
		L171.969,81.595z M171.708,80.32c-0.086-0.214-0.174-0.427-0.256-0.642c-0.083-0.217-0.201-0.418-0.235-0.658
		c0.145,0.168,0.154,0.438,0.27,0.611c0.132,0.196,0.163,0.435,0.265,0.646c0.096,0.196,0.151,0.431,0.234,0.674
		C171.847,80.757,171.791,80.527,171.708,80.32L171.708,80.32z M172.132,83.028c-0.009-0.008-0.018-0.034-0.027-0.053
		c0.008-0.008,0.016-0.024,0.023-0.02c0.01,0.005,0.021,0.03,0.036,0.056C172.15,83.021,172.141,83.035,172.132,83.028
		L172.132,83.028z M172.424,82.126c-0.053-0.126-0.096-0.259-0.146-0.389c-0.06-0.16-0.124-0.32-0.185-0.479l0.025-0.012
		c0.157,0.367,0.314,0.732,0.486,1.132C172.501,82.336,172.462,82.222,172.424,82.126L172.424,82.126z M172.655,82.97
		c-0.003,0.003-0.032-0.031-0.032-0.04c-0.002-0.024,0.007-0.043,0.01-0.063c0.012,0.012,0.024,0.026,0.046,0.049
		C172.671,82.939,172.666,82.961,172.655,82.97L172.655,82.97z M172.924,83.25c-0.163-0.196-0.198-0.415-0.253-0.628
		c0.108,0.133,0.173,0.317,0.255,0.479C172.939,83.125,172.925,83.177,172.924,83.25L172.924,83.25z M173.155,83.865
		c-0.02-0.042-0.038-0.083-0.057-0.124l0.011-0.019c0.016,0.023,0.036,0.041,0.048,0.067c0.01,0.02,0.011,0.048,0.015,0.073
		L173.155,83.865L173.155,83.865z M173.594,84.887c-0.012,0.002-0.024,0.004-0.037,0.005c-0.016-0.06-0.031-0.119-0.059-0.224
		C173.584,84.758,173.608,84.815,173.594,84.887L173.594,84.887z M173.681,85.114c-0.019-0.029-0.036-0.049-0.04-0.066
		c-0.004-0.024,0.002-0.047,0.004-0.07c0.014,0.015,0.032,0.025,0.038,0.042C173.688,85.037,173.683,85.059,173.681,85.114
		L173.681,85.114z M173.717,85.016l-0.032-0.137c0.014,0.001,0.035,0.002,0.035,0.005c0.014,0.045,0.023,0.091,0.031,0.136
		C173.741,85.018,173.728,85.016,173.717,85.016L173.717,85.016z M173.889,87.294c-0.015-0.017-0.037-0.027-0.045-0.047
		c-0.008-0.018,0-0.045,0.002-0.067c0.017,0.015,0.031,0.032,0.049,0.051L173.889,87.294L173.889,87.294z M174.385,86.981
		c-0.016-0.043-0.031-0.087-0.047-0.13c-0.002-0.005,0-0.017,0.005-0.017c0.002-0.002,0.008,0.003,0.017,0.007l0.043,0.128
		L174.385,86.981z M174.567,87.495l-0.051-0.15l0.017-0.009l0.065,0.147C174.589,87.487,174.577,87.491,174.567,87.495
		L174.567,87.495z M180.389,103.461c-0.012,0.032-0.035,0.06-0.068,0.11c-0.002-0.051-0.01-0.084-0.001-0.102
		c0.015-0.031,0.04-0.053,0.062-0.078C180.384,103.415,180.395,103.442,180.389,103.461L180.389,103.461z M180.497,103.112
		c-0.008-0.092-0.006-0.182,0.06-0.258l0.026,0.015C180.554,102.95,180.526,103.031,180.497,103.112L180.497,103.112z
		 M180.641,100.554l0.002-0.137l0.029-0.019v0.132c-0.012,0.008-0.022,0.016-0.033,0.023H180.641z M181.165,98.965
		c0.009,0.007,0.027,0.019,0.027,0.021c-0.023,0.058-0.049,0.115-0.074,0.172l-0.025-0.017L181.165,98.965L181.165,98.965z
		 M180.815,102.485l-0.031-0.061c0.029-0.026,0.049-0.047,0.062-0.051c0.008-0.002,0.017,0.033,0.011,0.047
		C180.848,102.444,180.829,102.464,180.815,102.485L180.815,102.485z M180.885,99.835c-0.008,0.002-0.016,0.004-0.023,0.006
		c0.004-0.036,0.008-0.072,0.01-0.107l0.034-0.008C180.9,99.762,180.892,99.798,180.885,99.835L180.885,99.835z M180.956,99.362
		l0.059,0.02c-0.006,0.012-0.01,0.025-0.014,0.037c-0.02-0.008-0.039-0.014-0.058-0.021
		C180.948,99.386,180.952,99.374,180.956,99.362L180.956,99.362z M181.059,101.003c0.067,0.039,0.082,0.06,0.073,0.11
		c-0.019,0.108-0.073,0.173-0.142,0.253C180.962,101.237,181.051,101.12,181.059,101.003L181.059,101.003z M181.149,101.47
		c-0.007,0.014-0.033,0.025-0.039,0.017c-0.037-0.057,0.002-0.132,0.037-0.206c0.002-0.008,0.008-0.012,0.029-0.038
		c0.033,0.071,0.027,0.143-0.027,0.229V101.47z M181.343,100.173l0.201-0.445C181.565,99.922,181.481,100.109,181.343,100.173
		L181.343,100.173z M181.548,97.917l0.088-0.248C181.653,97.853,181.653,97.853,181.548,97.917z M181.799,99.426
		c-0.015-0.103-0.015-0.103,0.02-0.163c0.003-0.006,0.015,0,0.034-0.002C181.833,99.319,181.817,99.372,181.799,99.426
		L181.799,99.426z M181.763,99.073c0.001,0.057,0.011,0.104,0.002,0.154c-0.007,0.039-0.036,0.098-0.06,0.119
		c-0.021,0.02-0.062,0.02-0.07-0.002c-0.024-0.082-0.039-0.176-0.064-0.3c0.098-0.006,0.164-0.085,0.235-0.222
		c0.022,0.062,0.04,0.105,0.062,0.168l-0.104,0.08V99.073z M181.903,98.628c-0.007,0.008-0.037-0.031-0.082-0.069
		c0.09-0.08,0.139-0.122,0.186-0.165C181.981,98.491,181.945,98.564,181.903,98.628z M182.114,96.573l-0.08,0.207
		C182.036,96.667,182.036,96.667,182.114,96.573L182.114,96.573z M182.141,97.942c-0.014,0.02-0.033,0.035-0.049,0.042
		c-0.004,0.002-0.011-0.039-0.006-0.05c0.011-0.022,0.029-0.039,0.053-0.066C182.141,97.906,182.146,97.935,182.141,97.942
		L182.141,97.942z M182.655,96.962c0.037-0.047,0.067-0.086,0.098-0.125C182.729,96.896,182.739,97.037,182.655,96.962z
		 M182.773,94.842c0.034-0.229,0.206-0.661,0.312-0.776C182.995,94.358,182.887,94.604,182.773,94.842z M183.03,96.032l0.09-0.252
		C183.142,95.941,183.142,95.941,183.03,96.032z M183.167,93.889c-0.012-0.003-0.033-0.006-0.032-0.008
		c0.01-0.041,0.023-0.083,0.036-0.124l0.035,0.004C183.191,93.802,183.178,93.845,183.167,93.889L183.167,93.889z M183.519,92.918
		l0.032,0.012c-0.015,0.038-0.027,0.078-0.043,0.116c-0.002,0.002-0.02-0.006-0.03-0.01L183.519,92.918L183.519,92.918z
		 M183.389,93.382c-0.009-0.002-0.02-0.004-0.029-0.008l0.041-0.09c0.006,0.006,0.018,0.012,0.016,0.019
		C183.411,93.329,183.399,93.354,183.389,93.382L183.389,93.382z M183.859,93.887c-0.046,0.169-0.116,0.335-0.176,0.501
		c-0.061,0.164-0.122,0.328-0.185,0.493l-0.029-0.013c0.047-0.168,0.082-0.34,0.143-0.501c0.064-0.173,0.148-0.341,0.229-0.505
		c0.075-0.15,0.094-0.344,0.222-0.484C184.049,93.595,183.909,93.712,183.859,93.887L183.859,93.887z M185.083,89.237
		c0.01-0.007,0.02,0.009,0.033,0.018c-0.016,0.024-0.027,0.051-0.037,0.057c-0.009,0.004-0.016-0.013-0.024-0.021
		C185.064,89.272,185.073,89.245,185.083,89.237L185.083,89.237z M184.661,91.983c-0.105,0.209-0.141,0.447-0.276,0.642
		c-0.118,0.171-0.131,0.439-0.279,0.606c0.039-0.238,0.159-0.438,0.246-0.653c0.086-0.214,0.178-0.426,0.267-0.638
		c0.086-0.207,0.147-0.436,0.287-0.627C184.818,91.556,184.76,91.788,184.661,91.983L184.661,91.983z M184.891,90.729
		c-0.008,0.005-0.012-0.008-0.019-0.013c0.008-0.016,0.017-0.031,0.024-0.046c0.006,0.008,0.01,0.017,0.016,0.024
		c-0.008,0.014-0.014,0.032-0.02,0.035L184.891,90.729z M185.042,91.021l-0.024-0.012c0.065-0.158,0.13-0.318,0.193-0.478
		c0.051-0.128,0.097-0.261,0.151-0.388c0.041-0.095,0.081-0.207,0.184-0.246c-0.178,0.396-0.341,0.76-0.502,1.123H185.042z
		 M185.573,89.345c0-0.009,0.029-0.043,0.033-0.041c0.01,0.01,0.014,0.032,0.023,0.057c-0.023,0.022-0.035,0.034-0.047,0.047
		C185.578,89.388,185.571,89.37,185.573,89.345L185.573,89.345z M185.88,89.179c-0.086,0.159-0.154,0.342-0.264,0.475
		c0.058-0.213,0.098-0.432,0.263-0.625C185.879,89.102,185.891,89.154,185.88,89.179L185.88,89.179z M186.121,88.493
		c-0.013,0.025-0.032,0.045-0.051,0.065c-0.003-0.005-0.006-0.011-0.009-0.019c0.02-0.041,0.039-0.082,0.058-0.122l0.019,0.003
		C186.132,88.444,186.13,88.474,186.121,88.493L186.121,88.493z M186.475,87.62l0.062-0.223l0.039,0.006
		C186.588,87.475,186.561,87.532,186.475,87.62L186.475,87.62z M186.624,87.243c0.004-0.018,0.022-0.037,0.041-0.066
		c0.002,0.055,0.008,0.076,0,0.094c-0.006,0.017-0.024,0.027-0.039,0.041C186.626,87.29,186.62,87.267,186.624,87.243
		L186.624,87.243z M186.7,87.407c0,0.002-0.022,0.003-0.035,0.005c0.011-0.046,0.023-0.091,0.035-0.137l0.035-0.004
		C186.723,87.316,186.714,87.361,186.7,87.407L186.7,87.407z M186.864,85.113c-0.002-0.022-0.01-0.049-0.002-0.067
		c0.007-0.019,0.029-0.031,0.047-0.046l0.004,0.063L186.864,85.113L186.864,85.113z M187.372,85.459
		c-0.009,0.004-0.016,0.01-0.019,0.008c-0.004-0.002-0.006-0.013-0.004-0.018c0.016-0.043,0.032-0.086,0.049-0.129l0.019,0.011
		C187.401,85.375,187.385,85.419,187.372,85.459L187.372,85.459z M187.552,84.968c-0.006-0.004-0.012-0.006-0.018-0.01
		c0.019-0.049,0.035-0.099,0.053-0.149c0.011,0.004,0.021,0.008,0.031,0.011C187.596,84.87,187.573,84.919,187.552,84.968
		L187.552,84.968z M169.895,69.635c0.294,0.907,0.534,1.831,0.811,2.744c0.164,0.541,0.337,1.08,0.534,1.61
		c0.217,0.584,0.466,1.158,0.7,1.737c0.308,0.76,0.596,1.524,0.923,2.279c0.381,0.883,0.797,1.756,1.191,2.635
		c0.438,0.974,0.897,1.939,1.288,2.927c0.26,0.657,0.406,1.347,0.618,2.019c0.351,1.101,0.72,2.199,1.068,3.3
		c0.255,0.803,1.655,5.24,2.339,5.357c0.123,0,0.247,0.022,0.379,0.07c0.117,0.041,0.286,0.039,0.421,0.029
		c0.046-0.004,0.165-0.18,0.321-0.449c0.039-0.004,0.076-0.007,0.104-0.005c0.027,0.001,0.033-0.091,0.031-0.228
		c0.482-0.874,1.185-2.315,1.344-2.668c0.154-0.346,0.283-0.694,0.468-1.032c0.173-0.315,0.174-0.663,0.325-0.976
		c0.309-0.641,0.324-1.327,0.555-1.979c0.168-0.479,0.251-0.971,0.401-1.452c0.271-0.866,0.552-1.731,0.853-2.592
		c0.146-0.423,0.23-0.856,0.442-1.271c0.277-0.542,0.442-1.112,0.665-1.669c0.316-0.789,0.643-1.575,0.964-2.363
		c0.037-0.089,0.105-0.177,0.104-0.269c-0.002-0.282,1.012-1.352,0.894-1.597c-0.009-0.018,0.05-0.042,0.062-0.067
		c0.052-0.11,0.103-0.221,0.149-0.333c0.04-0.097,0.059-0.199,0.119-0.288c0.119-0.176,0.283-0.339,0.237-0.553
		c-0.009-0.045,0.002-0.103,0.04-0.136c0.21-0.183,0.211-0.417,0.324-0.621c0.259-0.464-0.1,0.125,0.12-0.348
		c0.069-0.15,0.093-0.057,0.146-0.21c0.084-0.254,0.174-0.508,0.243-0.764c0.122-0.458,0.155-0.112,0.259-0.572
		c0.041-0.184,0.04-0.372,0.064-0.558c0.006-0.044,0.037-0.088,0.058-0.131c0.075-0.149,0.173-0.292,0.222-0.446
		c0.092-0.29,0.146-0.586,0.238-0.876c0.242-0.776,0.615-1.139,1.092-1.855c0.162-0.244,0.186-0.498,0.21-0.761
		c-0.165-0.047-0.3-0.103-0.44-0.122c-0.117-0.015-0.267-0.009-0.36,0.026c-0.265,0.103-0.503,0.231-0.764,0.338
		c-0.146,0.058-0.263,0.13-0.224,0.243c0.086,0.241-0.045,0.42-0.258,0.59c-0.078,0.062-0.119,0.146-0.172,0.221
		c-0.188,0.267-0.277,0.17-0.311,0.473c-0.047,0.418-0.488,0.745-0.525,1.18c-0.025,0.293-0.231,0.57-0.342,0.858
		c-0.256,0.665-0.369,0.539-0.684,1.189c-0.417,0.864-0.381,0.384-0.867,1.23c-0.205,0.358-0.49,0.693-0.715,1.045
		c-0.33,0.518-3.234,8.079-3.328,8.484c-0.111,0.488-0.369,0.932-0.641,1.377c-0.104,0.17-0.166,0.352-0.248,0.529l-0.387,0.842
		l-0.108-0.016c-0.021-0.132-0.387,1.665-0.766,3.82c-0.417-1.854-0.945-4.009-0.965-4.006c-0.098-0.203-0.195-0.404-0.29-0.608
		c-0.52-1.122-1.021-2.25-1.566-3.363c-0.271-0.555-3.186-7.672-3.494-8.175c-0.254-0.414-0.468-0.843-0.727-1.255
		c-0.43-0.687-0.866-1.372-1.326-2.046c-0.336-0.49-0.688-0.977-1.084-1.438c-0.194-0.229-0.491-0.411-0.763-0.598
		c-0.171-0.117-0.383-0.207-0.572-0.307c-0.246,0.302-0.271,0.419-0.037,0.68c0.317,0.353,0.5,0.756,0.634,1.168L169.895,69.635z"/>
</g>
</svg>
